<?xml version="1.0" standalone="no"?>
<!DOCTYPE svg PUBLIC "-//W3C//DTD SVG 20010904//EN"
 "http://www.w3.org/TR/2001/REC-SVG-20010904/DTD/svg10.dtd">
<svg version="1.0" xmlns="http://www.w3.org/2000/svg"
 width="1200.000000pt" height="900.000000pt" viewBox="0 0 1200.000000 900.000000"
 preserveAspectRatio="xMidYMid meet">

<g transform="translate(0.000000,900.000000) scale(0.100000,-0.100000)"
fill="#000000" stroke="none">
<path d="M0 4500 l0 -4500 6000 0 6000 0 0 4500 0 4500 -6000 0 -6000 0 0
-4500z m8525 3490 c-8 -13 -65 -13 -85 0 -11 7 0 10 38 10 33 0 51 -4 47 -10z
m50 0 c-3 -5 -12 -7 -20 -3 -21 7 -19 13 6 13 11 0 18 -4 14 -10z m-3085 -30
c0 -5 -4 -10 -10 -10 -5 0 -10 5 -10 10 0 6 5 10 10 10 6 0 10 -4 10 -10z
m1795 -59 c3 -5 1 -12 -5 -16 -5 -3 -10 1 -10 9 0 18 6 21 15 7z m830 -11 c3
-5 1 -10 -4 -10 -6 0 -11 5 -11 10 0 6 2 10 4 10 3 0 8 -4 11 -10z m-2855 -45
c0 -8 -7 -15 -15 -15 -8 0 -15 7 -15 15 0 8 7 15 15 15 8 0 15 -7 15 -15z
m-160 -39 c0 -2 -7 -6 -15 -10 -8 -3 -15 -1 -15 4 0 6 7 10 15 10 8 0 15 -2
15 -4z m3177 -71 c14 -14 14 -18 -3 -36 -13 -15 -28 -19 -57 -17 -54 4 -70 29
-37 58 28 24 70 22 97 -5z m-5865 -15 c7 -11 18 -20 25 -20 7 0 13 -7 13 -16
0 -14 -9 -15 -67 -9 -84 9 -105 33 -49 55 36 15 65 11 78 -10z m5908 -35 c0
-8 -7 -15 -16 -15 -14 0 -14 3 -4 15 7 8 14 15 16 15 2 0 4 -7 4 -15z m-3062
-90 c10 -9 -27 -45 -51 -51 -47 -10 -74 26 -39 52 14 11 76 10 90 -1z m1942
-21 c0 -17 -22 -14 -28 4 -2 7 3 12 12 12 9 0 16 -7 16 -16z m-2524 -26 c31
-30 31 -56 0 -64 -36 -9 -68 -1 -80 19 -9 15 -6 23 17 43 34 29 34 29 63 2z
m3283 -58 c27 -23 22 -46 -14 -60 -27 -10 -75 2 -75 19 0 13 43 61 55 60 6 0
21 -9 34 -19z m611 -29 c12 -24 -10 -51 -43 -51 -12 0 -39 -3 -59 -6 -46 -8
-48 4 -10 44 34 37 95 44 112 13z m-1150 -101 c0 -5 -7 -10 -15 -10 -8 0 -15
5 -15 10 0 6 7 10 15 10 8 0 15 -4 15 -10z m930 -30 c0 -5 -2 -10 -4 -10 -3 0
-8 5 -11 10 -3 6 -1 10 4 10 6 0 11 -4 11 -10z m-6127 -182 c24 -37 -46 -66
-79 -33 -13 13 -12 17 6 35 24 24 58 23 73 -2z m1772 2 c-3 -5 -13 -10 -21
-10 -8 0 -14 5 -14 10 0 6 9 10 21 10 11 0 17 -4 14 -10z m235 0 c0 -5 -7 -10
-15 -10 -8 0 -15 5 -15 10 0 6 7 10 15 10 8 0 15 -4 15 -10z m450 -10 c0 -5
-7 -10 -15 -10 -8 0 -15 5 -15 10 0 6 7 10 15 10 8 0 15 -4 15 -10z m705 1 c7
-12 -12 -24 -25 -16 -11 7 -4 25 10 25 5 0 11 -4 15 -9z m425 -6 c0 -8 -7 -15
-15 -15 -8 0 -15 7 -15 15 0 8 7 15 15 15 8 0 15 -7 15 -15z m1390 0 c0 -9 -6
-12 -15 -9 -8 4 -12 10 -9 15 8 14 24 10 24 -6z m-933 -11 c-3 -3 -12 -4 -19
-1 -8 3 -5 6 6 6 11 1 17 -2 13 -5z m476 -1 c-7 -2 -19 -2 -25 0 -7 3 -2 5 12
5 14 0 19 -2 13 -5z m937 -14 c0 -5 -4 -9 -10 -9 -5 0 -10 7 -10 16 0 8 5 12
10 9 6 -3 10 -10 10 -16z m230 11 c0 -5 -7 -10 -15 -10 -8 0 -15 5 -15 10 0 6
7 10 15 10 8 0 15 -4 15 -10z m-4859 -147 c35 -21 35 -24 5 -52 -22 -21 -27
-22 -53 -9 -34 16 -41 45 -16 63 24 19 29 18 64 -2z m939 -43 c0 -5 -4 -10
-10 -10 -5 0 -10 5 -10 10 0 6 5 10 10 10 6 0 10 -4 10 -10z m230 -10 c0 -5
-9 -10 -20 -10 -11 0 -20 5 -20 10 0 6 9 10 20 10 11 0 20 -4 20 -10z m455 0
c3 -5 -3 -10 -15 -10 -12 0 -18 5 -15 10 3 6 10 10 15 10 5 0 12 -4 15 -10z
m715 -11 c0 -5 -7 -9 -15 -9 -15 0 -20 12 -9 23 8 8 24 -1 24 -14z m1355 11
c3 -5 -3 -10 -15 -10 -12 0 -18 5 -15 10 3 6 10 10 15 10 5 0 12 -4 15 -10z
m455 0 c0 -5 -7 -10 -16 -10 -8 0 -12 5 -9 10 3 6 10 10 16 10 5 0 9 -4 9 -10z
m475 0 c3 -5 -3 -10 -15 -10 -12 0 -18 5 -15 10 3 6 10 10 15 10 5 0 12 -4 15
-10z m450 0 c3 -5 -1 -10 -9 -10 -9 0 -16 5 -16 10 0 6 4 10 9 10 6 0 13 -4
16 -10z m235 -10 c0 -5 -4 -10 -10 -10 -5 0 -10 5 -10 10 0 6 5 10 10 10 6 0
10 -4 10 -10z m-2087 -7 c-7 -2 -19 -2 -25 0 -7 3 -2 5 12 5 14 0 19 -2 13 -5z
m-4033 -38 c0 -9 -6 -12 -15 -9 -8 4 -15 10 -15 15 0 5 7 9 15 9 8 0 15 -7 15
-15z m2719 -48 c57 -67 104 -135 132 -189 30 -59 44 -139 56 -325 5 -71 3 -83
-10 -83 -17 0 -77 -32 -77 -40 0 -3 25 -7 56 -8 40 -2 53 1 48 9 -4 8 -3 9 4
5 20 -12 13 -36 -10 -36 -17 0 -19 -3 -10 -12 8 -8 12 -45 12 -99 l0 -88 -35
-12 c-65 -24 -33 -34 121 -39 82 -3 130 -7 107 -8 -23 -1 -45 -6 -48 -12 -3
-5 -23 -10 -43 -10 -47 0 -192 -32 -192 -43 0 -4 8 -10 18 -13 9 -3 27 -11 39
-16 13 -7 41 -8 70 -4 26 5 53 7 58 7 6 -1 30 -3 55 -6 297 -31 313 -31 325
-3 6 12 25 27 44 33 19 6 36 16 38 22 5 15 -37 53 -59 53 -10 0 -18 5 -18 10
0 6 26 10 58 11 31 1 141 3 244 5 114 2 190 0 193 -6 3 -6 -6 -21 -22 -34 -22
-20 -26 -27 -15 -37 17 -18 15 -40 -7 -66 -15 -18 -33 -24 -87 -29 -38 -3 -72
-10 -75 -16 -11 -18 -385 -9 -564 14 -44 5 -86 10 -92 11 -7 0 -13 4 -13 9 0
4 -11 8 -25 8 -41 0 -28 -14 27 -30 38 -11 54 -21 56 -35 2 -11 13 -28 23 -38
25 -24 24 -30 -4 -23 -39 9 -67 -4 -67 -31 0 -15 -5 -23 -12 -20 -13 4 -15 16
-17 90 -1 29 -5 37 -19 37 -10 0 -24 -10 -31 -23 -10 -19 -8 -29 13 -69 16
-31 21 -50 14 -54 -12 -7 -22 5 -46 59 -10 22 -24 37 -34 37 -26 0 -22 19 6
30 13 5 27 14 32 21 16 27 -81 2 -141 -36 -106 -66 -170 -110 -173 -117 -2 -5
-8 -8 -14 -8 -9 0 -70 -48 -157 -125 -47 -41 -129 -125 -168 -170 -18 -20 -33
-31 -32 -23 1 17 17 56 18 43 2 -17 21 19 21 38 0 11 -5 15 -11 11 -11 -6 -29
12 -29 29 0 4 16 15 36 23 19 8 63 45 97 82 78 83 119 122 131 122 5 0 19 10
30 23 12 12 29 27 38 32 9 6 50 33 91 60 41 28 83 55 93 61 17 10 17 12 0 40
-18 30 -18 31 8 72 36 58 37 139 1 186 -33 43 -32 75 2 102 24 19 26 24 16 45
-7 13 -17 42 -23 64 -17 63 -76 180 -84 167 -10 -17 -26 -15 -26 3 0 8 7 15
15 15 8 0 15 4 15 9 0 14 -34 71 -42 71 -5 0 -8 6 -8 13 0 15 -45 100 -70 132
-8 11 -32 33 -52 48 -21 15 -38 34 -38 41 0 21 28 27 44 11 8 -8 26 -15 40
-15 21 0 26 -5 26 -26 0 -14 11 -40 25 -58 14 -18 25 -36 25 -40 0 -11 44 -70
63 -84 9 -7 17 -19 17 -26 0 -8 7 -16 15 -20 16 -6 22 19 6 28 -4 3 -11 31
-14 61 -3 31 -10 62 -15 68 -5 7 -12 27 -15 45 -11 60 -33 112 -47 112 -5 0
-10 5 -10 10 0 20 54 -3 79 -33z m2058 -29 c-3 -8 -6 -5 -6 6 -1 11 2 17 5 13
3 -3 4 -12 1 -19z m197 -14 c10 -25 8 -31 -25 -66 -30 -32 -99 -131 -99 -143
0 -3 -11 -23 -25 -45 -14 -22 -25 -45 -25 -51 0 -6 -18 -47 -39 -89 -21 -43
-44 -102 -50 -131 -10 -47 -10 -54 9 -74 25 -27 26 -64 1 -107 -11 -18 -22
-53 -26 -78 -6 -38 -3 -51 19 -83 31 -45 33 -86 6 -117 l-20 -23 22 -13 c13
-7 30 -16 38 -20 23 -12 132 -86 155 -106 11 -9 40 -34 65 -54 72 -58 171
-156 225 -223 28 -34 62 -76 77 -93 15 -17 30 -40 34 -50 3 -10 9 -18 14 -18
4 0 10 -8 14 -17 3 -10 15 -31 25 -48 38 -59 61 -106 61 -126 0 -13 4 -18 12
-13 8 5 10 -3 5 -28 -4 -27 -1 -37 15 -47 15 -9 19 -20 15 -39 -3 -15 -1 -34
4 -44 6 -10 5 -19 -1 -23 -5 -3 -10 0 -10 9 0 8 -4 16 -8 18 -4 2 -20 28 -35
58 -61 124 -154 261 -269 395 -91 106 -125 139 -216 215 -24 19 -57 47 -74 63
-17 15 -35 27 -39 27 -4 0 -14 6 -21 13 -59 54 -214 141 -243 136 -25 -5 -30
-26 -8 -31 15 -3 13 -7 -12 -31 -16 -15 -34 -27 -38 -27 -5 0 -15 -6 -22 -14
-12 -11 -10 -15 11 -26 17 -10 21 -17 14 -25 -8 -10 -18 -9 -45 4 -19 9 -34
21 -35 27 0 13 63 64 79 64 20 0 11 17 -14 28 -41 19 -49 15 -73 -40 -16 -35
-26 -48 -33 -41 -7 7 -6 22 5 47 15 36 12 41 -23 37 -7 -2 -10 2 -6 8 3 6 16
11 28 11 12 0 60 13 107 29 47 16 104 34 128 42 23 7 41 17 39 23 -2 6 -32 18
-66 26 -65 17 -78 31 -39 42 28 7 25 9 -32 13 -25 2 -110 13 -189 24 -79 10
-166 17 -195 14 -41 -4 -477 12 -616 22 -19 2 -48 3 -63 4 -25 1 -27 3 -14 15
8 8 34 17 58 19 24 3 8 3 -36 2 -107 -4 -107 -4 -90 52 8 26 12 50 10 54 -3 4
8 9 23 12 15 3 52 11 82 17 38 7 62 19 76 36 l21 25 272 -1 c174 0 280 -4 293
-11 11 -6 57 -13 102 -15 100 -5 184 -12 213 -18 83 -17 110 -18 116 -2 5 13
-1 16 -29 16 -21 0 -33 4 -29 10 4 6 -13 10 -42 10 -27 0 -75 7 -107 15 -43
11 -141 17 -384 21 -180 3 -334 10 -344 15 -9 5 -62 9 -117 9 -83 0 -101 3
-101 15 0 13 21 15 128 15 91 1 122 3 110 11 -14 8 -18 23 -18 64 0 63 7 85
26 85 12 0 12 4 3 21 -18 34 -18 67 0 72 9 2 23 16 30 31 13 24 13 31 -3 60
-23 42 -18 67 16 83 32 16 51 10 69 -24 11 -21 11 -27 2 -30 -7 -3 -13 -12
-13 -21 0 -8 -7 -23 -15 -32 -14 -15 -14 -19 3 -40 18 -22 21 -23 53 -10 19 8
39 19 45 25 43 40 84 75 89 75 3 0 5 -12 5 -27 0 -27 2 -28 47 -25 90 5 127
-63 121 -221 l-3 -97 27 -6 c15 -3 30 -9 33 -14 3 -5 18 -5 34 0 16 4 31 7 33
5 2 -1 16 -5 31 -9 20 -5 27 -3 22 5 -6 8 -2 8 13 0 11 -6 43 -11 71 -11 46 0
51 2 51 22 0 72 72 208 110 208 13 0 25 -12 34 -32 8 -18 15 -26 16 -18 1 8 5
2 9 -15 4 -18 7 8 7 62 l1 93 -26 -7 -26 -6 26 34 c14 19 36 48 49 66 13 18
27 30 32 27 4 -3 8 2 8 11 0 12 6 15 23 11 12 -3 16 -3 10 0 -18 8 -16 21 2
21 17 0 20 -18 6 -32 -5 -6 -12 -35 -14 -65 -3 -30 -8 -73 -11 -95 -3 -22 -8
-64 -11 -94 -4 -30 -9 -60 -12 -68 -3 -7 1 -13 10 -13 10 0 16 17 21 59 5 43
13 64 31 81 14 13 25 28 25 34 0 6 18 31 40 56 22 25 40 49 40 54 0 5 18 35
40 68 22 33 40 64 40 69 0 16 38 10 44 -7z m2086 -24 c0 -5 -5 -10 -11 -10 -5
0 -7 5 -4 10 3 6 8 10 11 10 2 0 4 -4 4 -10z m-5095 -30 c3 -5 -3 -10 -14 -10
-12 0 -21 5 -21 10 0 6 6 10 14 10 8 0 18 -4 21 -10z m-2815 -10 c0 -5 -2 -10
-4 -10 -3 0 -8 5 -11 10 -3 6 -1 10 4 10 6 0 11 -4 11 -10z m3114 -5 c-4 -8
-12 -15 -19 -15 -7 0 -15 7 -19 15 -4 11 1 15 19 15 18 0 23 -4 19 -15z m908
3 c-9 -9 -15 -9 -24 0 -9 9 -7 12 12 12 19 0 21 -3 12 -12z m975 -10 c-3 -8
-6 -5 -6 6 -1 11 2 17 5 13 3 -3 4 -12 1 -19z m-3307 -23 c0 -8 -7 -15 -15
-15 -8 0 -15 7 -15 15 0 8 7 15 15 15 8 0 15 -7 15 -15z m210 11 c0 -11 -19
-15 -25 -6 -3 5 1 10 9 10 9 0 16 -2 16 -4z m240 -5 c0 -18 -18 -21 -30 -6
-10 13 -9 15 9 15 11 0 21 -4 21 -9z m1400 -7 c0 -9 -7 -14 -17 -12 -25 5 -28
28 -4 28 12 0 21 -6 21 -16z m927 5 c-14 -8 -22 -8 -30 0 -8 8 -3 11 19 11 25
-1 27 -2 11 -11z m430 -11 c-3 -8 -6 -5 -6 6 -1 11 2 17 5 13 3 -3 4 -12 1
-19z m120 -15 c-3 -10 -5 -4 -5 12 0 17 2 24 5 18 2 -7 2 -21 0 -30z m1043 22
c0 -8 -4 -15 -10 -15 -5 0 -10 7 -10 15 0 8 5 15 10 15 6 0 10 -7 10 -15z
m460 0 c0 -8 -7 -15 -15 -15 -8 0 -15 7 -15 15 0 8 7 15 15 15 8 0 15 -7 15
-15z m238 3 c-3 -7 -12 -14 -21 -16 -12 -2 -15 1 -11 12 7 19 38 22 32 4z
m2892 -8 c13 -9 10 -14 -14 -36 l-30 -26 -19 23 c-18 22 -18 24 -1 36 21 15
43 16 64 3z m-8515 -11 c10 -15 -1 -23 -20 -15 -9 3 -13 10 -10 16 8 13 22 13
30 -1z m3735 -13 c0 -3 -4 -8 -10 -11 -5 -3 -10 -1 -10 4 0 6 5 11 10 11 6 0
10 -2 10 -4z m2905 -6 c3 -5 -3 -10 -15 -10 -12 0 -18 5 -15 10 3 6 10 10 15
10 5 0 12 -4 15 -10z m-2720 -60 c10 -46 0 -36 -14 14 -5 22 -6 35 -2 30 5 -5
12 -25 16 -44z m-4930 10 c3 -5 1 -10 -4 -10 -6 0 -11 5 -11 10 0 6 2 10 4 10
3 0 8 -4 11 -10z m2145 -26 c0 -9 -5 -14 -12 -12 -18 6 -21 28 -4 28 9 0 16
-7 16 -16z m3140 -44 c0 -7 -45 -30 -57 -30 -3 0 1 8 10 18 17 18 47 26 47 12z
m25 0 c3 -5 1 -10 -4 -10 -6 0 -11 5 -11 10 0 6 2 10 4 10 3 0 8 -4 11 -10z
m-4214 -28 c-7 -2 -19 -1 -29 3 -14 5 -14 7 -2 15 9 5 20 4 28 -3 10 -8 11
-12 3 -15z m6449 -33 c0 -5 -7 -9 -15 -9 -8 0 -15 7 -15 15 0 9 6 12 15 9 8
-4 15 -10 15 -15z m-4842 -1 c-3 -7 -11 -13 -18 -13 -7 0 -15 6 -17 13 -3 7 4
12 17 12 13 0 20 -5 18 -12z m2322 -24 c0 -7 11 -15 25 -18 26 -7 35 -26 13
-26 -18 1 -54 31 -67 58 -11 22 -11 22 8 10 12 -7 21 -18 21 -24z m900 10 c0
-2 -7 -4 -15 -4 -8 0 -15 4 -15 10 0 5 7 7 15 4 8 -4 15 -8 15 -10z m-3000 -4
c0 -5 -4 -10 -9 -10 -6 0 -13 5 -16 10 -3 6 1 10 9 10 9 0 16 -4 16 -10z
m2256 -27 c-11 -11 -19 6 -11 24 8 17 8 17 12 0 3 -10 2 -21 -1 -24z m1464 33
c0 -9 -30 -14 -35 -6 -4 6 3 10 14 10 12 0 21 -2 21 -4z m-960 -21 c0 -8 -4
-15 -10 -15 -5 0 -10 7 -10 15 0 8 5 15 10 15 6 0 10 -7 10 -15z m-4442 -23
c2 -7 -3 -12 -12 -12 -9 0 -16 7 -16 16 0 17 22 14 28 -4z m5232 8 c0 -12 -28
-25 -36 -17 -9 9 6 27 22 27 8 0 14 -5 14 -10z m-7245 -13 c12 -10 14 -16 7
-21 -21 -13 -13 -27 24 -42 l37 -15 -21 -21 c-17 -18 -25 -19 -49 -10 -57 22
-93 25 -93 8 0 -10 -9 -16 -25 -16 -21 0 -25 5 -25 31 0 38 33 86 63 92 43 8
63 7 82 -6z m9974 -38 c19 -18 21 -24 9 -35 -21 -21 -91 -23 -96 -2 -3 17 34
58 53 58 6 0 21 -10 34 -21z m-5293 -33 c20 -19 33 -39 30 -45 -4 -5 -28 -13
-54 -16 -26 -3 -59 -9 -74 -11 -26 -5 -28 -3 -28 26 0 36 38 80 70 80 12 0 37
-15 56 -34z m-3548 -4 c2 -7 -3 -12 -12 -12 -9 0 -16 7 -16 16 0 17 22 14 28
-4z m7292 3 c0 -9 -6 -12 -15 -9 -8 4 -15 10 -15 15 0 5 7 9 15 9 8 0 15 -7
15 -15z m195 6 c3 -5 1 -12 -5 -16 -5 -3 -10 1 -10 9 0 18 6 21 15 7z m-6255
-33 c11 -12 20 -27 20 -32 0 -19 -44 -32 -80 -24 -19 4 -46 4 -60 1 -22 -5
-20 -1 18 35 47 47 72 52 102 20z m8394 -40 c14 -24 -16 -46 -55 -40 -37 5
-43 16 -27 42 16 25 65 24 82 -2z m-8214 -8 c0 -5 -4 -10 -9 -10 -6 0 -13 5
-16 10 -3 6 1 10 9 10 9 0 16 -4 16 -10z m1165 0 c-3 -5 -13 -10 -21 -10 -8 0
-14 5 -14 10 0 6 9 10 21 10 11 0 17 -4 14 -10z m3495 -10 c0 -5 -9 -10 -20
-10 -11 0 -20 5 -20 10 0 6 9 10 20 10 11 0 20 -4 20 -10z m-4428 -22 c-9 -9
-15 -9 -24 0 -9 9 -7 12 12 12 19 0 21 -3 12 -12z m690 0 c-9 -9 -15 -9 -24 0
-9 9 -7 12 12 12 19 0 21 -3 12 -12z m-497 -8 c3 -5 -3 -10 -14 -10 -12 0 -21
5 -21 10 0 6 6 10 14 10 8 0 18 -4 21 -10z m3975 0 c0 -5 -9 -10 -21 -10 -11
0 -17 5 -14 10 3 6 13 10 21 10 8 0 14 -4 14 -10z m-5160 -25 c10 -12 10 -15
-4 -15 -9 0 -16 7 -16 15 0 8 2 15 4 15 2 0 9 -7 16 -15z m4790 0 c0 -8 -9
-15 -20 -15 -11 0 -20 7 -20 15 0 8 9 15 20 15 11 0 20 -7 20 -15z m800 5 c0
-5 -7 -10 -15 -10 -8 0 -15 5 -15 10 0 6 7 10 15 10 8 0 15 -4 15 -10z m1354
-5 c3 -9 0 -15 -9 -15 -9 0 -12 6 -9 15 4 8 7 15 9 15 2 0 5 -7 9 -15z m190 0
c4 -10 -1 -15 -16 -15 -17 0 -18 2 -8 15 7 8 14 15 15 15 2 0 5 -7 9 -15z
m-4227 -11 c46 -12 54 -93 14 -133 -11 -11 -17 -22 -14 -24 11 -12 -90 -19
-112 -9 -37 17 -59 78 -45 124 10 35 13 37 58 41 26 2 54 4 62 5 8 1 25 -1 37
-4z m1713 -19 c0 -8 -7 -15 -15 -15 -8 0 -15 7 -15 15 0 8 7 15 15 15 8 0 15
-7 15 -15z m2693 -42 c-7 -2 -19 -2 -25 0 -7 3 -2 5 12 5 14 0 19 -2 13 -5z
m-4326 -25 c-3 -8 -6 -5 -6 6 -1 11 2 17 5 13 3 -3 4 -12 1 -19z m-1809 -46
c2 -7 -3 -12 -12 -12 -9 0 -16 7 -16 16 0 17 22 14 28 -4z m272 -42 c0 -5 -6
-10 -14 -10 -8 0 -18 5 -21 10 -3 6 3 10 14 10 12 0 21 -4 21 -10z m3015 -20
c-3 -5 -13 -6 -21 -3 -12 4 -13 8 -3 14 15 9 32 2 24 -11z m890 10 c3 -5 -3
-10 -15 -10 -12 0 -18 5 -15 10 3 6 10 10 15 10 5 0 12 -4 15 -10z m-2418 -36
c-3 -3 -12 -4 -19 -1 -8 3 -5 6 6 6 11 1 17 -2 13 -5z m1953 -24 c0 -24 -35
-40 -86 -40 -22 0 -34 5 -34 14 0 22 42 45 83 45 31 1 37 -2 37 -19z m2450 -1
c0 -5 -4 -9 -10 -9 -5 0 -10 7 -10 16 0 8 5 12 10 9 6 -3 10 -10 10 -16z
m-5230 -14 c0 -8 -7 -15 -15 -15 -16 0 -20 12 -8 23 11 12 23 8 23 -8z m173 8
c-7 -2 -19 -2 -25 0 -7 3 -2 5 12 5 14 0 19 -2 13 -5z m3730 -8 c-2 -5 -39
-11 -83 -13 -67 -2 -80 0 -80 13 0 13 13 15 83 13 48 -2 81 -7 80 -13z m2204
-21 c-3 -3 -12 -4 -19 -1 -8 3 -5 6 6 6 11 1 17 -2 13 -5z m-4127 -14 c0 -5
-9 -10 -21 -10 -11 0 -17 5 -14 10 3 6 13 10 21 10 8 0 14 -4 14 -10z m4804
-32 c8 -13 6 -22 -8 -37 -24 -27 -58 -27 -81 -1 -17 19 -17 21 0 40 23 25 73
24 89 -2z m-6942 -10 c-6 -6 -16 -7 -22 -3 -9 6 -9 9 1 16 17 10 34 0 21 -13z
m-232 2 c0 -5 -7 -10 -15 -10 -8 0 -15 5 -15 10 0 6 7 10 15 10 8 0 15 -4 15
-10z m4810 -15 c0 -16 -51 -20 -109 -9 -54 11 -33 24 39 24 56 0 70 -3 70 -15z
m-1392 -47 c-6 -18 -28 -21 -28 -4 0 9 7 16 16 16 9 0 14 -5 12 -12z m-4364
-19 c-3 -5 -10 -7 -15 -3 -5 3 -7 10 -3 15 3 5 10 7 15 3 5 -3 7 -10 3 -15z
m456 -5 c0 -2 -9 -4 -21 -4 -11 0 -18 4 -14 10 5 8 35 3 35 -6z m235 6 c-3 -5
-13 -10 -21 -10 -8 0 -14 5 -14 10 0 6 9 10 21 10 11 0 17 -4 14 -10z m3885 0
c0 -5 -7 -10 -15 -10 -8 0 -15 5 -15 10 0 6 7 10 15 10 8 0 15 -4 15 -10z
m474 -15 c-4 -8 -10 -12 -15 -9 -11 6 -2 24 11 24 5 0 7 -7 4 -15z m-952 -12
c17 -15 17 -17 2 -35 -11 -11 -31 -18 -56 -18 -35 0 -38 2 -38 29 0 30 10 37
54 40 11 0 28 -6 38 -16z m-2002 -40 c0 -12 3 -13 15 -3 8 6 19 8 26 4 8 -4 2
-11 -17 -19 -33 -14 -54 -4 -54 26 0 12 5 16 15 13 8 -4 15 -13 15 -21z m-770
2 c35 -18 36 -22 12 -51 -24 -30 -77 -38 -112 -17 -25 14 -27 19 -18 44 7 21
17 29 41 32 18 2 36 5 40 5 4 1 21 -5 37 -13z m1880 0 c0 -8 -4 -15 -10 -15
-5 0 -10 7 -10 15 0 8 5 15 10 15 6 0 10 -7 10 -15z m60 1 c0 -8 7 -16 15 -20
23 -8 18 -26 -8 -26 -30 0 -46 17 -40 41 6 22 33 26 33 5z m3002 2 c-9 -9 -15
-9 -24 0 -9 9 -7 12 12 12 19 0 21 -3 12 -12z m-3817 -32 c11 4 25 11 32 16
14 11 183 12 225 2 15 -3 36 -3 45 1 10 3 55 9 99 11 78 5 83 4 102 -21 22
-28 48 -31 75 -11 18 14 16 14 147 -28 24 -8 36 -19 38 -34 4 -27 45 -40 67
-22 17 14 16 14 120 -37 44 -22 60 -36 61 -52 2 -31 10 -35 56 -34 25 1 46 -4
56 -13 8 -9 34 -27 56 -41 47 -30 58 -43 51 -61 -7 -20 32 -53 58 -47 27 6 28
5 96 -68 40 -44 51 -61 41 -67 -23 -14 16 -63 44 -56 19 5 29 -4 62 -52 21
-31 45 -63 51 -70 9 -10 10 -19 3 -32 -16 -30 -27 -32 -34 -5 -6 25 -20 33
-30 16 -3 -5 1 -12 10 -15 8 -3 13 -10 9 -16 -8 -12 -45 10 -45 27 0 7 -4 13
-10 13 -5 0 -10 7 -10 15 0 8 -6 15 -12 15 -20 0 -40 51 -27 66 8 10 6 20 -8
38 -20 28 -33 32 -49 16 -7 -7 -30 8 -72 50 -51 50 -61 65 -56 85 7 28 -23 49
-59 40 -15 -4 -30 -1 -40 9 -8 9 -18 16 -22 16 -3 0 -26 15 -50 33 -29 21 -44
40 -45 54 0 25 -41 54 -48 34 -6 -18 -31 -13 -101 21 -72 35 -86 46 -86 67 0
17 -42 34 -50 21 -9 -15 -61 -12 -102 5 -19 8 -45 15 -58 15 -14 0 -26 9 -33
25 -8 17 -20 25 -37 25 -14 0 -25 -4 -25 -10 0 -14 -114 -13 -161 2 -22 6 -39
17 -39 25 0 17 -49 17 -56 -1 -4 -9 -32 -16 -90 -21 -77 -6 -88 -5 -107 13
-17 15 -28 18 -44 11 -13 -4 -23 -15 -23 -22 0 -8 -24 -20 -60 -30 -68 -19
-130 -22 -130 -6 0 6 -12 9 -27 7 -20 -2 -29 -9 -31 -24 -3 -21 -21 -31 -120
-68 -49 -18 -66 -20 -57 -6 8 13 -25 26 -34 13 -6 -10 -41 -25 -41 -19 0 3 17
15 37 27 20 13 31 25 25 27 -19 6 12 31 47 38 17 4 31 10 31 14 0 4 19 12 41
19 33 10 43 10 49 0 12 -18 59 -2 69 23 8 22 77 47 133 48 15 0 30 5 34 11 5
8 12 4 23 -10 12 -16 23 -20 36 -15z m6069 -1 c-7 -18 -50 -39 -63 -31 -17 11
-13 44 6 54 21 12 63 -5 57 -23z m-6724 5 c0 -5 13 -31 29 -58 16 -27 26 -55
22 -61 -9 -15 -19 -4 -55 61 -30 54 -32 68 -11 68 8 0 15 -4 15 -10z m1783 -4
c21 -16 22 -36 2 -36 -8 0 -15 5 -15 10 0 6 -7 10 -15 10 -20 0 -19 -19 2 -42
20 -22 10 -36 -12 -18 -26 22 -43 -4 -20 -30 23 -25 16 -34 -19 -20 -29 10
-45 38 -29 49 5 3 18 25 29 48 20 45 44 54 77 29z m-2623 -22 c0 -9 -5 -14
-12 -12 -18 6 -21 28 -4 28 9 0 16 -7 16 -16z m774 -20 c24 -9 19 -21 -11 -29
-39 -9 -53 -23 -53 -51 0 -30 44 -51 66 -33 22 18 18 42 -5 30 -10 -6 -21 -7
-25 -4 -8 9 14 33 30 33 8 0 14 5 14 10 0 6 6 10 14 10 41 0 22 -93 -22 -107
-37 -12 -45 -11 -76 12 -46 34 -32 107 24 128 21 8 26 8 44 1z m1943 -20 c44
-33 46 -81 6 -119 -34 -30 -37 -31 -79 -4 -36 22 -43 49 -19 69 8 7 15 17 15
22 0 10 32 57 39 58 2 0 19 -11 38 -26z m-6162 4 c4 -4 -5 -23 -21 -43 -23
-30 -32 -35 -56 -30 -79 15 -93 16 -79 7 7 -5 10 -15 7 -21 -10 -16 -41 -14
-56 4 -9 10 -9 15 -1 15 6 0 11 7 11 15 0 9 -9 15 -22 15 -28 1 -56 21 -51 36
4 12 256 14 268 2z m1095 -43 c0 -9 -6 -12 -15 -9 -8 4 -15 10 -15 15 0 5 7 9
15 9 8 0 15 -7 15 -15z m1640 -5 c0 -5 -7 -10 -15 -10 -8 0 -15 5 -15 10 0 6
7 10 15 10 8 0 15 -4 15 -10z m455 0 c-3 -5 -12 -10 -20 -10 -8 0 -17 5 -20
10 -4 6 5 10 20 10 15 0 24 -4 20 -10z m2235 -6 c47 -9 93 -20 102 -25 10 -5
25 -9 33 -9 29 0 202 -65 268 -101 181 -99 218 -125 345 -244 61 -57 141 -145
202 -222 26 -32 120 -195 120 -208 0 -7 5 -17 10 -20 6 -4 8 -11 4 -16 -3 -5
-22 21 -41 58 -35 67 -45 82 -127 193 -40 53 -229 250 -241 250 -5 0 -81 56
-95 70 -21 21 -111 74 -195 114 -55 26 -108 52 -117 57 -10 5 -24 9 -32 9 -7
0 -27 7 -42 15 -16 8 -39 15 -52 15 -12 0 -30 4 -40 10 -59 32 -348 56 -513
41 -135 -11 -235 -27 -260 -41 -9 -5 -34 -11 -55 -15 l-39 -6 40 16 c43 18 66
24 195 54 114 26 405 29 530 5z m1650 1 c0 -8 -7 -15 -15 -15 -8 0 -15 7 -15
15 0 8 7 15 15 15 8 0 15 -7 15 -15z m-4590 -11 c0 -2 -12 -4 -27 -4 -21 0
-24 3 -14 9 13 8 41 5 41 -5z m4830 0 c0 -2 -9 -4 -21 -4 -11 0 -18 4 -14 10
5 8 35 3 35 -6z m-6990 -4 c0 -5 -4 -10 -10 -10 -5 0 -10 5 -10 10 0 6 5 10
10 10 6 0 10 -4 10 -10z m3776 -32 c16 -24 35 -49 42 -57 11 -12 11 -15 0 -22
-9 -6 -18 -2 -28 13 -8 13 -23 31 -32 40 -10 10 -18 22 -18 27 0 5 -6 12 -12
14 -10 4 -9 8 2 16 8 6 16 11 16 11 1 0 14 -19 30 -42z m-1156 22 c0 -5 -9
-10 -20 -10 -11 0 -20 5 -20 10 0 6 9 10 20 10 11 0 20 -4 20 -10z m2455 -30
c28 -7 79 -19 115 -27 139 -32 279 -91 393 -165 32 -21 60 -38 63 -38 5 0 70
-47 109 -80 70 -59 225 -224 225 -240 0 -4 3 -10 8 -12 21 -9 132 -200 132
-226 0 -7 4 -12 9 -12 5 0 12 -13 16 -30 4 -16 11 -32 16 -35 5 -4 9 -13 9
-22 0 -13 19 -63 40 -103 4 -9 11 -30 15 -48 5 -23 12 -32 27 -32 16 0 19 4
13 23 -3 12 -11 41 -15 65 -5 23 -14 51 -20 63 -6 11 -9 25 -6 32 2 7 5 4 5
-5 1 -10 5 -18 10 -18 5 0 12 -16 16 -36 3 -20 10 -44 15 -53 10 -20 37 -124
45 -173 6 -37 7 -38 46 -38 l41 0 -7 43 c-13 89 -16 97 -36 97 -12 0 -21 9
-25 28 -3 15 -9 36 -14 47 -21 47 -29 99 -19 111 6 8 8 26 4 44 -5 23 -12 30
-31 30 -17 0 -24 6 -24 19 0 11 -7 26 -15 35 -8 8 -15 22 -15 32 0 16 1 16 18
1 16 -15 19 -15 31 4 7 12 10 24 6 27 -3 4 -10 0 -15 -8 -8 -13 -10 -12 -10 3
0 9 4 17 9 17 5 0 12 8 14 18 4 13 5 11 6 -5 0 -13 5 -23 10 -23 5 0 19 -21
32 -46 21 -44 21 -48 5 -60 -11 -8 -13 -14 -7 -19 6 -3 11 -15 11 -25 0 -13 8
-20 27 -22 23 -3 28 -11 47 -73 12 -38 25 -76 30 -84 6 -10 3 -18 -9 -28 -18
-13 -18 -16 -2 -101 9 -49 17 -107 17 -130 l0 -41 103 -3 c102 -4 161 -19 184
-48 9 -11 12 -12 13 -2 0 7 5 10 10 7 6 -3 10 -1 10 4 0 6 4 11 10 11 5 0 7
-7 4 -15 -4 -8 -14 -15 -23 -15 -13 0 -13 -2 -2 -9 11 -7 9 -10 -8 -16 -14 -4
-20 -12 -17 -21 7 -19 -21 -18 -58 1 -31 16 -211 22 -220 6 -3 -4 36 -11 87
-15 95 -7 187 -38 187 -63 0 -18 -9 -16 -55 7 -33 17 -53 19 -129 15 -49 -3
-91 -7 -94 -10 -3 -3 -1 -5 4 -5 98 -2 161 -12 197 -29 53 -26 59 -26 82 -1
20 23 29 21 19 -4 -3 -9 -12 -16 -20 -16 -8 0 -11 -6 -7 -16 5 -14 2 -16 -23
-10 -16 4 -30 12 -32 17 -2 5 -11 9 -21 9 -9 0 -22 5 -28 11 -5 5 -22 7 -37 3
-27 -6 -36 -23 -13 -25 49 -5 72 -10 119 -31 32 -13 46 -24 36 -26 -9 -2 -37
5 -61 16 -39 18 -50 18 -113 7 l-69 -13 88 -1 c48 0 87 -4 87 -8 0 -9 48 -33
66 -33 21 0 26 -19 10 -36 -15 -14 -16 -14 -16 5 0 15 -6 21 -21 21 -11 0 -27
7 -35 15 -18 17 -109 22 -99 4 4 -6 13 -8 21 -5 8 3 22 2 32 -3 9 -5 34 -17
55 -27 20 -10 37 -22 37 -26 0 -10 -14 -10 -24 -1 -27 27 -236 46 -251 23 -9
-14 8 -18 90 -21 83 -3 145 -16 145 -31 0 -4 9 -8 19 -8 18 0 31 -18 31 -43 0
-6 -7 -2 -15 10 -8 12 -28 24 -45 28 -16 4 -32 11 -35 16 -4 5 -49 9 -101 9
-86 0 -95 -2 -92 -17 3 -15 18 -19 106 -23 58 -3 106 -10 110 -16 4 -6 19 -14
34 -17 15 -4 25 -13 24 -22 -3 -23 -16 -30 -16 -9 0 30 -77 49 -180 45 -78 -3
-99 -10 -100 -33 0 -5 49 -8 109 -8 84 0 111 -3 121 -15 10 -12 10 -15 -3 -15
-9 0 -19 5 -22 10 -4 6 -21 8 -38 6 -18 -3 -83 -8 -146 -10 -63 -3 -116 -8
-118 -10 -3 -3 -2 -9 2 -15 9 -15 58 -14 73 1 9 9 12 9 12 0 0 -8 27 -12 93
-12 61 -1 100 -6 117 -15 34 -19 58 -19 63 3 4 13 5 12 6 -4 1 -20 25 -39 44
-36 4 1 7 -3 7 -9 0 -6 -7 -8 -16 -5 -9 3 -28 9 -42 13 -14 3 -37 12 -51 19
-17 9 -64 14 -138 14 -96 0 -112 -2 -107 -15 5 -12 26 -15 98 -15 70 -1 99 -5
126 -20 41 -23 33 -26 -14 -6 -25 10 -46 12 -82 4 -27 -5 -71 -8 -99 -6 -39 2
-50 0 -50 -12 0 -12 20 -16 108 -18 64 -2 107 -7 107 -13 0 -6 -40 -10 -107
-9 -140 2 -133 2 -127 -15 5 -12 27 -15 113 -15 77 -1 111 -5 125 -15 17 -13
18 -15 3 -15 -9 0 -17 5 -17 11 0 8 -34 9 -112 5 -62 -3 -114 -5 -115 -6 -2 0
-14 -21 -28 -47 -21 -39 -25 -42 -20 -18 4 17 11 32 16 33 5 2 9 10 9 19 0 12
-17 14 -113 10 l-114 -4 -101 -101 c-56 -56 -102 -104 -102 -107 0 -31 -283
-285 -318 -285 -7 0 -12 -4 -12 -9 0 -5 -10 -13 -22 -17 -13 -4 -25 -9 -28
-13 -5 -6 -102 -53 -173 -84 -21 -10 -47 -17 -57 -17 -11 0 -20 -4 -20 -8 0
-12 -123 -33 -132 -24 -5 5 11 14 34 21 64 19 130 41 153 51 11 5 45 19 75 31
30 13 57 25 60 28 3 4 32 20 64 36 33 17 64 35 70 40 6 6 38 32 72 57 65 50
170 152 207 202 12 16 66 74 120 128 l98 98 130 0 c100 0 130 3 127 13 -3 8
-42 13 -139 15 l-134 2 -90 -93 c-49 -51 -121 -128 -160 -172 -73 -82 -129
-137 -167 -164 -13 -8 -33 -26 -44 -39 -20 -21 -211 -123 -279 -148 -78 -29
-124 -43 -165 -50 -39 -6 -43 -5 -32 9 7 8 32 19 55 22 23 4 48 11 57 15 8 5
51 23 95 41 89 37 175 86 175 100 0 5 6 9 14 9 8 0 21 6 28 13 7 6 29 21 48
31 19 11 45 30 57 43 12 13 24 23 26 23 7 0 97 90 97 96 0 3 11 15 23 27 13
12 28 30 34 41 6 10 55 63 109 117 l98 99 153 0 c129 0 153 2 153 15 0 13 -25
15 -163 15 l-163 0 -85 -87 c-46 -49 -100 -108 -119 -133 -34 -44 -162 -176
-210 -215 -25 -21 -126 -90 -158 -110 -9 -5 -19 -12 -22 -16 -3 -3 -27 -13
-55 -23 -27 -10 -63 -24 -80 -31 -109 -44 -179 -57 -169 -30 4 8 17 15 30 15
36 0 158 48 204 80 14 10 51 29 82 42 32 13 68 33 80 43 13 11 36 28 51 38 16
10 46 36 68 58 21 21 44 39 49 39 6 0 10 3 10 8 0 4 17 25 38 47 21 22 47 54
58 70 26 42 29 44 128 145 49 49 97 90 107 90 10 0 20 4 23 9 9 13 -4 41 -18
41 -15 0 -222 -199 -229 -220 -15 -45 -236 -270 -266 -270 -6 0 -11 -5 -11
-10 0 -6 -8 -13 -17 -17 -10 -3 -25 -12 -33 -19 -9 -7 -45 -29 -82 -48 -36
-19 -77 -41 -90 -50 -24 -16 -88 -33 -160 -43 -23 -3 -38 -11 -38 -18 0 -8 -4
-16 -8 -19 -5 -3 -9 15 -9 39 0 25 5 45 10 45 5 0 7 -7 4 -15 -4 -8 -3 -17 2
-19 9 -6 63 13 118 42 23 12 52 22 63 22 29 0 159 71 233 127 80 60 205 186
247 249 51 76 227 244 256 244 13 0 24 4 24 9 0 15 -26 20 -64 11 -28 -6 -58
-29 -122 -95 -46 -48 -84 -81 -84 -73 0 20 27 56 97 126 35 34 63 66 63 71 0
5 -24 8 -52 7 -70 -3 -78 1 -78 35 l0 30 93 -3 92 -3 3 -32 c3 -33 14 -39 46
-27 22 8 21 60 -1 69 -10 4 -40 9 -67 10 -47 4 -52 7 -137 95 -49 50 -89 95
-89 100 0 6 -5 10 -11 10 -6 0 -26 17 -46 38 l-35 37 77 3 c76 3 112 -8 99
-30 -10 -16 167 -188 193 -188 13 0 23 4 23 10 0 6 76 11 193 13 l192 2 -211
3 -211 2 -70 73 -71 73 5 69 c7 98 11 103 12 15 1 -72 2 -77 34 -104 17 -15
48 -43 67 -61 l35 -34 203 -5 c151 -3 202 -1 199 7 -2 8 -56 13 -173 15 l-169
2 -73 76 c-63 66 -74 82 -77 118 -1 22 -6 63 -11 90 -5 33 -4 47 3 43 6 -4 14
-41 18 -83 l7 -76 75 -74 75 -74 171 0 c121 0 168 3 160 11 -6 6 -71 11 -162
13 -137 2 -153 4 -165 22 -8 10 -35 42 -60 69 -25 28 -48 59 -50 70 -11 49
-13 105 -5 111 5 3 9 -17 9 -43 0 -45 4 -54 61 -118 34 -39 67 -74 73 -80 17
-13 295 -4 299 10 1 6 -50 12 -131 15 l-132 5 -45 48 c-25 27 -45 53 -45 58 0
5 -6 9 -14 9 -15 0 -36 76 -36 126 0 43 17 17 24 -37 6 -46 14 -59 68 -116
l62 -63 128 0 c107 0 128 2 128 15 0 12 -19 15 -107 15 l-106 0 -44 48 c-84
90 -93 104 -103 183 -5 41 -9 81 -9 89 0 21 28 -76 36 -125 4 -29 17 -51 44
-77 22 -21 39 -41 39 -45 0 -4 12 -16 25 -26 21 -15 41 -17 122 -15 66 2 98 7
101 16 3 9 -19 12 -87 12 -83 0 -91 2 -102 23 -7 12 -15 24 -19 27 -3 3 -26
31 -49 63 -34 45 -44 67 -47 105 -2 26 -1 38 2 27 9 -36 28 -69 73 -130 66
-88 61 -85 145 -85 l76 0 0 40 0 40 -54 0 -53 0 -14 75 c-12 71 -14 75 -39 75
-24 0 -29 7 -43 51 -10 28 -17 57 -17 64 0 7 -7 26 -15 41 -8 16 -15 37 -15
46 0 9 -3 18 -7 20 -5 2 -23 35 -42 73 -19 39 -38 72 -41 75 -4 3 -9 12 -13
20 -8 17 -30 53 -37 60 -3 3 -16 22 -30 42 -14 21 -28 38 -32 38 -5 0 -8 5 -8
11 0 14 -195 209 -209 209 -6 0 -11 4 -11 9 0 24 -230 161 -375 222 -68 29
-153 54 -235 69 -25 4 -72 13 -105 19 -76 14 -302 14 -380 0 -33 -5 -82 -14
-110 -19 -65 -11 -132 -29 -172 -46 -17 -8 -38 -14 -46 -14 -9 0 -18 -4 -22
-9 -3 -5 -19 -12 -35 -16 -17 -4 -30 -11 -30 -16 0 -5 -9 -9 -20 -9 -11 0 -20
-4 -20 -10 0 -5 -5 -10 -12 -10 -23 0 -189 -114 -262 -180 -103 -93 -246 -253
-246 -274 0 -6 -7 -17 -36 -49 -5 -7 -13 -19 -17 -27 -4 -8 -18 -35 -32 -59
-14 -24 -25 -50 -25 -57 0 -7 -3 -14 -7 -16 -8 -3 -18 -22 -57 -108 -20 -45
-21 -15 -1 36 26 64 99 209 107 212 4 2 8 10 8 17 0 8 6 20 14 28 8 8 23 28
33 44 61 100 271 313 344 347 10 5 19 13 19 18 0 4 5 8 10 8 6 0 27 11 48 24
54 34 153 86 164 86 5 0 28 9 51 19 85 38 116 49 122 43 3 -4 9 -2 13 3 13 18
112 42 267 65 78 11 326 5 390 -10z m1450 10 c-3 -5 -12 -7 -20 -3 -21 7 -19
13 6 13 11 0 18 -4 14 -10z m-2499 -31 c-38 -30 -56 -49 -56 -60 0 -5 -7 -9
-15 -9 -8 0 -15 -6 -15 -14 0 -7 -18 -25 -40 -40 -22 -14 -40 -34 -40 -44 0
-15 2 -15 10 -2 8 13 10 12 10 -2 0 -10 -5 -18 -11 -18 -6 0 -17 -7 -26 -15
-8 -9 -23 -13 -32 -10 -11 3 -25 -3 -37 -16 -19 -22 -19 -22 3 -10 36 18 38
13 7 -19 -32 -32 -50 -39 -40 -15 8 21 -21 5 -54 -30 -20 -21 -22 -28 -10 -35
11 -7 11 -11 1 -24 -7 -9 -18 -13 -24 -9 -6 3 -7 1 -3 -5 8 -14 -29 -53 -46
-48 -7 1 -10 1 -5 -1 22 -13 -12 -56 -37 -47 -26 10 -69 -57 -45 -72 5 -3 7
-10 3 -15 -4 -6 -14 -3 -25 7 -11 9 -22 14 -26 11 -3 -4 -1 -7 5 -7 6 0 9 -7
5 -16 -8 -21 -48 -64 -59 -64 -6 0 -11 -11 -12 -25 -2 -26 22 -36 32 -12 3 6
5 3 3 -7 -1 -13 -11 -20 -31 -22 -23 -2 -27 0 -23 17 3 10 1 17 -4 13 -19 -11
-8 30 19 75 16 25 31 54 35 64 4 9 17 17 30 17 34 0 58 30 52 66 -4 23 1 36
25 64 18 19 42 47 56 62 14 17 30 25 39 22 23 -9 57 26 51 52 -5 17 4 30 42
60 26 21 56 46 66 56 14 13 24 15 37 7 26 -13 72 17 66 43 -5 18 38 58 61 58
6 0 17 6 24 13 20 17 52 35 57 31 2 -2 -8 -13 -23 -25z m-294 -16 c14 -16 28
-35 30 -43 7 -19 -22 -70 -39 -70 -7 0 -13 -4 -13 -10 0 -5 -7 -10 -15 -10 -8
0 -15 3 -15 8 0 4 -16 24 -35 44 -42 44 -43 56 -7 85 36 30 63 29 94 -4z
m2178 12 c0 -8 -7 -15 -15 -15 -8 0 -15 7 -15 15 0 8 7 15 15 15 8 0 15 -7 15
-15z m109 -11 c16 -20 18 -30 10 -46 -14 -26 -38 -34 -59 -20 -14 9 -23 7 -42
-9 -21 -19 -23 -19 -26 -4 -2 10 0 20 5 24 5 3 22 23 37 44 34 44 47 46 75 11z
m258 20 c-3 -3 -12 -4 -19 -1 -8 3 -5 6 6 6 11 1 17 -2 13 -5z m1833 -10 c0
-17 -22 -14 -28 4 -2 7 3 12 12 12 9 0 16 -7 16 -16z m-4017 -26 c-2 -5 -12
-12 -23 -18 -17 -9 -17 -7 -7 19 8 22 13 26 23 17 6 -6 10 -14 7 -18z m205 10
c-21 -6 -38 -14 -38 -19 0 -5 -7 -9 -15 -9 -8 0 -39 -13 -69 -30 -84 -45 -99
-54 -114 -67 -7 -7 -20 -13 -28 -13 -8 0 -14 -3 -14 -8 0 -4 -24 -23 -52 -42
-91 -59 -285 -249 -318 -310 -5 -10 -16 -24 -23 -32 -27 -28 -110 -171 -148
-255 -21 -48 -43 -95 -48 -103 -5 -9 -12 -31 -16 -50 -4 -19 -11 -39 -15 -45
-5 -5 -10 -21 -13 -35 -2 -14 -2 0 0 30 3 30 9 57 13 60 4 3 11 21 15 40 4 19
11 41 15 50 4 8 29 60 55 115 27 55 51 102 55 105 3 3 9 12 13 20 9 19 30 54
38 60 3 3 10 12 15 21 22 39 75 101 164 189 109 109 128 126 207 177 83 54 89
58 188 107 105 52 112 54 145 54 19 0 16 -3 -12 -10z m-4128 -13 c0 -8 -7 -15
-15 -15 -8 0 -15 7 -15 15 0 8 7 15 15 15 8 0 15 -7 15 -15z m3025 5 c-3 -5
-13 -10 -21 -10 -8 0 -14 5 -14 10 0 6 9 10 21 10 11 0 17 -4 14 -10z m1895
-13 c101 -21 161 -36 185 -46 11 -5 40 -16 65 -26 54 -21 113 -48 120 -55 3
-3 23 -14 45 -25 22 -11 56 -31 76 -45 20 -14 47 -32 59 -40 12 -8 28 -21 36
-27 7 -7 16 -13 21 -13 8 0 184 -178 228 -231 57 -67 197 -319 177 -319 -4 0
-23 30 -42 67 -19 37 -41 74 -47 81 -7 7 -13 20 -13 28 0 8 -4 14 -10 14 -5 0
-10 7 -10 15 0 7 -6 18 -13 22 -7 4 -21 21 -30 36 -42 65 -176 202 -267 272
-63 48 -186 125 -200 125 -6 0 -10 5 -10 10 0 6 -5 10 -11 10 -5 0 -31 9 -57
21 -75 32 -85 36 -132 51 -25 8 -61 20 -80 26 -106 34 -443 54 -550 33 -188
-39 -262 -60 -365 -105 -32 -15 -62 -26 -67 -26 -5 0 -14 -5 -21 -10 -7 -6
-50 -36 -97 -67 -47 -31 -94 -65 -105 -77 -11 -11 -36 -33 -55 -47 -51 -39
-81 -68 -119 -119 -19 -25 -40 -49 -46 -55 -19 -16 -95 -131 -95 -144 0 -6 -4
-11 -8 -11 -5 0 -24 -33 -43 -72 -19 -40 -37 -75 -41 -78 -3 -3 -9 -22 -13
-43 -4 -20 -11 -37 -15 -37 -4 0 -12 -21 -18 -47 -53 -242 -53 -240 -49 -417
3 -162 17 -286 37 -331 5 -11 12 -36 16 -55 3 -19 10 -41 14 -50 5 -8 18 -40
30 -70 37 -90 83 -183 100 -200 12 -12 70 -101 70 -108 0 -12 118 -132 129
-132 6 0 25 -19 43 -43 17 -23 49 -56 70 -72 21 -17 45 -36 53 -42 7 -7 18
-13 24 -13 6 0 11 -3 11 -8 0 -13 248 -152 271 -152 6 0 25 -6 42 -14 18 -8
39 -17 47 -20 8 -3 -2 -3 -24 0 -21 3 -46 9 -55 14 -9 5 -43 19 -76 32 -33 12
-76 32 -95 43 -19 11 -52 29 -72 40 -21 11 -38 23 -38 27 0 5 -5 8 -11 8 -10
0 -86 54 -99 71 -3 3 -23 17 -45 31 -48 31 -78 57 -91 79 -9 17 -60 81 -106
133 -15 17 -28 34 -28 38 0 4 -6 13 -12 20 -13 13 -29 40 -65 108 -10 19 -20
37 -23 40 -10 10 -40 81 -40 95 0 8 -4 15 -9 15 -5 0 -12 15 -16 33 -3 17 -10
41 -15 52 -36 80 -70 288 -70 429 0 107 20 266 40 321 4 11 15 45 24 75 16 51
27 81 63 170 18 46 93 190 103 200 3 3 19 26 37 51 84 120 209 242 333 324 41
27 77 52 80 55 3 3 22 13 43 23 20 9 54 25 75 35 20 9 39 20 40 25 2 4 10 7
19 7 8 0 29 6 46 14 80 35 111 44 257 76 106 23 372 21 490 -3z m1780 -16 c0
-11 -26 -22 -34 -14 -12 12 -5 23 14 23 11 0 20 -4 20 -9z m-2830 -11 c0 -5
-5 -10 -11 -10 -5 0 -7 5 -4 10 3 6 8 10 11 10 2 0 4 -4 4 -10z m798 -38 c2
-22 -2 -34 -12 -38 -14 -5 -14 -8 0 -21 10 -10 13 -26 9 -51 -4 -21 -3 -32 2
-26 4 6 16 13 26 17 14 5 17 19 17 77 l0 70 56 0 c30 0 74 -4 97 -9 148 -32
203 -45 211 -53 6 -4 16 -8 24 -8 27 0 215 -90 281 -135 29 -19 54 -35 56 -35
4 0 34 -25 95 -77 20 -18 40 -33 43 -33 11 0 61 -54 87 -93 14 -20 28 -37 33
-37 4 0 7 -7 7 -15 0 -8 4 -15 9 -15 5 0 20 -17 32 -37 13 -21 25 -40 28 -43
18 -16 101 -178 101 -196 0 -8 4 -14 8 -14 4 0 14 -21 22 -47 21 -73 22 -81 5
-43 -82 175 -158 310 -200 356 -5 6 -21 25 -35 42 -14 18 -29 32 -35 32 -13 0
-75 62 -75 74 0 6 -13 21 -29 34 -16 13 -44 36 -63 52 -18 17 -41 32 -50 36
-10 3 -18 10 -18 15 0 5 -4 9 -10 9 -5 0 -38 17 -72 38 -89 52 -196 102 -220
102 -8 0 -18 3 -22 7 -15 16 -159 46 -273 59 l-63 7 0 -52 c0 -28 0 -54 0 -58
0 -5 6 -8 13 -8 7 0 11 10 9 24 -2 13 -1 34 2 47 5 19 10 22 29 15 12 -5 54
-12 92 -16 39 -4 75 -11 80 -15 6 -4 29 -11 52 -15 24 -4 45 -11 49 -16 3 -5
12 -9 21 -9 15 0 38 -10 163 -69 56 -26 67 -34 155 -97 80 -58 295 -267 295
-288 0 -8 17 -40 39 -72 57 -88 101 -178 101 -207 0 -9 5 -19 10 -22 6 -3 10
-14 10 -23 0 -13 -2 -13 -15 4 -8 10 -15 29 -15 41 0 12 -3 23 -7 25 -5 2 -17
21 -27 43 -26 53 -79 139 -88 143 -5 2 -8 7 -8 12 0 5 -16 26 -36 47 -20 21
-42 49 -49 63 -27 51 -194 195 -310 267 -67 42 -195 103 -214 103 -9 0 -29 7
-45 15 -15 8 -39 15 -52 15 -12 0 -25 4 -28 9 -3 5 -32 12 -63 15 -32 4 -70 9
-84 12 -22 4 -27 1 -31 -21 -6 -29 7 -43 19 -21 7 14 14 14 57 1 27 -8 62 -15
77 -15 44 0 183 -49 284 -100 58 -30 139 -82 143 -92 2 -5 8 -8 13 -8 26 0
227 -206 263 -269 5 -9 20 -27 33 -40 20 -21 28 -40 24 -63 0 -5 3 -8 9 -8 11
0 50 -73 50 -95 0 -8 4 -15 9 -15 5 0 12 -18 16 -40 4 -22 11 -40 16 -40 5 0
9 -10 9 -22 0 -25 5 -35 -60 106 -17 38 -42 78 -55 88 -12 10 -26 29 -29 43
-4 14 -11 25 -17 25 -6 0 -7 5 -4 10 18 29 -195 243 -331 331 -101 65 -134 83
-214 114 -25 9 -52 21 -61 25 -9 5 -34 12 -55 16 -22 4 -42 12 -46 18 -4 6 -8
-1 -8 -16 0 -23 4 -28 24 -28 40 0 256 -86 256 -102 0 -4 5 -8 12 -8 10 0 105
-56 118 -70 3 -3 38 -31 77 -64 40 -32 94 -85 120 -118 27 -32 56 -69 66 -80
9 -12 17 -27 17 -35 0 -7 4 -13 8 -13 4 0 13 -12 19 -27 7 -16 26 -53 44 -83
17 -30 35 -66 39 -80 4 -14 11 -33 15 -42 4 -11 3 -18 -4 -18 -6 0 -11 5 -11
11 0 33 -103 218 -170 304 -75 96 -245 241 -339 288 -25 13 -55 29 -66 35 -37
22 -173 71 -197 72 -9 0 -19 6 -21 13 -3 6 -6 0 -6 -15 -1 -23 3 -28 22 -28
36 0 267 -97 287 -121 3 -3 14 -11 26 -17 22 -11 85 -62 140 -110 109 -97 253
-310 270 -398 3 -19 10 -34 15 -34 5 0 9 -9 9 -21 0 -11 5 -30 11 -41 8 -14 8
-23 0 -31 -8 -8 -11 -5 -11 10 0 19 -16 61 -62 163 -21 47 -96 166 -132 208
-75 90 -279 262 -311 262 -7 0 -15 3 -17 8 -5 12 -112 60 -191 86 -58 19 -57
19 -57 3 0 -7 17 -19 38 -26 63 -22 233 -99 242 -110 3 -3 28 -22 55 -41 28
-19 56 -40 62 -46 7 -7 23 -21 35 -31 62 -50 208 -240 208 -271 0 -5 4 -12 8
-14 13 -5 72 -154 72 -182 0 -14 5 -26 10 -26 6 0 10 -12 10 -27 -1 -28 -1
-28 -15 6 -8 18 -15 44 -15 57 0 13 -4 24 -10 24 -5 0 -10 5 -10 11 0 16 -76
174 -92 190 -7 8 -26 34 -41 57 -27 42 -120 139 -181 190 -36 30 -150 102
-196 123 -78 37 -109 49 -123 49 -9 0 -19 5 -22 10 -9 14 -35 12 -35 -2 0 -13
44 -38 65 -38 6 0 53 -21 105 -48 90 -45 197 -121 259 -183 35 -35 29 -47 -7
-13 -15 13 -33 24 -40 24 -7 0 -15 7 -18 15 -4 8 -10 15 -16 15 -5 0 -21 11
-36 25 -15 14 -31 25 -36 25 -5 0 -17 7 -26 15 -22 20 -130 75 -147 75 -7 0
-12 -3 -12 -7 7 -42 -2 -53 -40 -53 -22 0 -42 5 -44 13 -3 7 -6 5 -6 -5 -1
-14 7 -18 39 -18 22 0 40 -4 40 -10 0 -5 18 -10 41 -10 22 0 64 -7 92 -16 58
-18 170 -73 175 -86 2 -4 10 -8 18 -8 7 0 21 -11 30 -26 9 -14 23 -23 30 -20
8 3 13 2 12 -2 -3 -11 25 -82 33 -82 4 0 10 -18 14 -40 4 -22 11 -42 16 -46
13 -8 11 -177 -2 -211 -33 -83 -58 -122 -103 -165 -27 -27 -47 -50 -45 -51 2
-2 26 -13 53 -24 104 -44 208 -159 221 -244 17 -112 8 -287 -16 -315 -6 -8 -9
-21 -5 -29 3 -8 1 -15 -4 -15 -11 0 -13 33 -3 44 12 12 15 38 20 148 5 123
-10 195 -58 264 -36 52 -59 71 -135 108 -32 16 -67 33 -76 37 -10 5 -32 9 -49
9 -27 0 -30 2 -19 15 7 8 18 15 24 15 31 0 109 80 150 153 26 47 29 61 29 147
1 134 -28 208 -110 285 -76 72 -186 115 -347 136 l-96 12 -2 181 -3 181 -97 3
-98 3 0 -181 0 -180 -105 0 c-58 0 -105 3 -106 8 -1 4 -2 81 -4 172 -1 91 -3
168 -4 173 0 4 -44 7 -96 7 l-95 0 -2 -182 -3 -183 -225 -5 -225 -5 0 -100 0
-100 106 -5 c73 -3 112 -10 125 -20 35 -28 54 -53 55 -74 1 -12 1 -257 0 -546
l-2 -525 -31 -27 c-30 -26 -38 -28 -125 -28 -85 0 -93 -2 -93 -19 0 -11 -6
-46 -14 -78 -8 -32 -16 -77 -19 -100 l-5 -43 61 -1 c73 0 355 -7 377 -8 13 -1
15 -26 12 -176 -3 -137 -1 -177 10 -187 15 -15 175 -18 196 -4 8 4 12 17 9 27
-3 10 -2 21 3 24 4 3 10 -6 12 -20 3 -14 1 -25 -3 -25 -5 0 -6 -7 -2 -15 5
-14 -11 -15 -118 -13 l-124 3 -3 175 c-1 96 -4 180 -6 185 -1 6 -86 10 -227
10 l-224 0 3 33 c2 21 -1 32 -10 32 -14 0 -80 70 -106 113 -9 15 -20 27 -24
27 -4 0 -8 6 -8 14 0 8 -6 21 -13 28 -7 7 -16 20 -20 28 -4 8 -16 29 -27 45
-45 69 -110 229 -110 270 0 16 10 31 28 42 15 10 29 21 32 25 15 20 75 29 179
27 78 -1 116 2 119 10 3 8 -40 11 -146 11 l-150 0 -56 57 -56 57 0 86 c0 104
39 326 73 415 41 109 131 270 191 342 44 53 173 183 182 183 5 0 25 19 44 41
36 42 100 89 122 89 7 0 49 18 93 40 44 22 86 40 93 40 27 0 9 -21 -35 -40
-88 -39 -98 -44 -118 -65 -11 -12 -36 -30 -55 -41 -19 -10 -38 -23 -41 -27 -3
-5 -9 -8 -13 -8 -17 2 -25 0 -43 -16 -11 -10 -42 -36 -69 -58 -72 -60 -113
-105 -162 -180 -15 -22 -30 -43 -35 -46 -4 -3 -32 -54 -63 -114 -87 -170 -117
-292 -130 -518 l-7 -107 54 -53 54 -52 138 -1 c106 -1 137 1 137 11 0 10 -27
13 -110 14 l-111 1 -64 67 c-36 36 -65 71 -66 77 -11 122 39 346 110 497 30
63 71 139 81 149 3 3 21 29 40 57 19 29 40 53 46 53 7 0 15 15 18 34 6 29 12
35 41 40 20 4 35 13 35 21 0 8 17 27 38 42 20 15 38 31 40 35 5 11 198 128
211 128 6 0 11 4 11 8 0 11 70 33 82 26 4 -3 8 22 8 55 0 55 -2 60 -17 52 -10
-5 -36 -17 -58 -26 -70 -29 -205 -99 -205 -106 0 -4 -11 -10 -25 -13 -14 -4
-25 -13 -25 -20 0 -8 -15 -26 -32 -40 -18 -15 -38 -31 -45 -36 -7 -6 -16 -10
-22 -10 -14 0 -151 -142 -151 -157 0 -3 -11 -16 -25 -29 -14 -13 -25 -25 -25
-28 0 -3 -14 -29 -32 -58 -50 -84 -108 -205 -108 -227 0 -11 -4 -22 -9 -25
-21 -14 -71 -283 -71 -391 0 -77 27 -280 41 -307 5 -9 9 -26 9 -37 0 -48 101
-272 143 -316 37 -40 44 -51 52 -76 9 -30 47 -81 98 -132 22 -22 37 -45 34
-55 -3 -13 -16 -4 -53 37 -27 30 -68 74 -91 98 -24 24 -43 46 -43 50 0 3 -6
14 -13 22 -18 22 -112 225 -130 281 -55 170 -72 268 -71 410 1 173 30 323 92
470 30 73 96 200 103 200 4 0 11 10 15 23 4 12 19 33 33 46 14 14 25 27 23 30
-1 3 5 14 13 24 8 9 15 19 15 21 0 2 29 33 65 70 36 36 65 72 65 79 0 22 63
73 98 80 18 4 42 16 55 28 35 33 281 148 362 168 17 5 40 11 53 15 19 6 22 4
22 -18 0 -16 -6 -26 -15 -26 -8 0 -15 5 -15 10 0 7 -6 7 -19 0 -11 -5 -32 -10
-48 -11 l-28 -1 30 -7 c17 -4 70 -6 118 -4 81 2 89 1 94 -17 3 -11 14 -20 24
-20 28 0 32 17 7 34 -14 10 -17 16 -8 16 12 0 12 2 1 13 -11 10 -14 10 -18 0
-3 -7 -13 -13 -24 -13 -17 0 -19 8 -19 64 l0 65 43 4 c23 2 65 4 92 3 49 -1
50 -2 53 -34z m1270 19 c12 -10 22 -23 22 -30 0 -16 -30 -13 -36 4 -8 19 -34
20 -34 1 0 -7 7 -19 15 -26 8 -7 15 -16 15 -21 0 -14 -20 -10 -37 7 -22 22
-42 1 -25 -26 15 -24 15 -30 2 -30 -11 0 -50 36 -50 47 0 12 83 93 96 93 6 0
21 -8 32 -19z m-1488 -66 c0 -41 -4 -55 -14 -55 -11 0 -14 11 -13 40 2 34 0
40 -18 40 -44 -1 -277 -74 -307 -96 -7 -6 -33 -19 -58 -29 -25 -11 -47 -22
-50 -25 -3 -3 -29 -21 -59 -39 -30 -18 -61 -39 -68 -47 -8 -8 -19 -14 -24 -14
-12 0 -68 -62 -69 -76 0 -16 -79 -84 -96 -84 -8 0 -14 -5 -14 -11 0 -5 -13
-24 -30 -42 -16 -18 -30 -37 -30 -43 0 -7 -6 -14 -14 -17 -20 -8 10 48 47 86
15 16 27 36 27 46 0 21 73 91 94 91 9 0 29 14 44 30 16 17 33 30 38 30 5 0 21
11 36 25 15 14 29 25 32 25 2 0 35 20 73 45 37 25 74 45 81 45 6 0 12 3 12 8
0 4 21 15 48 25 26 11 56 23 67 28 23 10 160 55 190 62 11 3 32 5 48 6 26 1
27 0 27 -54z m3024 36 c15 -16 15 -22 4 -40 -15 -25 -72 -29 -94 -7 -19 19
-18 25 8 47 27 24 60 24 82 0z m620 12 c-5 -5 -12 -12 -16 -18 -4 -6 -8 -2 -8
8 0 9 7 17 17 17 9 0 12 -3 7 -7z m-4691 -68 c27 -25 45 -49 42 -55 -4 -7 -26
-8 -58 -4 l-52 7 28 -30 c42 -45 32 -62 -14 -22 -13 12 -37 32 -52 45 -16 13
-25 29 -21 35 6 11 51 8 87 -6 26 -11 21 14 -8 37 -14 11 -25 24 -25 29 0 20
27 7 73 -36z m57 35 c0 -5 -7 -10 -15 -10 -8 0 -15 5 -15 10 0 6 7 10 15 10 8
0 15 -4 15 -10z m5760 -11 c0 -5 -7 -9 -15 -9 -8 0 -15 7 -15 15 0 9 6 12 15
9 8 -4 15 -10 15 -15z m-9375 2 c3 -5 1 -12 -5 -16 -5 -3 -10 1 -10 9 0 18 6
21 15 7z m6518 3 c3 -3 3 -12 0 -20 -4 -11 -9 -12 -19 -3 -8 6 -11 15 -8 20 6
10 18 12 27 3z m-343 -31 c25 -32 10 -45 -21 -17 -25 22 -36 11 -20 -22 14
-33 7 -42 -16 -22 -20 17 -43 13 -43 -7 0 -7 7 -15 15 -19 17 -6 21 -26 5 -26
-11 0 -50 36 -50 47 0 12 84 93 96 93 7 0 22 -12 34 -27z m800 7 c0 -5 -7 -10
-15 -10 -8 0 -15 5 -15 10 0 6 7 10 15 10 8 0 15 -4 15 -10z m2218 -17 c16
-36 16 -38 -13 -57 -20 -13 -29 -14 -50 -4 -32 14 -30 48 3 63 12 5 22 13 22
17 0 19 26 5 38 -19z m-1774 -8 c4 -10 -1 -15 -16 -15 -17 0 -18 2 -8 15 7 8
14 15 15 15 2 0 5 -7 9 -15z m2204 -11 c2 -1 -4 -14 -15 -28 -14 -21 -25 -26
-53 -24 -43 4 -55 38 -18 55 19 9 74 7 86 -3z m-6333 -33 c-3 -6 -11 -9 -16
-6 -5 4 -9 -4 -9 -17 0 -13 -4 -30 -10 -38 -6 -9 -5 -17 2 -21 13 -8 3 -39
-20 -65 -9 -11 -28 -42 -42 -69 -14 -28 -27 -52 -30 -55 -13 -13 -90 -184 -90
-199 0 -7 -6 -25 -14 -39 -37 -71 -84 -258 -110 -437 -17 -118 -15 -376 3
-480 31 -178 69 -324 107 -412 8 -17 14 -36 14 -42 0 -6 4 -19 9 -29 6 -9 31
-60 56 -111 26 -52 62 -119 81 -148 18 -29 30 -53 26 -53 -4 0 -2 -4 4 -8 13
-9 44 -54 44 -65 0 -4 -9 -3 -20 3 -17 9 -20 8 -20 -7 0 -10 5 -25 10 -33 9
-13 10 -13 10 0 1 8 6 4 11 -9 18 -45 1 -32 -63 48 -78 97 -208 326 -208 366
0 8 -4 15 -8 15 -5 0 -19 33 -32 73 -12 39 -27 76 -31 81 -5 6 -9 22 -9 37 0
15 -4 30 -9 33 -5 3 -12 31 -16 62 -4 32 -11 66 -16 78 -17 40 -39 266 -38
393 0 116 25 343 40 368 4 6 10 32 14 59 3 27 10 58 15 70 4 11 15 46 25 76 9
30 23 69 31 87 8 17 14 36 14 42 0 15 118 240 160 306 11 17 23 36 26 43 16
32 103 126 111 119 3 -3 2 -11 -2 -16z m13 -45 c-22 -34 -38 -46 -38 -27 0 11
53 72 58 67 2 -2 -7 -20 -20 -40z m155 0 c42 -38 59 -66 41 -66 -8 0 -87 61
-96 75 -10 13 -10 35 0 35 4 0 28 -20 55 -44z m2788 22 c11 -11 19 -29 19 -39
0 -23 -42 -52 -64 -43 -12 4 -16 0 -16 -15 0 -12 -6 -21 -15 -21 -18 0 -19 14
-3 40 17 26 2 37 -21 16 -19 -18 -35 -9 -23 11 9 15 84 71 96 72 5 1 17 -9 27
-21z m-6056 -18 c3 -5 -3 -10 -14 -10 -12 0 -21 5 -21 10 0 6 6 10 14 10 8 0
18 -4 21 -10z m3248 -70 c48 -81 -58 -153 -116 -78 -21 26 -23 36 -16 57 16
42 29 51 73 51 36 0 44 -4 59 -30z m4297 0 c0 -5 -7 -10 -15 -10 -8 0 -15 5
-15 10 0 6 7 10 15 10 8 0 15 -4 15 -10z m-5310 -10 c0 -5 -4 -10 -9 -10 -6 0
-13 5 -16 10 -3 6 1 10 9 10 9 0 16 -4 16 -10z m160 -5 c0 -8 -7 -15 -15 -15
-26 0 -18 20 13 29 1 1 2 -6 2 -14z m255 -25 c3 -6 -1 -13 -10 -16 -19 -8 -30
0 -20 15 8 14 22 14 30 1z m4595 -5 c0 -9 -6 -12 -16 -8 -13 5 -13 7 -2 14 17
11 18 11 18 -6z m-1060 -55 c0 -8 -5 -8 -17 -1 -14 7 -26 3 -53 -17 -19 -14
-38 -30 -41 -35 -7 -10 -29 -1 -29 11 0 4 20 20 45 37 24 16 46 38 49 49 5 19
6 18 26 -6 11 -14 20 -31 20 -38z m335 50 c3 -6 -4 -10 -17 -10 -18 0 -20 2
-8 10 19 12 18 12 25 0z m505 0 c0 -5 -7 -10 -16 -10 -8 0 -12 5 -9 10 3 6 10
10 16 10 5 0 9 -4 9 -10z m-4146 -15 c-4 -8 -12 -15 -19 -15 -7 0 -15 7 -19
15 -4 11 1 15 19 15 18 0 23 -4 19 -15z m216 -46 c0 -6 -11 -20 -25 -31 -29
-23 -31 -35 -8 -60 29 -32 87 -14 88 28 0 22 20 21 22 -1 4 -29 -27 -64 -64
-71 -26 -5 -36 -2 -57 21 -34 37 -34 77 0 104 30 23 44 27 44 10z m3660 -9 c0
-5 -7 -10 -15 -10 -8 0 -15 5 -15 10 0 6 7 10 15 10 8 0 15 -4 15 -10z m-516
-73 c13 -37 -3 -79 -36 -95 -65 -31 -134 63 -80 110 38 35 102 26 116 -15z
m-5200 18 c3 -9 0 -15 -9 -15 -16 0 -27 14 -18 24 10 10 21 7 27 -9z m-1354
-30 c0 -8 -4 -15 -10 -15 -5 0 -10 7 -10 15 0 8 5 15 10 15 6 0 10 -7 10 -15z
m1120 -25 c0 -5 -4 -10 -10 -10 -5 0 -10 5 -10 10 0 6 5 10 10 10 6 0 10 -4
10 -10z m2200 -23 c0 -7 20 -21 45 -32 25 -11 45 -26 45 -32 0 -17 -3 -17 -49
8 -24 12 -48 18 -61 14 -23 -7 -27 14 -8 44 12 20 28 19 28 -2z m287 1 c-3 -8
-6 -5 -6 6 -1 11 2 17 5 13 3 -3 4 -12 1 -19z m2756 -15 c-7 -2 -19 -2 -25 0
-7 3 -2 5 12 5 14 0 19 -2 13 -5z m344 -15 c-3 -8 -6 -5 -6 6 -1 11 2 17 5 13
3 -3 4 -12 1 -19z m-4447 3 c0 -17 -18 -21 -24 -6 -3 9 0 15 9 15 8 0 15 -4
15 -9z m1321 -14 c-10 -9 -11 -8 -5 6 3 10 9 15 12 12 3 -3 0 -11 -7 -18z
m6817 -44 c-3 -33 -6 -38 -28 -38 -31 0 -39 29 -14 56 29 32 46 24 42 -18z
m-3675 7 c-3 -11 -9 -20 -14 -20 -5 0 -9 -8 -10 -17 0 -12 -2 -14 -6 -5 -6 15
15 62 28 62 4 0 5 -9 2 -20z m24 -12 c-3 -8 -6 -5 -6 6 -1 11 2 17 5 13 3 -3
4 -12 1 -19z m1853 12 c0 -5 -4 -10 -9 -10 -6 0 -13 5 -16 10 -3 6 1 10 9 10
9 0 16 -4 16 -10z m-5274 -27 c30 -14 54 -30 54 -35 0 -10 -13 -10 -25 0 -6 5
-31 17 -57 26 -27 10 -48 22 -48 27 0 15 18 11 76 -18z m485 -34 c-13 -21 -21
-27 -21 -17 0 9 7 23 15 32 8 8 15 21 16 28 0 8 2 9 5 2 3 -7 -4 -27 -15 -45z
m-2461 26 c-12 -15 -30 -12 -30 6 0 5 10 9 21 9 18 0 19 -2 9 -15z m5288 -37
c3 -29 -1 -36 -18 -41 -14 -4 -27 1 -38 14 -18 21 -48 25 -54 7 -3 -9 -6 -9
-11 -1 -5 8 7 18 30 28 21 9 45 21 53 25 25 14 35 6 38 -32z m94 30 c-14 -14
-16 -52 -2 -43 6 3 10 -1 10 -10 0 -9 5 -26 12 -38 l12 -22 6 25 c4 14 6 -1 6
-37 -1 -35 -4 -63 -8 -63 -5 0 -8 7 -8 15 0 8 -4 23 -9 33 -38 72 -48 152 -18
152 8 0 8 -3 -1 -12z m35 -3 c0 -8 -6 -15 -13 -15 -8 0 -11 6 -8 15 4 8 9 15
13 15 4 0 8 -7 8 -15z m-3492 -35 c4 -6 18 -9 32 -8 19 2 27 -3 34 -22 8 -22
8 -23 -5 -7 -18 23 -46 22 -46 -1 0 -10 -3 -21 -6 -24 -10 -11 -64 16 -64 32
0 31 41 53 55 30z m205 6 c0 -2 -9 -6 -20 -9 -11 -3 -20 -1 -20 4 0 5 9 9 20
9 11 0 20 -2 20 -4z m28 -49 c-5 -18 -16 -45 -23 -62 -7 -16 -15 -39 -17 -50
-2 -11 -12 -21 -23 -24 -11 -2 -23 -8 -27 -15 -13 -20 -9 -54 8 -60 12 -5 14
-13 9 -34 -4 -15 -13 -54 -19 -87 -9 -51 -15 -60 -34 -63 -19 -3 -23 -9 -20
-35 2 -19 8 -31 16 -29 9 1 12 -23 12 -98 0 -82 -3 -100 -15 -100 -10 0 -15
-10 -15 -30 0 -19 5 -30 14 -30 15 0 30 -55 40 -142 4 -35 2 -47 -9 -52 -24
-9 -19 -53 8 -59 15 -4 27 -21 40 -55 9 -28 17 -57 17 -66 0 -9 5 -25 12 -35
9 -15 8 -22 -4 -35 -23 -22 -12 -56 17 -56 16 0 26 -8 31 -22 4 -13 10 -25 13
-28 3 -3 18 -29 32 -59 21 -44 24 -58 15 -73 -15 -24 4 -54 32 -50 30 4 129
-134 114 -159 -9 -13 -7 -22 9 -40 17 -19 22 -21 29 -9 7 12 15 9 41 -15 78
-72 100 -100 96 -123 -5 -29 27 -53 62 -46 19 4 34 -2 53 -20 15 -15 31 -26
35 -26 20 0 61 -50 56 -68 -3 -15 4 -23 34 -35 25 -11 31 -16 18 -16 -11 -1
-31 6 -43 15 -21 15 -24 15 -35 0 -11 -14 -20 -10 -84 32 -57 38 -72 52 -72
73 -1 28 -39 56 -65 46 -9 -4 -38 17 -80 58 -67 64 -76 80 -53 88 20 7 -23 48
-47 45 -28 -4 -145 150 -125 163 19 12 -8 59 -35 59 -31 1 -103 148 -88 177
16 29 4 63 -22 63 -19 0 -26 13 -51 91 -26 85 -27 93 -12 104 21 15 14 42 -19
70 -19 17 -24 34 -30 107 -5 76 -4 89 10 94 23 9 20 51 -4 64 -16 9 -19 19
-16 53 2 23 4 65 5 93 1 43 4 53 21 57 26 7 29 67 4 67 -13 0 -15 6 -10 28 4
15 11 47 16 72 18 87 20 90 40 90 13 0 20 7 20 20 0 11 5 20 10 20 16 0 12 30
-5 36 -17 7 -14 25 12 82 17 39 28 37 13 -2 -13 -35 -13 -46 1 -46 5 0 7 5 4
10 -3 6 -2 10 4 10 5 0 12 -6 14 -12 2 -7 3 -1 1 14 -2 15 1 30 6 33 6 3 10 0
10 -7 1 -7 7 2 15 21 8 18 13 36 11 40 -3 4 4 7 14 8 16 1 17 -2 8 -30z m270
-2 c-6 -13 -14 -22 -19 -20 -4 3 -2 16 4 29 7 13 15 22 19 20 4 -3 2 -16 -4
-29z m-2958 15 c0 -5 -7 -10 -15 -10 -8 0 -15 5 -15 10 0 6 7 10 15 10 8 0 15
-4 15 -10z m360 -5 c0 -8 -7 -15 -15 -15 -8 0 -15 7 -15 15 0 8 7 15 15 15 8
0 15 -7 15 -15z m5127 -7 c-3 -8 -6 -5 -6 6 -1 11 2 17 5 13 3 -3 4 -12 1 -19z
m-549 -58 c44 -67 92 -161 92 -180 0 -9 4 -20 9 -25 5 -6 12 -32 15 -60 l5
-50 -12 46 c-13 51 -98 228 -132 274 -34 47 -38 55 -23 50 8 -3 28 -28 46 -55z
m-3498 41 c0 -6 -4 -13 -10 -16 -5 -3 -10 1 -10 9 0 9 5 16 10 16 6 0 10 -4
10 -9z m250 -7 c0 -17 -22 -14 -28 4 -2 7 3 12 12 12 9 0 16 -7 16 -16z m830
-4 c0 -5 -10 -10 -22 -9 -22 0 -22 1 -3 9 11 5 21 9 23 9 1 1 2 -3 2 -9z
m2990 6 c0 -3 -4 -8 -10 -11 -5 -3 -10 -1 -10 4 0 6 5 11 10 11 6 0 10 -2 10
-4z m345 -16 c-3 -5 -13 -6 -21 -3 -12 4 -13 8 -3 14 15 9 32 2 24 -11z
m-2939 -52 c-88 -195 -124 -496 -85 -708 34 -187 57 -256 141 -425 43 -86 71
-127 133 -191 50 -52 65 -71 65 -81 0 -22 181 -174 285 -241 37 -23 202 -102
214 -102 7 0 19 -7 27 -15 9 -8 14 -15 11 -15 -11 0 -78 25 -132 50 -33 15
-70 30 -83 34 -12 4 -22 12 -22 17 0 5 -4 9 -10 9 -9 0 -110 58 -120 70 -3 3
-36 30 -75 61 -107 86 -205 186 -205 209 0 11 -4 20 -9 20 -5 0 -20 17 -32 38
-13 20 -25 39 -28 42 -6 5 -21 33 -56 100 -39 77 -84 188 -92 230 -2 14 -9 34
-14 45 -31 69 -50 400 -29 510 21 112 43 200 56 232 8 17 14 35 14 40 0 6 6
23 14 39 7 16 20 44 27 62 8 19 15 27 17 18 2 -8 -3 -30 -12 -48z m-2746 48
c0 -2 -7 -6 -15 -10 -8 -3 -15 -1 -15 4 0 6 7 10 15 10 8 0 15 -2 15 -4z
m1708 -8 c-6 -18 -28 -21 -28 -4 0 9 7 16 16 16 9 0 14 -5 12 -12z m3930 1
c-2 -6 -8 -10 -13 -10 -5 0 -11 4 -13 10 -2 6 4 11 13 11 9 0 15 -5 13 -11z
m-1538 -15 c155 -25 240 -106 240 -229 0 -114 -59 -177 -209 -219 -38 -11 -99
-16 -201 -16 l-146 0 -3 234 -2 235 38 4 c47 5 235 -1 283 -9z m1597 -16 c-3
-7 -5 -2 -5 12 0 14 2 19 5 13 2 -7 2 -19 0 -25z m-3737 7 c0 -8 -4 -15 -9
-15 -13 0 -22 16 -14 24 11 11 23 6 23 -9z m3624 8 c-5 -5 -12 -12 -16 -18 -4
-6 -8 -2 -8 8 0 9 7 17 17 17 9 0 12 -3 7 -7z m239 -17 c4 -10 1 -13 -8 -9 -8
3 -12 9 -9 14 7 12 11 11 17 -5z m-573 -46 c5 -3 11 -23 14 -45 l6 -40 -11 35
c-6 19 -15 39 -20 45 -5 5 -8 20 -8 35 l2 25 4 -25 c3 -14 9 -27 13 -30z m590
-21 c0 -5 -7 -6 -15 -3 -8 4 -15 13 -15 21 0 13 3 13 15 3 8 -7 15 -16 15 -21z
m-37 -3 c6 -15 -1 -26 -15 -26 -4 0 -8 9 -8 20 0 23 15 27 23 6z m-133 -6 c0
-5 -8 -10 -17 -10 -15 0 -16 2 -3 10 19 12 20 12 20 0z m-3083 -32 c-3 -7 -5
-2 -5 12 0 14 2 19 5 13 2 -7 2 -19 0 -25z m3033 18 c0 -2 -7 -6 -15 -10 -8
-3 -15 -1 -15 4 0 6 7 10 15 10 8 0 15 -2 15 -4z m107 -18 c-3 -8 -6 -5 -6 6
-1 11 2 17 5 13 3 -3 4 -12 1 -19z m93 -43 c-6 -8 -7 -16 -2 -19 5 -3 12 -33
15 -66 3 -33 12 -71 21 -84 13 -21 13 -26 1 -36 -19 -16 -20 -60 -2 -60 8 0
14 -7 14 -15 0 -18 -9 -19 -25 -3 -7 7 -12 39 -12 73 0 33 -7 92 -15 130 -8
39 -15 81 -15 94 0 20 2 22 15 11 11 -9 12 -16 5 -25z m-3260 -47 c-25 -116
-31 -210 -26 -368 2 -91 9 -181 15 -200 11 -39 29 -119 38 -165 3 -16 9 -34
13 -40 4 -5 11 -25 15 -42 3 -18 11 -33 16 -33 5 0 9 -7 9 -15 0 -19 60 -145
77 -163 7 -7 13 -20 13 -28 0 -8 4 -14 9 -14 5 0 12 -11 15 -25 4 -14 11 -25
16 -25 6 0 10 -7 10 -15 0 -8 3 -15 8 -15 4 0 18 -17 32 -37 78 -117 272 -293
405 -368 99 -56 220 -115 235 -115 9 0 20 -4 25 -9 6 -5 19 -11 30 -14 15 -4
13 -5 -7 -6 -16 0 -28 4 -28 9 0 6 -9 10 -19 10 -20 0 -132 39 -141 50 -3 3
-23 14 -45 25 -55 27 -137 77 -153 92 -7 7 -17 13 -21 13 -4 0 -22 12 -39 28
-18 15 -56 47 -84 72 -53 44 -189 191 -198 213 -3 7 -26 44 -51 82 -25 39 -56
93 -70 120 -13 28 -27 52 -31 53 -5 2 -8 10 -8 19 0 8 -6 29 -14 46 -43 102
-41 96 -71 235 -8 41 -17 78 -20 83 -3 5 -6 89 -6 187 -1 158 8 256 29 312 3
8 6 20 7 25 10 64 19 98 22 88 2 -6 -1 -35 -7 -65z m2597 50 c-3 -8 -6 -5 -6
6 -1 11 2 17 5 13 3 -3 4 -12 1 -19z m2063 7 c0 -8 -7 -15 -15 -15 -8 0 -15 7
-15 15 0 8 7 15 15 15 8 0 15 -7 15 -15z m-1990 -27 c0 -5 -4 -8 -10 -8 -5 0
-10 10 -10 23 0 18 2 19 10 7 5 -8 10 -18 10 -22z m74 -39 c4 -10 3 -20 -3
-23 -8 -5 -21 30 -26 69 -3 26 10 26 16 0 4 -17 10 -37 13 -46z m1516 51 c0
-5 -4 -10 -9 -10 -6 0 -13 5 -16 10 -3 6 1 10 9 10 9 0 16 -4 16 -10z m-1998
-25 c4 -17 1 -25 -8 -25 -8 0 -14 11 -14 25 0 14 4 25 9 25 5 0 11 -11 13 -25z
m225 -12 c-3 -10 -5 -4 -5 12 0 17 2 24 5 18 2 -7 2 -21 0 -30z m66 12 c4 -8
2 -17 -3 -20 -6 -4 -10 3 -10 14 0 25 6 27 13 6z m635 -27 c-3 -39 -6 -43 -30
-46 -16 -2 -28 1 -28 7 0 6 -9 11 -20 11 -11 0 -20 -4 -20 -10 0 -5 -7 -10
-16 -10 -14 0 -14 2 0 15 8 8 20 15 26 15 8 0 10 9 6 23 -5 20 -1 23 26 25 18
2 34 5 37 7 14 15 22 0 19 -37z m-3810 14 c2 -7 -3 -12 -12 -12 -9 0 -16 7
-16 16 0 17 22 14 28 -4z m242 8 c0 -5 -4 -10 -10 -10 -5 0 -10 -7 -10 -15 0
-23 28 -18 55 11 23 25 24 25 49 9 14 -10 26 -21 26 -25 0 -23 -14 -40 -33
-40 -16 0 -18 3 -9 12 15 15 15 38 0 38 -6 0 -22 -9 -34 -21 -28 -26 -64 -18
-64 15 0 12 3 26 7 29 10 10 23 8 23 -3z m3455 -10 c-3 -5 -11 -10 -16 -10 -6
0 -7 5 -4 10 3 6 11 10 16 10 6 0 7 -4 4 -10z m-3148 -47 c-3 -10 -5 -4 -5 12
0 17 2 24 5 18 2 -7 2 -21 0 -30z m2580 -5 c-3 -7 -5 -2 -5 12 0 14 2 19 5 13
2 -7 2 -19 0 -25z m803 23 c0 -6 -4 -13 -10 -16 -5 -3 -10 1 -10 9 0 9 5 16
10 16 6 0 10 -4 10 -9z m-5330 -21 c0 -5 -4 -10 -10 -10 -5 0 -10 5 -10 10 0
6 5 10 10 10 6 0 10 -4 10 -10z m348 -52 c-23 -20 -78 -24 -109 -8 -29 16 -23
25 24 40 23 7 46 17 51 22 6 4 20 -2 33 -14 l23 -21 -22 -19z m4239 30 c-3 -7
-5 -2 -5 12 0 14 2 19 5 13 2 -7 2 -19 0 -25z m-5127 18 c0 -11 -19 -15 -25
-6 -3 5 1 10 9 10 9 0 16 -2 16 -4z m171 -9 c-1 -12 -15 -9 -19 4 -3 6 1 10 8
8 6 -3 11 -8 11 -12z m4645 -14 c-10 -10 -19 5 -10 18 6 11 8 11 12 0 2 -7 1
-15 -2 -18z m201 -25 c-2 -13 -4 -5 -4 17 -1 22 1 32 4 23 2 -10 2 -28 0 -40z
m-4657 32 c0 -5 -4 -10 -9 -10 -6 0 -13 5 -16 10 -3 6 1 10 9 10 9 0 16 -4 16
-10z m8200 -6 c0 -8 -4 -12 -10 -9 -5 3 -10 10 -10 16 0 5 5 9 10 9 6 0 10 -7
10 -16z m416 -5 c16 -17 16 -22 4 -30 -27 -17 -55 -20 -83 -10 -27 10 -27 11
-11 36 20 31 63 33 90 4z m-6499 -126 c-7 -143 4 -325 27 -423 8 -36 20 -87
27 -115 6 -27 15 -54 20 -59 5 -6 9 -16 9 -24 0 -22 54 -140 100 -217 16 -27
33 -57 37 -65 3 -8 36 -55 73 -105 72 -98 161 -190 255 -266 33 -27 68 -55 78
-64 9 -8 22 -15 27 -15 6 0 10 -4 10 -10 0 -5 11 -12 25 -16 14 -3 25 -10 25
-15 0 -5 6 -9 14 -9 8 0 21 -6 28 -13 17 -16 183 -97 200 -97 7 0 22 -7 32
-15 19 -15 19 -15 -3 -15 -12 0 -20 4 -17 9 3 5 -14 12 -39 15 -25 4 -45 11
-45 17 0 5 -7 9 -14 9 -29 0 -284 146 -316 180 -3 3 -18 16 -35 29 -86 66
-228 218 -290 311 -44 66 -46 70 -97 172 -79 159 -98 213 -140 403 -13 60 -17
390 -5 465 3 19 6 41 6 48 1 6 4 12 7 12 4 0 4 -57 1 -127z m2600 80 c-3 -10
-5 -2 -5 17 0 19 2 27 5 18 2 -10 2 -26 0 -35z m-2816 -26 c-14 -14 -123 4
-129 22 -3 9 2 11 14 8 11 -3 35 -9 55 -12 31 -6 37 -4 49 22 l14 28 4 -29 c2
-16 -1 -33 -7 -39z m2646 11 c-2 -13 -4 -5 -4 17 -1 22 1 32 4 23 2 -10 2 -28
0 -40z m-59 25 c-10 -2 -26 -2 -35 0 -10 3 -2 5 17 5 19 0 27 -2 18 -5z m119
-45 c-2 -13 -4 -5 -4 17 -1 22 1 32 4 23 2 -10 2 -28 0 -40z m-87 -30 c0 -16
-6 -19 -42 -16 -30 2 -44 8 -46 20 -4 18 18 26 61 20 19 -3 27 -10 27 -24z
m1857 10 c12 -9 7 -38 -9 -49 -15 -10 -78 3 -78 17 0 8 -4 14 -10 14 -5 0 -10
6 -10 14 0 25 77 28 107 4z m1457 -3 c3 -8 1 -15 -3 -15 -5 0 -11 7 -15 15 -3
8 -1 15 3 15 5 0 11 -7 15 -15z m-7529 -5 c3 -5 -3 -10 -15 -10 -12 0 -18 5
-15 10 3 6 10 10 15 10 5 0 12 -4 15 -10z m4258 -27 c4 -19 2 -33 -3 -33 -6 0
-10 17 -10 37 0 43 5 41 13 -4z m961 25 c-3 -4 -9 -8 -15 -8 -5 0 -9 4 -9 8 0
5 7 9 15 9 8 0 12 -4 9 -9z m-4854 -14 c0 -8 -4 -12 -10 -9 -5 3 -10 10 -10
16 0 5 5 9 10 9 6 0 10 -7 10 -16z m240 8 c0 -13 -12 -22 -22 -16 -10 6 -1 24
13 24 5 0 9 -4 9 -8z m230 -2 c0 -5 -7 -7 -15 -4 -8 4 -15 8 -15 10 0 2 7 4
15 4 8 0 15 -4 15 -10z m760 1 c0 -5 -7 -11 -15 -15 -9 -3 -15 -18 -15 -36 0
-20 5 -30 15 -30 8 0 15 -4 15 -10 0 -5 -11 -10 -25 -10 -14 0 -25 5 -25 10 0
6 -7 10 -16 10 -22 0 -74 32 -74 45 0 6 24 18 53 27 60 19 87 22 87 9z m-585
-11 c-3 -5 -10 -10 -16 -10 -5 0 -9 5 -9 10 0 6 7 10 16 10 8 0 12 -4 9 -10z
m265 -20 c0 -5 -4 -10 -9 -10 -6 0 -13 5 -16 10 -3 6 1 10 9 10 9 0 16 -4 16
-10z m4167 4 c-3 -3 -12 -4 -19 -1 -8 3 -5 6 6 6 11 1 17 -2 13 -5z m2269 -21
c-10 -10 -19 5 -10 18 6 11 8 11 12 0 2 -7 1 -15 -2 -18z m-3491 -28 c0 -18
-7 -20 -55 -20 -50 0 -55 2 -58 23 -3 22 -1 23 55 20 50 -3 58 -6 58 -23z
m1011 -44 c0 -11 -5 -17 -13 -14 -17 6 -17 20 0 26 6 3 12 6 12 6 1 1 1 -7 1
-18z m-3694 -11 c45 0 58 -3 58 -15 0 -11 -13 -15 -54 -15 -38 0 -58 -5 -67
-17 -13 -15 -15 -13 -20 18 -6 40 -1 55 14 40 6 -6 37 -11 69 -11z m5868 -20
c0 -24 -34 -43 -60 -35 -19 6 -27 35 -13 48 3 4 21 7 40 7 26 0 33 -4 33 -20z
m710 0 c0 -5 -5 -10 -11 -10 -5 0 -7 5 -4 10 3 6 8 10 11 10 2 0 4 -4 4 -10z
m-2920 -10 c0 -5 -2 -10 -4 -10 -3 0 -8 5 -11 10 -3 6 -1 10 4 10 6 0 11 -4
11 -10z m34 -5 c-4 -8 -10 -12 -15 -9 -11 6 -2 24 11 24 5 0 7 -7 4 -15z
m3151 -5 c-3 -5 -10 -10 -16 -10 -5 0 -9 5 -9 10 0 6 7 10 16 10 8 0 12 -4 9
-10z m-3158 -52 c-3 -8 -6 -5 -6 6 -1 11 2 17 5 13 3 -3 4 -12 1 -19z m-3685
-10 c2 -13 10 -23 18 -23 10 0 14 8 13 23 -2 14 3 22 12 22 11 0 15 -11 15
-39 l0 -39 -60 -4 c-33 -1 -65 -1 -70 0 -6 2 -10 19 -10 39 0 23 4 33 13 31 6
-3 13 -10 13 -16 1 -7 2 -16 3 -22 2 -20 31 3 31 26 0 30 18 32 22 2z m-935
-14 c-3 -3 -12 -4 -19 -1 -8 3 -5 6 6 6 11 1 17 -2 13 -5z m4831 -6 c-6 -18
-28 -21 -28 -4 0 9 7 16 16 16 9 0 14 -5 12 -12z m-2033 -9 c213 -18 310 -61
361 -159 24 -46 22 -158 -3 -197 -37 -60 -131 -123 -182 -123 -10 0 -21 -3
-25 -7 -13 -14 -188 -32 -308 -32 l-117 -1 -3 243 c-2 133 -2 251 0 262 2 18
11 21 75 23 40 1 131 -2 202 -9z m-2531 -20 c-3 -5 -10 -7 -15 -3 -5 3 -7 10
-3 15 3 5 10 7 15 3 5 -3 7 -10 3 -15z m-1184 -4 c0 -8 -7 -15 -15 -15 -8 0
-15 7 -15 15 0 8 7 15 15 15 8 0 15 -7 15 -15z m189 -14 c-15 -5 -22 6 -14 19
6 9 10 9 16 -1 5 -8 4 -15 -2 -18z m5349 18 c-2 -6 -8 -10 -13 -10 -5 0 -11 4
-13 10 -2 6 4 11 13 11 9 0 15 -5 13 -11z m472 7 c0 -11 -19 -15 -25 -6 -3 5
1 10 9 10 9 0 16 -2 16 -4z m-8016 -70 c-8 -24 -22 -36 -45 -36 -9 0 -19 -7
-23 -15 -3 -8 -12 -15 -21 -15 -8 0 -15 7 -15 15 0 8 9 15 20 15 23 0 27 18 5
26 -24 9 -18 29 13 40 38 15 75 -2 66 -30z m7536 24 c0 -5 -5 -10 -11 -10 -5
0 -7 5 -4 10 3 6 8 10 11 10 2 0 4 -4 4 -10z m-3612 -12 c-3 -7 -20 -16 -39
-19 -35 -6 -26 -15 20 -21 37 -5 35 -21 -7 -46 l-37 -23 43 6 c63 8 55 -17
-11 -33 -67 -15 -84 -15 -90 1 -7 18 1 28 38 49 44 24 42 36 -7 40 -35 2 -44
7 -46 25 -3 23 12 29 96 32 31 1 42 -3 40 -11z m3619 -60 c-3 -7 -5 -2 -5 12
0 14 2 19 5 13 2 -7 2 -19 0 -25z m-5157 2 c0 -5 -7 -10 -15 -10 -8 0 -15 5
-15 10 0 6 7 10 15 10 8 0 15 -4 15 -10z m7515 -10 c3 -5 1 -10 -4 -10 -6 0
-11 5 -11 10 0 6 2 10 4 10 3 0 8 -4 11 -10z m-2381 -34 c6 -26 5 -27 -8 -13
-9 9 -13 23 -10 32 8 19 9 18 18 -19z m1551 -21 c19 -15 19 -15 -1 -36 -17
-16 -31 -20 -78 -17 l-57 3 42 33 c47 35 64 39 94 17z m-6245 -86 c0 -27 -2
-29 -41 -29 -28 0 -46 6 -55 18 -19 24 -17 30 13 45 41 22 83 4 83 -34z m555
41 c3 -5 -1 -10 -10 -10 -9 0 -13 5 -10 10 3 6 8 10 10 10 2 0 7 -4 10 -10z
m4145 -16 c0 -3 -7 -12 -15 -20 -12 -13 -15 -13 -15 -1 0 7 3 17 7 20 8 8 23
9 23 1z m-5323 -30 c-3 -3 -12 -4 -19 -1 -8 3 -5 6 6 6 11 1 17 -2 13 -5z
m5269 -2 c9 -5 9 -10 0 -18 -8 -7 -17 -5 -30 8 -19 18 -19 18 0 18 10 0 24 -4
30 -8z m241 2 c-3 -3 -12 -4 -19 -1 -8 3 -5 6 6 6 11 1 17 -2 13 -5z m1143 -9
c0 -8 -2 -15 -4 -15 -2 0 -6 7 -10 15 -3 8 -1 15 4 15 6 0 10 -7 10 -15z
m-345 -15 c3 -5 -1 -10 -10 -10 -9 0 -13 5 -10 10 3 6 8 10 10 10 2 0 7 -4 10
-10z m-4535 -27 c0 -7 -12 -16 -26 -19 -14 -4 -40 -19 -57 -35 -17 -16 -35
-29 -39 -29 -16 0 -7 30 12 42 27 17 25 24 -10 32 -56 11 -30 24 45 23 52 -2
75 -6 75 -14z m4353 -54 c18 -29 1 -49 -40 -49 -28 0 -42 6 -51 21 -15 23 -8
34 23 42 33 8 57 3 68 -14z m-860 -14 c-5 -16 -31 -15 -37 2 -4 8 2 12 18 11
13 -1 22 -7 19 -13z m-3463 -10 c0 -9 -6 -18 -14 -21 -8 -3 -17 -12 -20 -21
-5 -12 0 -13 24 -8 23 5 30 3 30 -9 0 -10 -13 -18 -37 -22 -21 -4 -40 -10 -43
-15 -3 -4 -17 -10 -30 -14 -22 -5 -27 -2 -38 29 -11 30 -11 37 5 55 19 23 59
28 66 9 2 -8 9 -5 18 10 16 25 39 29 39 7z m3455 -53 c-1 -1 -14 3 -29 9 -17
8 -26 20 -26 36 0 22 1 22 29 -9 16 -18 28 -34 26 -36z m-5505 38 c0 -5 -2
-10 -4 -10 -3 0 -8 5 -11 10 -3 6 -1 10 4 10 6 0 11 -4 11 -10z m5450 -55 c0
-14 -4 -25 -8 -25 -5 0 -8 -10 -8 -22 1 -15 -6 -23 -19 -26 -15 -2 -17 -1 -6
6 8 6 11 17 8 26 -4 9 -2 16 4 16 5 0 12 7 15 15 6 15 -17 45 -35 45 -6 0 -11
5 -11 10 0 6 13 4 30 -5 21 -11 30 -23 30 -40z m110 25 c0 -5 -7 -10 -16 -10
-8 0 -12 5 -9 10 3 6 10 10 16 10 5 0 9 -4 9 -10z m-1018 -38 c-7 -2 -12 -13
-12 -24 0 -22 -107 -133 -139 -143 -12 -3 -21 -10 -21 -15 0 -5 -7 -7 -15 -4
-18 7 -10 24 11 24 26 0 139 108 150 145 10 32 27 50 33 34 2 -7 -1 -15 -7
-17z m939 -14 c-4 -32 -5 -32 -11 -8 -7 26 -4 40 9 40 4 0 5 -15 2 -32z
m-5644 16 c-3 -3 -12 -4 -19 -1 -8 3 -5 6 6 6 11 1 17 -2 13 -5z m2249 -15 c3
-6 1 -15 -6 -19 -18 -11 -8 -43 18 -56 25 -12 26 -27 2 -31 -102 -15 -120 -15
-126 2 -5 12 8 31 42 66 52 52 59 55 70 38z m2898 -65 c-77 -138 -163 -251
-271 -358 -78 -76 -186 -166 -201 -166 -6 0 -12 -3 -14 -7 -4 -11 -77 -59
-110 -74 -16 -7 -28 -16 -28 -21 0 -4 -6 -8 -14 -8 -7 0 -33 -10 -57 -23 -41
-22 -174 -70 -264 -96 -205 -59 -501 -61 -685 -6 l-45 14 37 0 c20 1 39 -3 43
-8 3 -6 13 -10 23 -10 9 1 85 -3 167 -6 264 -12 476 28 713 136 35 16 68 29
73 29 5 0 9 5 9 10 0 6 6 10 14 10 8 0 21 6 28 13 17 15 47 34 73 46 11 5 32
20 48 33 15 13 42 34 60 48 17 14 77 70 132 125 94 94 175 201 240 320 15 28
29 54 32 58 3 5 10 4 15 -1 6 -6 -1 -27 -18 -58z m473 -6 c-3 -7 -5 -2 -5 12
0 14 2 19 5 13 2 -7 2 -19 0 -25z m-6990 0 c-3 -8 -6 -5 -6 6 -1 11 2 17 5 13
3 -3 4 -12 1 -19z m6953 -14 c0 -8 -4 -12 -10 -9 -11 7 -13 -6 -4 -30 5 -13 8
-14 15 -3 6 9 9 7 9 -9 0 -30 -20 -40 -27 -14 -3 12 -10 21 -15 21 -5 0 -6 -5
-3 -10 4 -6 1 -18 -6 -26 -6 -8 -9 -18 -5 -21 4 -4 11 -1 16 7 7 11 9 9 7 -8
0 -12 -7 -22 -14 -22 -15 0 -18 -27 -3 -32 6 -2 -6 -26 -25 -55 -19 -29 -35
-59 -35 -67 0 -8 -5 -18 -11 -21 -5 -4 -15 -17 -20 -28 -17 -39 -98 -159 -119
-177 -3 -3 -24 -27 -45 -55 -56 -69 -145 -157 -229 -223 -39 -31 -73 -59 -76
-62 -6 -6 -91 -63 -105 -70 -5 -3 -29 -17 -52 -32 -24 -16 -47 -28 -53 -28 -5
0 -10 -3 -10 -8 0 -4 -28 -18 -62 -32 -35 -13 -68 -27 -73 -31 -6 -4 -24 -9
-40 -11 -24 -2 -30 1 -29 15 1 9 -4 17 -12 17 -8 0 -14 -4 -14 -10 0 -5 -7
-10 -16 -10 -32 0 -9 15 104 68 20 9 39 20 42 23 3 4 15 9 28 13 12 4 22 12
22 17 0 5 4 9 10 9 13 0 114 62 118 72 2 4 8 8 14 8 10 0 104 69 168 124 43
37 208 202 235 236 94 116 225 313 225 338 0 7 5 12 10 12 6 0 10 -9 10 -20 0
-11 6 -20 13 -20 8 0 7 -4 -3 -10 -13 -8 -12 -10 3 -10 9 0 17 7 17 15 0 8 -4
15 -9 15 -13 0 -24 52 -13 59 5 3 13 17 17 31 14 50 30 80 42 80 7 0 13 -7 13
-16z m-332 -5 c13 -8 17 -20 14 -36 l-5 -24 -11 23 c-6 12 -20 24 -30 26 -10
2 -16 0 -12 -6 3 -5 -1 -12 -9 -16 -8 -3 -15 -13 -15 -21 0 -9 -4 -14 -9 -11
-14 9 -22 -37 -8 -47 8 -6 6 -7 -5 -3 -24 7 -23 -10 2 -31 25 -22 26 -33 1
-26 -13 3 -23 -2 -30 -16 -7 -12 -17 -21 -24 -20 -9 0 -9 2 1 6 6 2 12 11 12
18 0 7 6 16 13 19 10 5 10 7 0 12 -19 9 -16 25 18 88 26 47 47 68 77 75 1 1
10 -4 20 -10z m362 -9 c0 -5 -5 -10 -11 -10 -5 0 -7 5 -4 10 3 6 8 10 11 10 2
0 4 -4 4 -10z m-172 -48 c23 4 29 -14 8 -26 -19 -13 -127 40 -120 59 4 10 16
7 49 -12 25 -13 53 -23 63 -21z m-3130 6 c-2 -7 -25 -24 -51 -37 -30 -15 -47
-31 -47 -42 0 -27 -24 -13 -37 21 -12 32 -1 49 20 32 8 -7 23 -2 47 14 38 25
74 31 68 12z m2922 -38 c-6 -11 -15 -18 -20 -15 -4 3 -6 -3 -4 -12 6 -23 -11
-48 -25 -38 -9 5 -9 11 1 22 7 9 11 28 10 42 -2 19 0 22 6 12 13 -18 32 -5 33
22 1 16 3 17 6 5 2 -9 -1 -26 -7 -38z m1450 14 c0 -8 -5 -12 -10 -9 -6 4 -8
11 -5 16 9 14 15 11 15 -7z m-2210 -24 c-14 -11 -32 -19 -40 -19 -11 1 -10 3
3 6 9 2 17 8 17 13 0 7 14 14 40 19 3 0 -6 -8 -20 -19z m1255 10 c3 -5 -1 -10
-10 -10 -9 0 -13 5 -10 10 3 6 8 10 10 10 2 0 7 -4 10 -10z m2993 -24 c-20
-45 -78 -45 -78 0 0 22 4 24 45 24 44 0 44 0 33 -24z m-6348 -50 c0 -9 -7 -16
-15 -16 -8 0 -15 -4 -15 -10 0 -5 -6 -10 -14 -10 -8 0 -21 -6 -29 -14 -26 -27
-49 -23 -70 12 -17 28 -17 32 -3 32 9 0 19 -7 22 -15 4 -8 12 -15 20 -15 16 0
19 26 4 35 -15 9 -12 25 5 25 9 0 18 -7 21 -15 4 -8 12 -15 19 -15 20 0 30 21
15 30 -7 5 -10 15 -6 25 5 15 9 14 26 -8 11 -14 20 -32 20 -41z m2160 58 c0
-7 -113 -88 -153 -110 -70 -40 -154 -76 -239 -105 -30 -10 -41 -10 -50 -1 -9
9 -9 12 2 12 23 0 153 51 170 66 12 12 7 14 -39 14 -36 0 -58 -5 -65 -15 -6
-8 -22 -16 -36 -17 -21 -3 -25 2 -28 28 l-3 31 128 -1 128 -1 79 51 c68 43
106 60 106 48z m810 -33 c14 -9 29 -20 33 -26 6 -7 10 -6 14 3 6 14 33 16 33
2 0 -5 -4 -10 -9 -10 -5 0 -13 -9 -16 -20 -7 -23 -25 -27 -25 -5 0 8 -17 22
-37 31 -49 22 -64 34 -58 45 6 9 29 2 65 -20z m-4943 13 c-3 -3 -12 -4 -19 -1
-8 3 -5 6 6 6 11 1 17 -2 13 -5z m3986 -9 c-34 -16 -120 -31 -223 -40 -106
-10 -104 -8 -96 -76 3 -36 2 -59 -4 -59 -6 0 -10 30 -10 68 l0 68 143 18 c78
10 149 22 157 27 8 5 26 8 40 8 24 -1 23 -1 -7 -14z m510 0 c6 -14 -73 -99
-179 -194 -105 -94 -300 -207 -425 -247 -30 -9 -58 -20 -64 -24 -5 -4 -23 -10
-40 -13 -16 -3 -52 -10 -80 -16 -98 -19 -183 -31 -224 -31 l-41 0 0 40 c0 45
17 55 22 13 3 -26 6 -28 43 -25 100 7 275 41 315 62 9 4 30 11 48 14 17 4 34
12 37 17 4 5 13 9 20 9 40 0 230 109 339 194 48 37 156 141 156 150 0 9 52 66
61 66 4 0 9 -7 12 -15z m63 -19 c6 -15 -105 -131 -206 -217 -29 -24 -58 -49
-64 -54 -59 -53 -263 -166 -361 -200 -27 -9 -59 -21 -70 -25 -43 -18 -152 -42
-270 -60 -126 -20 -409 -1 -467 31 -10 5 -28 9 -40 10 -13 0 -17 3 -10 6 7 2
48 -2 91 -11 89 -18 155 -21 146 -6 -3 6 -17 10 -30 10 -22 0 -40 22 -28 34 4
3 17 6 29 6 13 0 26 5 29 10 3 6 22 10 41 10 19 0 34 5 34 11 0 7 -10 9 -24 7
-28 -6 -51 9 -60 40 -10 30 19 39 102 33 16 -1 16 -68 0 -73 -10 -4 -9 -9 3
-21 11 -10 15 -28 13 -48 l-4 -31 93 5 c119 8 330 48 352 68 5 5 17 9 27 9 34
0 205 85 316 157 110 72 250 198 306 276 29 39 43 46 52 23z m2387 -10 c23
-17 22 -32 -4 -50 -22 -15 -86 -13 -103 4 -5 5 8 19 30 34 45 29 53 30 77 12z
m-3501 -88 c4 -119 -2 -308 -10 -308 -4 0 -7 81 -7 180 0 111 -4 181 -10 183
-5 1 -41 2 -80 2 l-70 -1 -2 -74 c-1 -41 -2 -103 -2 -138 -1 -35 -4 -61 -9
-58 -4 2 -9 70 -10 150 l-2 146 99 0 100 0 3 -82z m1434 57 c16 -8 41 -25 57
-37 l27 -23 -24 -29 c-32 -36 -76 -31 -76 9 0 21 -5 25 -30 25 -16 0 -30 5
-30 10 0 6 16 10 35 10 26 0 33 3 29 15 -4 8 -12 15 -20 15 -8 0 -14 5 -14 10
0 14 12 13 46 -5z m1654 5 c0 -5 -5 -10 -11 -10 -5 0 -7 5 -4 10 3 6 8 10 11
10 2 0 4 -4 4 -10z m-3935 -24 c6 -7 31 -27 58 -46 26 -18 47 -37 47 -42 0 -4
5 -8 10 -8 6 0 39 -18 74 -40 35 -22 68 -40 75 -40 6 0 11 -4 11 -10 0 -5 5
-10 12 -10 13 0 120 -51 115 -56 -3 -4 -78 21 -105 35 -9 5 -46 23 -82 41 -36
18 -79 43 -97 56 -17 13 -37 24 -43 24 -6 0 -13 7 -16 15 -4 8 -10 15 -15 15
-8 0 -43 27 -75 58 -8 7 -14 17 -14 22 0 12 31 1 45 -14z m-600 -23 c-4 -21
-11 -39 -16 -41 -11 -5 -12 -32 -1 -32 5 0 17 9 27 20 20 22 45 27 44 8 0 -14
-91 -78 -110 -78 -12 0 -3 54 14 82 19 30 -1 32 -35 3 -29 -25 -33 -26 -36
-10 -2 10 2 21 10 26 15 9 42 28 66 46 33 24 45 16 37 -24z m685 30 c0 -5 17
-19 38 -33 20 -14 39 -27 42 -30 18 -18 178 -100 196 -100 8 0 14 -4 14 -9 0
-5 6 -12 13 -14 6 -2 -1 -3 -18 -1 -35 5 -191 81 -220 107 -11 10 -37 28 -57
39 -43 25 -57 48 -28 48 11 0 20 -3 20 -7z m2037 -32 c20 -28 2 -33 -24 -7
l-25 26 -31 -43 c-17 -23 -36 -48 -43 -54 -7 -7 -10 -22 -7 -33 6 -23 33 -27
33 -5 0 8 -5 15 -11 15 -5 0 -7 5 -4 11 5 6 12 4 21 -8 13 -17 13 -17 14 5 0
13 4 20 10 17 15 -9 12 -17 -14 -48 -21 -25 -27 -27 -45 -16 -26 17 -37 60
-18 71 8 4 31 31 51 58 33 46 38 50 59 39 12 -7 27 -19 34 -28z m-1733 11 c2
-4 1 -14 -4 -22 -6 -10 -12 -11 -22 -3 -19 16 -110 21 -115 6 -2 -6 14 -19 36
-29 23 -10 41 -21 41 -26 0 -4 9 -8 20 -8 11 0 20 -4 20 -8 0 -19 -14 -20 -48
-1 -99 55 -137 78 -140 88 -4 13 204 16 212 3z m1716 -50 c0 -17 -29 -47 -37
-39 -4 5 1 15 11 23 20 14 20 14 0 30 -18 14 -18 15 4 4 12 -6 22 -14 22 -18z
m2047 22 c-3 -3 -12 -4 -19 -1 -8 3 -5 6 6 6 11 1 17 -2 13 -5z m-3369 -51
c-10 -2 -28 -2 -40 0 -13 2 -5 4 17 4 22 1 32 -1 23 -4z m1462 -15 c39 -42 19
-98 -42 -113 -21 -5 -33 -1 -52 19 -30 29 -33 62 -10 94 21 30 76 30 104 0z
m-4110 8 c0 -11 -19 -15 -25 -6 -3 5 1 10 9 10 9 0 16 -2 16 -4z m657 -2 c-3
-3 -12 -4 -19 -1 -8 3 -5 6 6 6 11 1 17 -2 13 -5z m253 -18 c0 -2 -7 -6 -15
-10 -8 -3 -15 -1 -15 4 0 6 7 10 15 10 8 0 15 -2 15 -4z m461 -13 c40 -24 44
-84 7 -115 -28 -24 -67 -23 -95 4 -31 29 -30 70 2 103 30 29 47 31 86 8z m879
-4 c0 -6 -4 -7 -10 -4 -5 3 -10 11 -10 16 0 6 5 7 10 4 6 -3 10 -11 10 -16z
m3045 1 c-3 -5 -10 -10 -16 -10 -5 0 -9 5 -9 10 0 6 7 10 16 10 8 0 12 -4 9
-10z m-5045 -14 c0 -3 -4 -8 -10 -11 -5 -3 -10 -1 -10 4 0 6 5 11 10 11 6 0
10 -2 10 -4z m3585 -26 c-3 -5 -12 -10 -18 -10 -7 0 -6 4 3 10 19 12 23 12 15
0z m2755 -18 c0 -16 -48 -62 -64 -62 -17 1 -46 26 -46 40 0 7 8 19 18 26 22
17 92 14 92 -4z m-2820 -1 c0 -5 -13 -21 -30 -34 -34 -29 -36 -34 -15 -34 8 0
15 6 15 12 0 6 7 12 15 12 8 0 15 -5 15 -10 0 -5 7 -4 15 3 12 10 13 15 4 20
-6 4 -9 14 -7 21 4 9 10 5 18 -13 12 -26 11 -30 -23 -63 -20 -19 -40 -35 -44
-35 -5 0 -14 -8 -22 -18 -8 -12 -22 -17 -39 -15 -19 3 -37 -5 -59 -24 -32 -28
-48 -58 -18 -33 12 10 15 10 15 -3 0 -18 -50 -32 -80 -22 -27 9 -26 -4 2 -14
20 -7 18 -9 -20 -26 -23 -11 -42 -22 -42 -27 0 -4 -4 -8 -10 -8 -5 0 -10 7
-10 15 0 8 5 15 10 15 6 0 10 5 10 10 0 19 -31 10 -54 -15 -13 -14 -28 -25
-35 -25 -6 0 -11 -9 -11 -20 0 -21 -54 -53 -110 -65 -17 -4 -30 -11 -30 -16 0
-5 -7 -9 -15 -9 -8 0 -15 7 -15 15 0 18 -4 18 -47 3 -21 -8 -33 -19 -33 -30 0
-11 -7 -18 -20 -18 -11 0 -28 -4 -38 -10 -9 -5 -39 -14 -67 -19 -41 -8 -52 -7
-61 4 -15 21 -40 19 -63 -4 -27 -27 -211 -42 -211 -17 0 24 -41 32 -57 10 -12
-16 -25 -18 -95 -16 -86 3 -118 13 -118 37 0 23 -49 31 -64 10 -12 -17 -17
-16 -99 10 -70 22 -86 31 -89 48 -2 15 -14 26 -38 33 -21 7 -37 19 -39 30 -2
11 -8 22 -15 26 -6 5 -2 8 12 8 14 0 22 -6 22 -18 0 -10 13 -23 32 -31 28 -12
32 -12 43 3 11 15 17 15 56 2 24 -8 61 -18 82 -22 28 -5 41 -13 47 -30 11 -28
57 -34 67 -8 5 14 17 15 76 9 84 -8 117 -19 117 -40 0 -21 47 -19 59 3 7 13
28 18 93 23 72 5 85 3 100 -13 23 -25 57 -23 67 5 7 19 23 25 92 40 100 20
100 20 97 5 -4 -17 40 -22 58 -8 7 7 14 20 14 30 0 10 8 20 18 23 9 4 42 15
72 27 71 26 91 26 62 0 -27 -26 -27 -28 1 -26 12 1 21 7 20 14 -2 7 6 12 17
12 11 0 20 5 20 10 0 6 7 10 15 10 9 0 15 9 15 25 0 23 14 31 44 26 5 -1 6 5
3 14 -5 10 0 15 13 15 11 0 20 5 20 10 0 6 6 10 14 10 8 0 21 7 30 15 12 12
19 13 34 4 15 -9 23 -8 40 7 12 10 22 28 22 39 0 22 17 45 33 45 5 0 4 -7 -3
-15 -16 -19 -4 -35 25 -35 34 0 42 20 17 41 -22 18 -29 39 -13 39 5 0 19 11
32 25 25 26 39 32 39 16z m-2578 -23 c20 -31 218 -228 228 -228 5 0 10 -3 12
-8 2 -4 26 -25 53 -47 28 -22 52 -42 55 -45 10 -10 175 -117 210 -136 19 -10
37 -21 40 -24 14 -14 140 -69 260 -114 88 -32 146 -50 210 -62 14 -3 54 -11
90 -19 110 -23 289 -37 410 -32 123 5 295 23 320 34 31 14 223 53 229 47 2 -2
-2 -5 -10 -7 -16 -5 -69 -23 -119 -43 -28 -11 -31 -13 -12 -14 13 0 21 -4 17
-10 -3 -5 -12 -7 -20 -3 -9 3 -15 -1 -15 -8 0 -8 -6 -5 -15 7 -11 14 -14 15
-15 4 0 -29 -71 -50 -235 -69 -94 -12 -136 -22 -130 -32 3 -4 1 -10 -4 -13 -5
-3 -11 0 -14 8 -4 10 -30 14 -106 14 -55 1 -109 6 -120 11 -11 6 -37 11 -58
11 -45 0 -210 28 -238 40 -11 5 -39 12 -62 15 -24 4 -45 11 -49 16 -3 5 -14 9
-24 9 -11 0 -34 6 -52 14 -18 8 -53 22 -78 31 -68 27 -260 122 -270 135 -3 4
-12 10 -20 14 -48 23 -180 116 -180 127 0 5 -5 9 -11 9 -17 0 -174 156 -220
217 -43 58 -54 93 -14 47 14 -16 25 -23 25 -16 0 12 -7 23 -37 57 -7 7 -13 18
-13 23 0 6 -7 12 -15 16 -8 3 -15 12 -15 20 0 8 -6 17 -12 19 -8 4 -9 6 -2 6
7 1 18 -9 26 -21z m1456 15 c-16 -2 -40 -2 -55 0 -16 2 -3 4 27 4 30 0 43 -2
28 -4z m3322 3 c0 -3 -4 -8 -10 -11 -5 -3 -10 -1 -10 4 0 6 5 11 10 11 6 0 10
-2 10 -4z m-2018 -26 c12 -11 39 -25 60 -31 37 -10 52 -29 23 -29 -8 0 -15 5
-15 10 0 6 -9 10 -19 10 -11 0 -23 -4 -26 -10 -3 -5 -2 -10 3 -10 5 0 12 -9
15 -20 8 -32 -9 -23 -24 13 -7 17 -23 42 -36 54 -13 12 -23 25 -23 28 0 12 22
4 42 -15z m-2516 -45 c-14 -12 -23 -25 -20 -28 6 -6 55 13 64 25 3 4 12 3 19
-1 11 -7 11 -13 -3 -32 -9 -13 -16 -33 -16 -44 1 -18 3 -17 24 9 13 16 29 27
36 24 8 -2 -5 -22 -32 -51 -31 -33 -49 -46 -61 -42 -17 7 -17 8 17 73 20 38
11 40 -45 12 -37 -20 -59 -20 -59 0 0 17 94 104 98 91 2 -7 -7 -23 -22 -36z
m1504 16 c0 -6 -4 -13 -10 -16 -5 -3 -10 1 -10 9 0 9 5 16 10 16 6 0 10 -4 10
-9z m-287 -8 c-18 -2 -48 -2 -65 0 -18 2 -4 4 32 4 36 0 50 -2 33 -4z m1047
-33 c0 -5 -7 -10 -15 -10 -8 0 -15 5 -15 10 0 6 7 10 15 10 8 0 15 -4 15 -10z
m221 -12 c25 -28 24 -66 -3 -95 -28 -30 -61 -29 -93 2 -29 30 -32 57 -7 90 23
32 77 34 103 3z m-1000 -31 c-11 -17 -29 -32 -43 -33 -12 -2 -40 -6 -60 -9
-20 -3 -40 -1 -43 5 -4 6 10 10 34 10 22 0 46 7 55 15 8 9 18 16 21 15 28 -2
35 3 35 21 0 11 4 17 10 14 7 -4 4 -18 -9 -38z m-2026 23 c-3 -5 -10 -10 -16
-10 -5 0 -9 5 -9 10 0 6 7 10 16 10 8 0 12 -4 9 -10z m-215 -9 c0 -6 -4 -13
-10 -16 -5 -3 -10 1 -10 9 0 9 5 16 10 16 6 0 10 -4 10 -9z m450 -7 c0 -8 -4
-12 -10 -9 -5 3 -10 10 -10 16 0 5 5 9 10 9 6 0 10 -7 10 -16z m1689 -10 c2
-2 -17 -4 -43 -4 -27 0 -45 4 -41 9 5 9 73 4 84 -5z m948 -70 l3 -39 -13 29
c-12 27 -14 28 -30 12 -9 -10 -22 -16 -29 -14 -7 3 -5 9 6 19 9 7 22 19 29 26
20 20 32 9 34 -33z m2102 17 c-15 -5 -22 6 -14 19 6 9 10 9 16 -1 5 -8 4 -15
-2 -18z m-3526 2 c-7 -2 -21 -2 -30 0 -10 3 -4 5 12 5 17 0 24 -2 18 -5z m140
1 c-7 -3 -9 -12 -6 -20 4 -10 -2 -14 -21 -14 -14 0 -26 4 -26 10 0 5 7 7 15 4
9 -4 15 0 15 10 0 9 8 16 18 15 9 0 12 -3 5 -5z m-821 -21 c24 -21 23 -25 -14
-78 -35 -50 -43 -53 -70 -28 -20 17 -24 43 -8 43 6 0 15 12 21 27 21 55 40 65
71 36z m754 8 c-3 -5 -15 -7 -26 -4 -28 7 -25 13 6 13 14 0 23 -4 20 -9z
m-466 -31 c0 -5 8 -10 17 -10 9 0 14 -3 10 -6 -8 -8 -47 5 -47 17 0 5 5 9 10
9 6 0 10 -4 10 -10z m350 0 c0 -5 -4 -10 -9 -10 -6 0 -13 5 -16 10 -3 6 1 10
9 10 9 0 16 -4 16 -10z m6091 -52 c-22 -26 -71 -24 -71 2 0 26 36 40 65 26 20
-9 20 -11 6 -28z m-4605 2 c3 0 14 5 25 10 13 7 19 7 19 0 0 -5 -7 -10 -15
-10 -8 0 -15 -4 -15 -10 0 -5 -7 -10 -15 -10 -10 0 -15 9 -14 28 1 16 3 20 6
10 2 -10 7 -18 9 -18z m-2022 -6 c6 -17 -6 -18 -21 -3 -14 14 -30 0 -52 -43
-8 -16 -21 -28 -30 -28 -9 0 -12 3 -6 8 6 4 19 24 30 44 24 47 65 59 79 22z
m162 0 c19 -17 23 -24 11 -20 -10 3 -25 6 -33 6 -8 0 -14 9 -14 20 0 25 1 25
36 -6z m91 20 c-3 -3 -12 -4 -19 -1 -8 3 -5 6 6 6 11 1 17 -2 13 -5z m246 -11
c-7 -2 -21 -2 -30 0 -10 3 -4 5 12 5 17 0 24 -2 18 -5z m1332 -31 c0 -13 7
-16 27 -14 29 4 53 -26 45 -56 -4 -13 -5 -12 -6 4 0 12 -8 25 -17 28 -26 10
-53 -3 -51 -24 1 -21 30 -36 47 -25 5 3 10 1 10 -4 0 -15 -43 -14 -58 1 -7 7
-12 37 -12 67 0 30 3 51 7 47 4 -4 8 -15 8 -24z m1779 13 c9 -9 16 -20 16 -25
0 -12 -34 -30 -58 -30 -24 0 -56 35 -49 53 7 19 72 21 91 2z m-3061 -2 c-7 -2
-19 -2 -25 0 -7 3 -2 5 12 5 14 0 19 -2 13 -5z m-515 -54 c-17 -31 -20 -43
-10 -46 10 -4 8 -9 -5 -19 -23 -18 -33 -17 -33 1 0 9 6 12 16 8 14 -5 15 -3 5
15 -7 12 -8 22 -4 22 5 0 14 14 20 30 6 17 16 30 22 30 7 0 2 -18 -11 -41z
m195 24 c-7 -2 -19 -2 -25 0 -7 3 -2 5 12 5 14 0 19 -2 13 -5z m66 -17 c8 -9
8 -16 2 -20 -13 -8 -62 15 -55 25 8 14 40 10 53 -5z m-1149 -12 c0 -2 -7 -4
-15 -4 -8 0 -15 4 -15 10 0 5 7 7 15 4 8 -4 15 -8 15 -10z m960 6 c0 -5 -10
-10 -22 -10 -19 0 -20 2 -8 10 19 13 30 13 30 0z m-1663 -6 c-3 -3 -12 -4 -19
-1 -8 3 -5 6 6 6 11 1 17 -2 13 -5z m243 -4 c0 -5 -4 -10 -9 -10 -6 0 -13 5
-16 10 -3 6 1 10 9 10 9 0 16 -4 16 -10z m217 -12 c-3 -8 -6 -5 -6 6 -1 11 2
17 5 13 3 -3 4 -12 1 -19z m693 18 c0 -11 -19 -15 -25 -6 -3 5 1 10 9 10 9 0
16 -2 16 -4z m2124 -11 c-6 -14 6 -20 30 -16 10 2 46 -38 46 -52 0 -6 -8 -3
-18 6 -10 10 -29 17 -41 17 -18 0 -22 -5 -19 -22 2 -19 9 -23 38 -21 33 1 34
0 16 -13 -25 -18 -32 -18 -54 4 -13 13 -17 29 -14 65 2 26 8 47 13 47 4 0 6
-7 3 -15z m1106 -5 c0 -5 -4 -10 -10 -10 -5 0 -10 5 -10 10 0 6 5 10 10 10 6
0 10 -4 10 -10z m-2676 -18 c-5 -4 -15 -18 -22 -32 l-12 -25 6 25 c8 30 24 53
33 45 3 -3 1 -9 -5 -13z m2286 4 c0 -3 -4 -8 -10 -11 -5 -3 -10 -1 -10 4 0 6
5 11 10 11 6 0 10 -2 10 -4z m-807 -56 c27 0 50 -34 42 -61 -8 -24 -38 -41
-60 -33 -29 12 -36 39 -23 96 10 43 13 48 16 26 2 -21 9 -28 25 -28z m-2333
36 c0 -11 -19 -15 -25 -6 -3 5 1 10 9 10 9 0 16 -2 16 -4z m1005 -70 c7 3 15
13 17 22 2 10 6 13 10 7 3 -6 -2 -27 -12 -48 -10 -20 -16 -37 -14 -37 3 0 0
-9 -6 -20 -14 -26 -24 -25 -55 2 -32 28 -32 52 0 66 17 8 25 20 26 39 1 28 1
28 10 -4 6 -22 14 -30 24 -27z m-201 9 c-4 -8 -11 -12 -16 -9 -6 4 -5 10 3 15
19 12 19 11 13 -6z m314 -1 c26 -8 27 -16 5 -83 -13 -43 -20 -51 -40 -51 -14
0 -32 7 -40 16 -15 15 -14 16 8 14 57 -5 68 12 22 32 l-28 12 33 4 c24 2 32 8
32 23 0 10 -6 19 -14 19 -8 0 -18 5 -21 10 -7 11 9 13 43 4z m1052 -19 c0 -13
8 -40 17 -60 15 -31 15 -37 3 -45 -20 -13 -63 -13 -55 0 3 6 13 10 21 10 17 0
19 30 2 31 -7 1 -22 1 -33 0 -19 -2 -19 -1 3 18 17 15 21 26 16 45 -5 20 -2
26 10 26 10 0 16 -9 16 -25z m-96 -63 c9 -32 16 -64 16 -70 0 -22 -28 0 -33
26 -7 36 -14 63 -22 85 -5 11 -2 17 8 17 9 0 20 -21 31 -58z m-830 1 c-12 -81
-20 -94 -51 -87 -60 15 -63 76 -4 82 22 2 31 8 31 21 0 19 8 31 22 31 5 0 6
-21 2 -47z m768 -4 c3 -24 8 -53 10 -64 4 -28 -15 -25 -51 8 -39 34 -44 34
-36 -3 10 -47 -6 -58 -20 -14 -35 109 -23 132 36 69 33 -35 57 -38 39 -5 -14
27 -13 63 3 58 6 -3 15 -24 19 -49z m-2147 31 c3 -5 -1 -10 -9 -10 -9 0 -16 5
-16 10 0 6 4 10 9 10 6 0 13 -4 16 -10z m585 -15 c0 -8 -4 -15 -10 -15 -5 0
-7 7 -4 15 4 8 8 15 10 15 2 0 4 -7 4 -15z m904 -47 c-8 -76 -9 -78 -39 -78
-24 0 -55 23 -55 41 0 25 23 49 45 49 20 0 25 5 25 25 0 16 6 25 15 25 14 0
15 -10 9 -62z m506 43 c5 -11 10 -44 10 -74 0 -48 -3 -55 -22 -61 -36 -9 -48
-7 -48 9 0 8 9 15 20 15 11 0 20 7 20 15 0 8 -9 15 -19 15 -31 0 -35 19 -6 26
32 8 30 38 -3 42 -29 4 -28 19 1 25 12 2 25 5 29 6 4 0 12 -8 18 -18z m-368
-3 c9 -7 23 -25 32 -39 15 -24 15 -28 -7 -60 -17 -25 -31 -35 -56 -37 -42 -4
-81 29 -81 70 0 56 71 98 112 66z m-1895 -4 c-3 -3 -12 -4 -19 -1 -8 3 -5 6 6
6 11 1 17 -2 13 -5z m2062 -4 c10 -5 24 -22 30 -39 11 -25 10 -33 -5 -56 -30
-46 -104 -57 -119 -18 -8 22 0 26 23 14 12 -6 28 -11 36 -11 22 0 39 37 31 67
-6 24 -9 25 -51 19 -49 -6 -51 -5 -28 18 17 18 56 21 83 6z m4656 -10 c3 -5 1
-10 -4 -10 -6 0 -11 5 -11 10 0 6 2 10 4 10 3 0 8 -4 11 -10z m-10421 -38
c-22 -5 -31 7 -14 18 9 6 17 5 22 -3 4 -7 1 -13 -8 -15z m3243 22 c-3 -3 -12
-4 -19 -1 -8 3 -5 6 6 6 11 1 17 -2 13 -5z m-237 -14 c0 -5 -5 -10 -11 -10 -5
0 -7 5 -4 10 3 6 8 10 11 10 2 0 4 -4 4 -10z m465 0 c3 -5 1 -10 -4 -10 -6 0
-11 5 -11 10 0 6 2 10 4 10 3 0 8 -4 11 -10z m3510 -10 c-3 -5 -10 -10 -16
-10 -5 0 -9 5 -9 10 0 6 7 10 16 10 8 0 12 -4 9 -10z m1835 -55 c0 -9 -6 -12
-16 -8 -13 5 -13 7 -2 14 17 11 18 11 18 -6z m610 -32 c3 -2 -6 -13 -20 -23
-26 -20 -75 -26 -84 -11 -9 14 4 39 22 44 18 5 73 -2 82 -10z m-230 -63 c0 -5
-7 -10 -15 -10 -8 0 -15 5 -15 10 0 6 7 10 15 10 8 0 15 -4 15 -10z m-5010
-40 c0 -5 -2 -10 -4 -10 -3 0 -8 5 -11 10 -3 6 -1 10 4 10 6 0 11 -4 11 -10z
m2075 -20 c3 -5 -1 -10 -10 -10 -9 0 -13 5 -10 10 3 6 8 10 10 10 2 0 7 -4 10
-10z m-935 -20 c0 -5 -4 -10 -10 -10 -5 0 -10 5 -10 10 0 6 5 10 10 10 6 0 10
-4 10 -10z m4658 -32 c-2 -6 -16 -21 -31 -31 -21 -16 -32 -18 -57 -11 -29 9
-30 10 -15 32 13 17 26 22 61 22 31 0 44 -4 42 -12z m-3620 -70 c4 -21 -36
-39 -67 -31 -23 6 -29 38 -8 47 26 11 72 1 75 -16z m-210 3 c8 -4 12 -19 10
-32 -3 -21 -8 -24 -43 -24 -45 0 -58 21 -30 49 18 18 43 20 63 7z m4549 -106
c19 -20 17 -22 -29 -30 -31 -6 -38 -4 -38 9 0 9 7 16 15 16 8 0 15 5 15 10 0
15 19 12 37 -5z m-5387 -5 c0 -5 -4 -10 -10 -10 -5 0 -10 5 -10 10 0 6 5 10
10 10 6 0 10 -4 10 -10z m4297 -34 c-3 -14 -35 -23 -64 -18 -29 5 -29 20 -1
31 27 10 68 2 65 -13z m453 -192 c0 -4 -10 -15 -22 -25 -36 -32 -88 -21 -74
16 4 10 20 15 51 15 25 0 45 -3 45 -6z m-470 -357 c0 -7 -9 -18 -21 -25 -17
-11 -26 -11 -50 0 -46 20 -36 38 21 38 34 0 50 -4 50 -13z m-3540 -187 c0 -5
-2 -10 -4 -10 -3 0 -8 5 -11 10 -3 6 -1 10 4 10 6 0 11 -4 11 -10z m-846 -86
c4 -10 -3 -14 -24 -14 -32 0 -37 9 -19 27 14 14 35 7 43 -13z"/>
<path d="M5267 5703 c-12 -11 -8 -23 8 -23 8 0 15 7 15 15 0 16 -12 20 -23 8z"/>
<path d="M6886 6617 c3 -10 9 -15 12 -12 3 3 0 11 -7 18 -10 9 -11 8 -5 -6z"/>
<path d="M6874 6308 c1 -18 -3 -45 -7 -60 -4 -17 -3 -28 3 -28 5 0 10 10 10
23 0 13 5 28 11 34 13 13 8 55 -7 60 -6 2 -10 -10 -10 -29z"/>
<path d="M6840 6296 c0 -8 4 -17 9 -20 5 -4 7 3 4 14 -6 23 -13 26 -13 6z"/>
<path d="M6841 6214 c0 -11 3 -14 6 -6 3 7 2 16 -1 19 -3 4 -6 -2 -5 -13z"/>
<path d="M6870 6182 c-23 -4 -23 -5 9 -18 32 -13 51 -12 51 5 0 11 -29 18 -60
13z"/>
<path d="M5851 6074 c0 -11 3 -14 6 -6 3 7 2 16 -1 19 -3 4 -6 -2 -5 -13z"/>
<path d="M6410 5994 c0 -13 28 -31 39 -25 8 5 3 11 -14 19 -14 6 -25 9 -25 6z"/>
<path d="M6750 5946 c0 -2 7 -7 16 -10 8 -3 12 -2 9 4 -6 10 -25 14 -25 6z"/>
<path d="M6900 5889 c0 -5 5 -7 10 -4 6 3 10 8 10 11 0 2 -4 4 -10 4 -5 0 -10
-5 -10 -11z"/>
<path d="M6835 5880 c-4 -6 7 -10 24 -10 17 0 31 4 31 8 0 11 -48 13 -55 2z"/>
<path d="M7690 4881 c0 -6 5 -13 10 -16 6 -3 10 1 10 9 0 9 -4 16 -10 16 -5 0
-10 -4 -10 -9z"/>
<path d="M5330 5566 c0 -2 7 -6 15 -10 8 -3 15 -1 15 4 0 6 -7 10 -15 10 -8 0
-15 -2 -15 -4z"/>
<path d="M7275 5018 c3 -16 1 -28 -5 -28 -5 0 -10 -5 -10 -10 0 -6 11 -8 25
-4 19 5 25 2 25 -10 0 -9 5 -16 10 -16 18 0 11 25 -11 40 -12 8 -25 24 -30 35
-8 16 -8 15 -4 -7z"/>
<path d="M6928 5565 c-6 -14 -15 -25 -20 -25 -13 0 -9 -20 6 -36 19 -19 30
-18 49 4 20 22 22 53 5 70 -18 18 -27 15 -40 -13z"/>
<path d="M7582 4138 c3 -9 34 -14 99 -16 59 -1 106 -8 127 -18 34 -16 62 -13
62 6 0 5 -10 10 -22 10 -13 1 -34 7 -48 15 -33 19 -224 21 -218 3z"/>
<path d="M6901 3999 c-24 -9 -22 -12 55 -86 43 -42 89 -83 102 -91 33 -22 87
-25 102 -7 11 13 8 15 -22 15 -32 0 -43 9 -114 89 -44 49 -83 90 -89 90 -5 0
-21 -5 -34 -10z"/>
<path d="M7580 3960 c0 -5 9 -10 21 -10 11 0 17 5 14 10 -3 6 -13 10 -21 10
-8 0 -14 -4 -14 -10z"/>
<path d="M7585 3920 c-3 -5 1 -10 10 -10 9 0 13 5 10 10 -3 6 -8 10 -10 10 -2
0 -7 -4 -10 -10z"/>
<path d="M7588 3873 c7 -3 16 -2 19 1 4 3 -2 6 -13 5 -11 0 -14 -3 -6 -6z"/>
<path d="M7250 3832 c0 -4 34 -41 75 -82 57 -56 78 -72 84 -61 15 23 -1 54
-52 103 -36 34 -58 48 -79 48 -15 0 -28 -3 -28 -8z"/>
<path d="M7452 3833 c-22 -9 -2 -23 33 -23 41 0 67 9 59 21 -5 9 -70 11 -92 2z"/>
<path d="M7220 3792 c0 -21 12 -40 48 -74 26 -25 67 -66 91 -93 33 -36 46 -44
52 -34 15 23 10 39 -19 67 -173 165 -172 165 -172 134z"/>
<path d="M7447 3776 c-4 -11 6 -15 39 -18 51 -4 55 -2 47 18 -7 19 -79 19 -86
0z"/>
<path d="M7200 3703 c1 -60 44 -104 109 -113 29 -4 51 -2 51 3 0 11 -139 147
-151 147 -5 0 -9 -17 -9 -37z"/>
<path d="M7445 3720 c-12 -19 10 -32 46 -28 48 4 46 32 -3 36 -20 2 -39 -2
-43 -8z"/>
<path d="M7440 3595 c0 -10 10 -15 30 -15 22 0 28 4 24 15 -4 8 -17 15 -30 15
-15 0 -24 -6 -24 -15z"/>
<path d="M4976 5315 c4 -8 8 -15 10 -15 2 0 4 7 4 15 0 8 -4 15 -10 15 -5 0
-7 -7 -4 -15z"/>
<path d="M4950 5280 c0 -5 5 -10 11 -10 5 0 7 5 4 10 -3 6 -8 10 -11 10 -2 0
-4 -4 -4 -10z"/>
<path d="M4794 5446 c-9 -10 -6 -20 13 -44 28 -37 48 -40 63 -12 22 42 -45 92
-76 56z"/>
<path d="M7117 5446 c-7 -18 1 -26 18 -19 8 2 11 11 8 19 -7 18 -19 18 -26 0z"/>
<path d="M5830 5369 c0 -5 5 -7 10 -4 6 3 10 8 10 11 0 2 -4 4 -10 4 -5 0 -10
-5 -10 -11z"/>
<path d="M5818 5344 c-14 -13 6 -44 27 -44 30 0 49 22 33 38 -12 12 -50 16
-60 6z"/>
<path d="M5900 5326 c0 -9 30 -14 35 -6 4 6 -3 10 -14 10 -12 0 -21 -2 -21 -4z"/>
<path d="M5910 5198 c-25 -5 -53 -6 -62 -4 -12 3 -18 -2 -18 -13 0 -14 11 -16
75 -16 49 0 75 4 75 11 0 23 -25 31 -70 22z"/>
<path d="M5830 5123 c0 -16 9 -18 75 -15 57 3 75 7 75 18 0 11 -17 14 -75 14
-65 0 -75 -2 -75 -17z"/>
<path d="M5545 5121 c-3 -5 -19 -12 -35 -16 -17 -4 -30 -10 -30 -15 0 -4 -10
-10 -23 -14 -25 -6 -175 -100 -192 -120 -5 -7 -25 -22 -42 -35 -18 -12 -33
-27 -33 -33 0 -15 51 0 71 20 30 32 69 62 79 62 6 0 10 3 10 8 0 7 26 24 116
72 62 33 94 42 94 27 0 -7 -36 -30 -80 -51 -44 -21 -80 -43 -80 -48 0 -4 -5
-8 -10 -8 -14 0 -122 -81 -116 -87 8 -9 66 8 73 21 10 16 136 96 152 96 6 0
11 4 11 9 0 5 11 11 25 13 45 9 27 -18 -32 -49 -96 -51 -122 -67 -128 -80 -7
-20 42 -16 62 5 10 10 44 31 75 48 l58 29 0 78 c0 69 -9 93 -25 68z"/>
<path d="M5893 5082 c-51 -2 -63 -6 -63 -20 0 -15 10 -17 76 -14 62 3 75 6 72
19 -4 19 -6 20 -85 15z"/>
<path d="M5830 4957 l0 -68 73 3 72 3 2 68 2 68 -74 -3 -75 -3 0 -68z"/>
<path d="M6240 4959 c0 -28 1 -29 16 -15 8 9 20 14 25 11 5 -4 14 -3 20 1 8 4
3 12 -12 20 -38 21 -49 17 -49 -17z"/>
<path d="M5525 4921 c-74 -41 -74 -41 -15 -38 52 3 55 4 58 30 4 30 -1 31 -43
8z"/>
<path d="M5058 4743 c-21 -30 -38 -58 -38 -64 0 -5 -4 -9 -9 -9 -5 0 -14 -12
-20 -27 -5 -16 -19 -44 -30 -63 -60 -106 -96 -233 -114 -403 l-13 -117 65 -65
65 -65 98 0 c80 0 98 3 98 15 0 12 -15 15 -71 15 l-71 0 -75 72 -74 73 6 80
c6 73 17 123 47 225 26 88 114 261 155 305 22 23 34 58 24 73 -3 5 -23 -15
-43 -45z"/>
<path d="M5061 4645 c-90 -149 -141 -300 -156 -457 l-6 -68 65 -65 64 -65 72
0 c45 0 69 4 65 10 -3 6 -22 10 -42 10 -31 0 -45 10 -115 79 l-79 80 6 48 c19
132 85 315 140 388 24 32 42 95 28 95 -5 0 -24 -25 -42 -55z"/>
<path d="M5094 4587 c-6 -12 -23 -44 -37 -72 -38 -74 -65 -163 -92 -303 -6
-30 -2 -38 62 -101 37 -38 75 -70 83 -71 29 -4 50 0 50 10 0 5 -38 47 -84 94
l-83 84 15 64 c8 34 21 77 29 95 7 17 13 36 13 41 0 14 50 111 72 141 23 30
23 41 1 41 -10 0 -23 -10 -29 -23z"/>
<path d="M5160 4588 c-6 -13 -14 -30 -20 -38 -23 -36 -70 -144 -70 -160 0 -11
-4 -21 -9 -24 -4 -3 -11 -25 -15 -48 -4 -24 -9 -52 -12 -63 -6 -24 59 -98 95
-110 31 -10 26 4 -23 58 -39 42 -43 51 -36 80 28 120 104 270 160 314 12 10 9
12 -23 13 -30 0 -40 -5 -47 -22z"/>
<path d="M5229 4552 c-25 -31 -53 -75 -63 -97 -9 -22 -21 -49 -26 -60 -51
-114 -51 -137 -4 -181 l35 -34 110 0 c80 0 109 -3 109 -12 0 -9 3 -8 9 2 16
25 2 30 -78 30 l-78 0 -51 54 c-47 49 -50 56 -43 87 11 46 89 189 104 189 4 0
7 5 7 10 0 13 37 50 50 50 18 0 11 -20 -22 -63 -18 -23 -35 -44 -38 -47 -16
-15 -70 -131 -70 -150 0 -12 17 -39 37 -61 37 -38 38 -39 110 -39 60 0 73 3
73 16 0 12 -7 14 -30 9 -26 -6 -37 0 -92 52 -35 32 -64 58 -66 59 -5 3 61 109
70 112 4 2 8 9 8 16 0 7 11 23 25 36 18 17 31 21 55 17 39 -8 38 6 -3 37 -55
42 -85 35 -138 -32z"/>
<path d="M5353 4513 c-23 -3 -33 -10 -37 -29 -4 -13 -11 -24 -16 -24 -6 0 -10
-6 -10 -14 0 -7 -6 -19 -14 -25 -31 -26 -25 -50 20 -93 25 -24 58 -46 75 -49
27 -6 30 -4 27 15 -2 16 -12 22 -38 26 -40 6 -50 28 -28 68 10 20 10 26 1 29
-17 6 -17 50 -1 60 7 4 25 6 40 4 23 -2 28 2 28 18 0 12 -3 20 -7 19 -5 0 -22
-3 -40 -5z"/>
<path d="M5356 4413 c-12 -12 -5 -23 14 -23 11 0 20 4 20 9 0 11 -26 22 -34
14z"/>
<path d="M5395 4140 c3 -5 8 -10 11 -10 2 0 4 5 4 10 0 6 -5 10 -11 10 -5 0
-7 -4 -4 -10z"/>
<path d="M5162 4109 c2 -6 7 -10 11 -10 4 1 14 1 22 1 8 0 15 5 15 10 0 6 -12
10 -26 10 -14 0 -24 -5 -22 -11z"/>
<path d="M5255 4110 c-3 -5 -1 -10 4 -10 6 0 11 5 11 10 0 6 -2 10 -4 10 -3 0
-8 -4 -11 -10z"/>
<path d="M5310 4109 c0 -12 35 -29 62 -29 l23 0 -25 -20 -25 -20 27 0 c14 0
28 -3 31 -7 2 -5 2 -2 0 5 -1 8 -3 28 -3 46 0 32 -1 32 -45 33 -25 1 -45 -3
-45 -8z"/>
<path d="M5324 3999 c-8 -14 14 -29 32 -22 7 3 19 1 25 -3 9 -5 6 -10 -9 -15
-31 -12 -27 -29 6 -29 25 0 27 3 27 40 0 39 -1 40 -37 40 -20 0 -40 -5 -44
-11z"/>
<path d="M5389 3904 c-10 -13 -11 -18 -2 -21 18 -7 3 -33 -19 -33 -26 0 -18
-24 10 -28 18 -3 22 3 28 43 7 52 3 63 -17 39z"/>
<path d="M5340 3900 c0 -6 7 -10 15 -10 8 0 15 2 15 4 0 2 -7 6 -15 10 -8 3
-15 1 -15 -4z"/>
<path d="M4871 3782 c-23 -15 -41 -33 -41 -42 0 -30 97 -258 120 -280 3 -3 23
-32 45 -65 45 -68 57 -82 103 -132 l32 -34 0 30 c0 20 -5 31 -14 31 -8 0 -16
4 -18 9 -3 8 -35 51 -73 96 -11 13 -31 46 -45 72 -14 26 -27 50 -30 53 -9 9
-49 96 -65 140 -19 53 -14 67 32 103 35 26 41 27 152 27 68 0 110 4 103 9 -8
4 -69 9 -137 9 -117 0 -126 -1 -164 -26z"/>
<path d="M5363 3803 c-56 -5 -61 -33 -5 -33 l37 -1 -23 -19 c-23 -19 -23 -19
-2 -30 31 -16 24 -30 -15 -30 -24 0 -35 -5 -35 -15 0 -11 11 -15 38 -16 32 0
34 -1 15 -9 -28 -11 -30 -30 -4 -37 22 -6 29 -33 23 -87 -3 -28 -10 -40 -29
-47 -14 -5 -29 -7 -34 -3 -14 8 -11 62 4 67 6 3 -10 6 -38 6 -71 1 -117 -39
-80 -69 18 -15 20 -30 4 -30 -15 0 -54 44 -86 99 l-27 44 27 23 c15 13 27 28
27 34 0 18 -66 11 -84 -9 -17 -19 -17 -22 5 -63 13 -24 34 -57 46 -74 23 -30
30 -64 15 -64 -9 0 -65 85 -100 149 l-23 44 26 25 c19 17 40 25 68 26 22 1 42
7 45 14 6 20 -133 16 -158 -5 -11 -10 -20 -23 -20 -29 0 -15 73 -158 83 -162
4 -2 7 -8 7 -13 0 -12 63 -98 72 -99 4 0 8 12 10 27 l3 27 101 2 c104 1 143
12 146 42 1 9 2 86 2 169 1 84 1 152 1 151 0 -1 -19 -3 -42 -5z"/>
<path d="M4976 3749 c-52 -8 -76 -34 -66 -68 12 -43 103 -225 120 -241 3 -3
17 -21 30 -40 14 -19 32 -44 42 -54 10 -11 18 -23 18 -28 0 -4 4 -8 8 -8 16 0
10 44 -8 60 -11 10 -20 22 -20 29 0 6 -4 11 -9 11 -11 0 -82 115 -126 203
l-29 58 36 34 c33 33 38 34 119 37 l84 3 -82 5 c-45 3 -98 2 -117 -1z"/>
<path d="M5150 3587 c0 -7 7 -23 16 -35 l16 -23 20 23 20 23 -26 3 c-14 2 -26
8 -26 13 0 5 -4 9 -10 9 -5 0 -10 -6 -10 -13z"/>
<path d="M4390 2991 c0 -5 5 -13 10 -16 6 -3 10 -2 10 4 0 5 -4 13 -10 16 -5
3 -10 2 -10 -4z"/>
<path d="M7351 5194 c-12 -14 -12 -17 0 -25 25 -15 39 -10 39 16 0 28 -18 32
-39 9z"/>
<path d="M4501 5119 c-27 -29 -10 -69 29 -69 50 0 68 46 28 74 -29 21 -33 20
-57 -5z"/>
<path d="M7505 4948 c-38 -21 -45 -47 -19 -72 22 -22 57 -20 80 5 20 22 14 42
-22 65 -14 10 -24 10 -39 2z"/>
<path d="M7615 4730 c-9 -15 4 -30 26 -30 12 0 19 7 19 20 0 21 -33 29 -45 10z"/>
<path d="M4276 4704 c-8 -20 1 -34 20 -34 18 0 18 24 0 39 -11 9 -15 8 -20 -5z"/>
<path d="M4435 4570 c3 -5 14 -10 23 -10 15 0 15 2 2 10 -20 13 -33 13 -25 0z"/>
<path d="M5093 2735 c-15 -16 -16 -25 -5 -25 4 0 13 9 20 20 14 23 3 26 -15 5z"/>
<path d="M5834 4577 c-2 -7 -3 -100 -2 -207 l3 -195 134 3 c233 5 341 54 362
165 8 45 -6 137 -22 137 -5 0 -9 6 -9 13 0 18 -77 63 -142 81 -72 21 -316 23
-324 3z m196 -92 l0 -55 -40 0 -40 0 0 59 c0 54 2 60 23 63 44 8 57 -8 57 -67z
m113 38 c3 -10 5 -34 4 -53 -2 -34 -4 -35 -44 -38 l-43 -3 0 55 0 56 39 0 c29
0 41 -5 44 -17z m-223 -39 c0 -25 -4 -43 -9 -40 -12 8 -12 86 0 86 5 0 9 -21
9 -46z m338 -23 c9 -5 12 -25 10 -57 -3 -48 -4 -49 -37 -52 -18 -2 -37 0 -42
5 -5 5 -6 32 -2 61 5 48 8 52 32 52 14 0 32 -4 39 -9z"/>
<path d="M7711 4401 c-21 -14 -5 -43 21 -39 15 2 23 10 23 23 0 22 -22 30 -44
16z"/>
<path d="M6833 4203 c9 -2 23 -2 30 0 6 3 -1 5 -18 5 -16 0 -22 -2 -12 -5z"/>
<path d="M4196 4164 c-4 -9 1 -14 14 -14 23 0 27 15 6 23 -8 3 -17 -1 -20 -9z"/>
<path d="M5837 3914 c-3 -3 -6 -111 -7 -240 l-1 -234 103 0 c138 1 287 21 348
46 125 53 160 96 160 199 0 112 -43 157 -195 206 -47 15 -98 21 -231 24 -94 3
-174 2 -177 -1z m191 -162 c4 -42 -8 -57 -47 -56 -39 1 -61 20 -61 54 0 37 7
41 60 38 43 -3 45 -4 48 -36z m104 -7 c-3 -37 -22 -76 -22 -46 0 7 -9 11 -22
9 -20 -3 -23 2 -26 40 l-3 43 38 -3 c38 -3 38 -3 35 -43z m81 26 c-2 -6 4 -11
13 -11 11 0 14 5 10 16 -4 11 -1 14 11 12 29 -6 26 -28 -6 -39 -20 -7 -31 -18
-31 -30 0 -10 -4 -19 -10 -19 -5 0 -10 21 -10 46 0 32 4 44 13 41 6 -2 11 -10
10 -16z m94 -3 c-3 -8 -6 -5 -6 6 -1 11 2 17 5 13 3 -3 4 -12 1 -19z m83 -33
l0 -44 -37 4 c-21 2 -41 4 -45 4 -5 1 -8 9 -8 19 0 13 2 14 9 3 7 -10 13 -11
30 -2 14 8 21 8 21 1 0 -5 5 -10 10 -10 6 0 10 16 10 35 0 19 2 35 5 35 3 0 5
-20 5 -45z m-124 -24 c-4 -6 -16 -11 -27 -11 -18 0 -18 1 -1 19 17 18 40 12
28 -8z m-192 -117 c19 -2 45 -8 58 -13 18 -8 8 -10 -44 -10 -62 -1 -68 1 -68
20 0 11 5 17 10 14 6 -4 26 -8 44 -11z m116 -10 c0 -18 -26 -19 -33 -1 -3 8 3
14 14 14 11 1 19 -5 19 -13z"/>
<path d="M4265 3480 c-4 -7 -3 -16 3 -22 14 -14 45 -2 40 15 -6 16 -34 21 -43
7z"/>
<path d="M4350 3360 c-13 -8 -12 -10 3 -10 9 0 17 5 17 10 0 12 -1 12 -20 0z"/>
<path d="M5830 2690 c0 -5 7 -10 15 -10 8 0 15 5 15 10 0 6 -7 10 -15 10 -8 0
-15 -4 -15 -10z"/>
<path d="M7437 3090 c-6 -23 14 -43 37 -34 20 8 20 21 2 40 -20 19 -33 18 -39
-6z"/>
<path d="M7324 3012 c-34 -23 -15 -92 26 -92 26 0 60 38 53 59 -12 33 -53 51
-79 33z"/>
<path d="M4596 2967 c-12 -9 -17 -23 -14 -42 3 -26 8 -30 37 -33 49 -5 70 38
35 72 -19 19 -35 20 -58 3z"/>
<path d="M6840 2750 c0 -5 -11 -12 -25 -16 -26 -6 -45 -31 -45 -58 0 -9 5 -16
10 -16 6 0 10 11 10 25 0 24 3 25 33 20 30 -6 32 -4 34 24 1 17 -2 31 -7 31
-6 0 -10 -4 -10 -10z"/>
<path d="M6565 2582 c2 -12 11 -16 30 -15 49 4 49 17 -2 26 -26 5 -31 3 -28
-11z"/>
<path d="M7137 2813 c-14 -4 -17 -13 -15 -40 4 -47 29 -63 66 -43 34 20 39 43
13 69 -21 21 -30 23 -64 14z"/>
<path d="M4917 2703 c-4 -3 -7 -17 -7 -30 0 -14 -6 -23 -15 -23 -8 0 -15 -7
-15 -15 0 -8 7 -15 15 -15 8 0 15 7 15 15 0 9 6 18 14 21 8 3 17 12 20 19 5
15 -17 39 -27 28z"/>
<path d="M6657 2447 c-3 -9 0 -22 6 -32 17 -22 49 -9 45 19 -4 25 -43 34 -51
13z"/>
<path d="M5293 2414 c-3 -8 -1 -20 5 -26 16 -16 42 -2 42 22 0 24 -38 28 -47
4z"/>
<path d="M5527 2343 c-13 -12 -7 -23 13 -23 11 0 20 7 20 15 0 15 -21 21 -33
8z"/>
<path d="M5640 2305 c0 -8 7 -15 15 -15 8 0 15 7 15 15 0 8 -7 15 -15 15 -8 0
-15 -7 -15 -15z"/>
<path d="M5776 2344 c-31 -31 -13 -74 31 -74 26 0 46 31 36 57 -13 35 -42 43
-67 17z"/>
</g>
</svg>
