<?xml version="1.0" standalone="no"?>
<!DOCTYPE svg PUBLIC "-//W3C//DTD SVG 20010904//EN"
 "http://www.w3.org/TR/2001/REC-SVG-20010904/DTD/svg10.dtd">
<svg version="1.0" xmlns="http://www.w3.org/2000/svg"
 width="1400.000000pt" height="1400.000000pt" viewBox="0 0 1400.000000 1400.000000"
 preserveAspectRatio="xMidYMid meet">

<g transform="translate(0.000000,1400.000000) scale(0.100000,-0.100000)"
fill="#000000" stroke="none">
<path d="M7189 11350 c3 -3 4 -84 1 -180 -8 -260 -4 -400 14 -480 3 -14 1 -50
-5 -80 -10 -47 -9 -62 6 -100 10 -25 18 -56 17 -70 0 -67 -6 -98 -24 -128 -22
-35 -93 -82 -126 -82 -31 0 -75 42 -121 115 -42 66 -61 77 -90 51 -10 -9 -60
-18 -131 -24 -109 -9 -117 -9 -155 12 l-40 21 -1 115 c-1 93 -7 131 -28 199
-30 98 -32 125 -10 177 13 32 15 59 9 154 -10 172 -13 192 -27 201 -26 17 -81
21 -121 10 -87 -25 -97 -33 -109 -81 -8 -31 -27 -61 -61 -97 -54 -58 -54 -69
3 -93 16 -6 31 -19 34 -27 12 -29 17 -213 7 -232 -6 -10 -12 -73 -15 -141 -5
-118 -4 -124 22 -174 22 -43 27 -65 28 -139 l2 -87 -36 -30 c-27 -22 -47 -30
-76 -30 -62 0 -176 40 -234 82 -65 48 -99 53 -287 38 -77 -6 -153 -11 -170
-11 -87 -3 -164 -12 -159 -20 3 -5 -21 -9 -53 -10 -40 0 -52 -3 -38 -9 19 -7
18 -9 -8 -19 -16 -6 -35 -11 -43 -11 -21 0 -17 -20 18 -91 28 -58 31 -74 33
-164 5 -388 4 -364 25 -382 11 -10 26 -18 33 -19 6 0 18 -2 24 -2 7 -1 19 -15
27 -31 14 -26 14 -30 -3 -45 -10 -9 -22 -16 -28 -16 -6 0 -13 -7 -17 -15 -3
-8 -15 -15 -26 -15 -26 0 -25 -12 3 -26 12 -6 41 -21 64 -33 57 -28 75 -20 71
33 -3 38 -1 41 25 44 30 4 34 14 12 32 -8 7 -15 16 -15 21 0 10 65 29 101 29
14 0 40 7 58 16 46 23 71 12 133 -54 44 -48 59 -74 80 -138 15 -43 29 -96 33
-117 3 -20 21 -66 40 -102 41 -76 42 -93 14 -129 -18 -23 -20 -35 -14 -86 4
-38 13 -64 26 -76 25 -22 24 -65 -1 -156 -14 -50 -20 -105 -20 -173 -1 -61 -7
-116 -15 -140 -18 -50 -18 -98 -1 -198 9 -52 22 -88 39 -111 15 -18 23 -36 20
-39 -9 -10 -13 -49 -25 -244 -9 -148 -8 -188 2 -214 21 -50 29 -348 19 -669
-4 -126 -6 -138 -32 -183 -45 -76 -68 -77 -202 -8 -68 35 -78 37 -95 16 -6 -7
-33 -17 -58 -20 -26 -3 -70 -13 -99 -21 -45 -14 -53 -20 -63 -50 -10 -29 -9
-41 5 -71 25 -53 20 -122 -16 -199 -10 -22 -19 -60 -19 -83 0 -24 -6 -64 -14
-90 -52 -167 -41 -201 68 -201 33 0 48 -6 66 -26 21 -21 22 -27 10 -34 -8 -5
-20 -10 -27 -10 -15 0 -26 -17 -18 -30 4 -6 25 1 53 16 59 33 181 51 198 29 7
-10 22 -12 48 -8 33 5 62 23 37 23 -6 0 -11 5 -11 10 0 6 12 10 27 10 27 0 97
-64 108 -99 3 -9 18 -25 35 -34 32 -19 41 -47 15 -47 -19 0 -20 -19 -1 -26 8
-3 17 -16 20 -29 4 -17 11 -22 22 -18 12 4 15 15 11 39 -3 19 -1 36 4 39 5 4
9 16 9 28 1 27 22 57 41 57 8 0 24 16 36 35 42 64 129 58 158 -11 14 -34 14
-39 -1 -55 -18 -20 -11 -41 11 -32 9 3 27 -2 41 -12 24 -15 25 -20 19 -67 -4
-28 -3 -49 1 -46 60 28 103 45 132 53 17 5 21 12 16 29 -3 12 2 35 10 51 9 17
16 45 16 63 0 42 31 103 69 134 25 21 44 26 120 32 64 5 91 11 91 20 0 8 14
47 31 87 17 41 35 83 39 95 9 24 51 34 149 34 46 0 62 -3 58 -12 -3 -7 -13
-33 -22 -58 -10 -25 -29 -55 -42 -68 -13 -13 -36 -49 -52 -80 -28 -55 -30 -57
-67 -56 l-39 0 1 -45 c0 -25 8 -67 17 -92 8 -25 17 -73 19 -107 3 -62 3 -62
34 -62 19 0 38 -8 50 -22 25 -28 62 -104 67 -138 2 -14 5 7 6 45 0 39 5 75 11
81 5 5 13 76 18 157 5 81 12 150 16 154 3 3 47 1 98 -5 61 -8 96 -8 104 -1 20
17 83 -30 84 -63 0 -35 -14 -36 -36 -3 -21 32 -40 32 -48 -1 -8 -32 27 -91 75
-126 44 -32 99 -158 70 -158 -5 0 -11 6 -14 13 -2 6 -8 0 -12 -15 -5 -20 -1
-37 15 -63 12 -19 25 -35 30 -35 29 0 25 326 -5 398 -14 34 -15 51 -7 85 5 23
7 61 5 85 -4 29 0 50 11 67 21 32 20 42 -6 56 -19 10 -26 6 -68 -39 -25 -27
-54 -68 -64 -91 -11 -22 -25 -41 -32 -41 -26 0 -71 55 -88 108 -18 51 -18 55
0 122 18 69 31 83 53 57 8 -10 7 -22 -1 -44 -8 -21 -9 -41 -2 -64 9 -30 14
-34 43 -32 34 1 81 36 81 60 0 10 5 11 19 3 26 -14 29 -13 41 10 8 14 7 25 -2
40 -11 17 -10 22 2 31 19 12 100 1 121 -17 20 -18 29 -18 29 2 0 19 65 84 84
84 28 0 76 32 76 51 0 10 -4 19 -8 19 -4 0 -14 17 -21 38 -7 20 -28 53 -45 72
-47 50 -96 130 -96 154 0 9 -52 13 -202 14 -112 1 -237 2 -278 4 -103 3 -210
-5 -210 -16 0 -5 -35 -5 -82 -1 -46 5 -103 9 -128 9 -63 1 -104 27 -126 78
-15 36 -17 66 -15 193 1 83 4 256 5 385 1 158 6 252 15 287 12 46 11 57 -3 93
-9 22 -16 68 -16 101 0 56 2 62 38 95 36 35 38 35 99 29 51 -4 69 -2 100 15
67 36 133 25 133 -21 0 -23 5 -29 23 -30 73 -3 242 0 299 6 62 6 72 5 113 -19
24 -15 59 -44 76 -65 42 -53 65 -58 73 -17 4 17 7 40 7 50 0 11 21 41 47 68
53 55 95 63 139 28 14 -11 33 -20 42 -20 9 0 27 -10 41 -21 20 -16 22 -22 10
-26 -25 -10 -110 -106 -125 -141 -12 -27 -55 -191 -55 -208 0 -2 5 -4 10 -4 6
0 10 9 10 19 0 11 5 23 10 26 6 3 10 15 10 25 0 17 17 61 63 160 20 44 70 90
109 101 47 12 155 -12 180 -41 9 -11 24 -46 35 -77 17 -56 18 -57 21 -24 2 19
10 44 18 55 16 24 89 48 121 40 29 -8 56 -50 50 -80 -3 -16 0 -24 9 -24 21 0
36 -39 30 -76 -4 -20 -1 -47 8 -68 17 -40 36 -48 36 -15 0 18 2 19 15 9 14
-12 29 -8 31 8 0 4 4 20 9 36 9 32 -18 157 -41 190 -8 11 -14 29 -14 39 0 10
-7 29 -16 42 -19 30 -8 69 32 106 20 18 24 32 24 78 0 68 -34 146 -59 135 -9
-3 -27 -7 -41 -8 -20 -1 -26 -9 -37 -46 -7 -24 -19 -50 -25 -56 -11 -10 -69
-19 -101 -15 -4 1 4 18 18 38 28 42 31 70 13 120 -10 26 -9 36 1 45 10 11 15
9 27 -6 9 -14 28 -21 59 -22 25 -2 45 -2 45 0 0 2 -6 16 -14 31 -14 27 -12 55
4 55 24 0 76 -62 110 -130 35 -70 53 -90 81 -90 5 0 9 6 9 14 0 7 9 25 21 40
19 24 20 30 9 57 -17 39 -7 46 36 25 26 -12 40 -14 49 -6 24 20 26 58 5 92
-24 40 -26 68 -4 68 15 0 15 2 0 23 -32 44 -50 83 -61 132 l-12 50 -49 -1
c-45 -1 -52 1 -67 27 -9 17 -25 29 -36 29 -23 0 -31 10 -41 54 -4 17 -11 39
-15 49 -5 12 -2 17 9 17 10 0 16 -9 16 -23 0 -36 32 -57 100 -67 43 -6 70 -16
87 -32 19 -17 28 -20 41 -12 28 18 119 160 133 210 10 32 23 51 46 65 32 20
32 21 17 50 -10 19 -25 32 -44 36 -17 3 -30 9 -30 13 0 4 -9 10 -20 13 -21 5
-55 70 -66 124 -5 24 -1 30 31 47 19 11 37 29 40 40 2 12 9 48 15 80 10 59 10
61 -20 91 -16 17 -35 45 -41 63 -6 18 -20 37 -30 43 -29 15 -23 58 17 118 35
51 37 53 71 46 43 -8 47 -11 101 -99 39 -62 42 -73 36 -112 -5 -35 -3 -44 9
-44 8 0 18 7 21 16 12 32 7 169 -7 210 -29 80 -114 208 -185 281 -29 28 -33
40 -32 76 4 73 1 97 -14 97 -8 0 -17 7 -20 16 -3 8 -10 13 -15 10 -5 -3 -26 0
-47 8 -22 7 -48 10 -59 6 -25 -9 -42 -1 -24 12 10 7 5 8 -13 4 -20 -5 -28 -2
-28 7 0 7 -16 19 -35 27 -19 8 -35 17 -35 22 0 4 -6 8 -14 8 -17 0 -100 42
-104 53 -2 4 -8 7 -14 7 -5 0 -22 8 -36 19 -42 29 -144 61 -194 61 -27 0 -50
6 -57 14 -7 8 -20 12 -29 9 -10 -2 -35 8 -57 23 -33 23 -51 28 -100 29 -45 0
-60 4 -62 15 -10 79 -17 94 -58 136 -37 38 -45 54 -55 112 -7 37 -22 84 -32
104 -21 41 -20 67 9 183 17 64 12 236 -7 292 l-10 28 -124 0 c-68 0 -121 -2
-117 -5z m-3 -1575 c22 -34 11 -42 -31 -22 -36 17 -44 32 -22 40 25 11 37 6
53 -18z m-323 -44 c7 -35 36 -53 86 -53 20 0 49 -7 65 -15 27 -14 37 -13 123
7 l94 23 29 -28 c34 -33 31 -47 -10 -38 -19 3 -30 1 -30 -6 0 -10 42 -16 77
-12 14 2 53 -46 53 -65 0 -21 57 -77 70 -69 6 4 10 25 8 47 -1 30 3 44 17 54
30 22 61 17 133 -21 44 -24 75 -34 89 -30 17 4 21 2 17 -10 -5 -11 -2 -13 10
-9 14 5 16 2 10 -20 -5 -21 -3 -25 10 -20 9 3 16 1 16 -5 0 -6 6 -8 14 -5 7 3
22 -5 32 -18 11 -13 35 -30 54 -38 68 -26 94 -63 103 -145 3 -27 17 -75 31
-105 24 -51 26 -62 20 -145 -7 -104 -19 -137 -68 -184 -20 -19 -36 -40 -36
-47 0 -6 -16 -22 -35 -35 -19 -13 -35 -27 -35 -30 0 -3 -18 -26 -39 -51 -22
-24 -41 -54 -43 -67 -1 -13 -12 -30 -24 -38 -19 -12 -24 -11 -45 6 -19 15 -21
21 -11 34 16 18 -2 27 -40 20 -22 -4 -27 1 -41 36 -9 23 -19 41 -22 41 -3 0
-23 -9 -45 -20 -47 -24 -45 -24 -64 -5 -13 13 -20 12 -63 -9 -43 -21 -72 -25
-288 -38 -175 -11 -242 -12 -247 -4 -5 7 -8 4 -8 -8 0 -16 -5 -18 -37 -12 -21
3 -74 6 -119 6 -73 0 -84 3 -117 28 -41 31 -57 60 -57 105 0 18 -7 66 -16 107
-13 63 -15 130 -10 431 3 195 9 367 15 380 14 39 31 47 131 62 52 8 111 21
130 30 19 8 51 16 71 16 33 1 37 -2 42 -28z m-1498 -151 c18 -20 17 -20 -23
-20 -43 0 -64 16 -41 31 23 14 45 10 64 -11z m3045 6 c0 -2 -13 -32 -29 -67
-15 -35 -34 -89 -41 -119 -17 -76 -39 -132 -39 -103 -1 12 3 43 9 70 5 26 14
75 20 108 7 41 18 68 37 87 23 24 43 36 43 24z m-260 -776 c0 -6 -12 -15 -27
-21 -16 -6 -37 -19 -48 -29 -11 -10 -29 -20 -39 -22 -36 -6 -26 17 22 49 46
31 92 43 92 23z m230 -336 c15 -10 32 -31 38 -50 12 -41 9 -42 -26 -9 -15 14
-33 23 -39 20 -9 -3 -13 6 -13 25 0 35 2 36 40 14z m-344 -265 c-3 -17 -6 -39
-6 -48 -1 -27 -34 -63 -53 -55 -22 8 -21 20 3 44 11 11 20 30 20 43 0 23 17
47 33 47 5 0 7 -14 3 -31z m-146 -226 c8 -21 16 -41 18 -45 2 -5 -3 -8 -12 -8
-9 0 -18 12 -22 28 -3 15 -8 35 -11 45 -9 33 13 17 27 -20z m221 -68 c27 -11
29 -14 12 -15 -12 0 -28 -3 -37 -6 -12 -4 -16 0 -16 15 0 25 -1 25 41 6z
m-1028 -1602 c8 -7 -31 -53 -45 -53 -5 0 -2 14 7 30 15 30 26 36 38 23z m276
-537 c12 -13 18 -26 13 -30 -10 -6 -52 29 -52 44 0 17 16 11 39 -14z m-409
-91 c-7 -8 -20 -15 -28 -15 -13 0 -12 3 4 15 25 19 40 19 24 0z"/>
<path d="M6838 9629 c-19 -10 -25 -54 -9 -63 14 -9 61 33 61 55 0 21 -24 25
-52 8z"/>
<path d="M7046 9575 c10 -8 25 -15 32 -15 6 0 12 -3 12 -7 0 -5 16 -19 35 -32
32 -21 38 -23 60 -11 30 16 32 30 5 30 -17 0 -66 18 -112 41 -10 5 -25 9 -35
9 -15 0 -14 -2 3 -15z"/>
<path d="M6915 9450 c-3 -5 -15 -10 -26 -10 -13 0 -19 -7 -19 -21 l0 -20 26
20 c15 12 37 21 50 21 13 0 24 5 24 10 0 6 -11 10 -24 10 -14 0 -28 -4 -31
-10z"/>
<path d="M7282 9419 c0 -24 3 -37 6 -29 3 8 9 18 15 21 6 4 4 16 -6 29 -15 22
-16 22 -15 -21z"/>
<path d="M6988 9433 c7 -3 16 -2 19 1 4 3 -2 6 -13 5 -11 0 -14 -3 -6 -6z"/>
<path d="M6634 11065 c8 -8 23 -15 33 -15 13 0 10 4 -11 15 -36 19 -41 19 -22
0z"/>
<path d="M8577 10043 c-13 -13 -7 -30 23 -62 34 -35 70 -42 70 -13 0 10 -15
32 -33 50 -33 32 -48 38 -60 25z"/>
<path d="M8615 9647 c-8 -44 -2 -67 20 -67 20 0 20 59 1 85 -13 19 -15 17 -21
-18z"/>
<path d="M8952 9347 c-6 -7 -14 -36 -18 -65 -5 -44 -4 -52 9 -52 25 0 50 111
28 124 -5 3 -13 0 -19 -7z"/>
<path d="M8793 8795 c-12 -8 -35 -37 -52 -65 -17 -27 -54 -66 -82 -86 l-51
-37 7 -71 c3 -39 11 -83 17 -99 6 -15 8 -58 6 -97 -3 -39 -2 -70 1 -70 4 0 17
7 29 16 27 19 29 58 4 99 -27 44 -33 109 -15 169 8 28 17 57 19 65 3 8 12 11
28 7 16 -4 39 3 69 19 37 21 45 31 51 63 14 87 5 112 -31 87z"/>
<path d="M9035 8280 c-3 -5 -2 -10 4 -10 5 0 13 5 16 10 3 6 2 10 -4 10 -5 0
-13 -4 -16 -10z"/>
<path d="M8582 8188 c-14 -14 -16 -38 -3 -38 15 0 42 31 36 41 -8 12 -19 11
-33 -3z"/>
<path d="M8850 8158 c0 -8 4 -18 9 -23 5 -6 11 -26 14 -45 4 -33 4 -32 5 8 1
27 -4 49 -13 58 -12 13 -15 13 -15 2z"/>
<path d="M8501 8114 c-33 -28 -43 -78 -19 -102 15 -15 38 -16 38 -1 0 6 16 27
35 46 43 43 44 48 6 28 -37 -18 -48 -5 -25 30 21 32 4 32 -35 -1z"/>
<path d="M8637 8123 c-17 -9 -27 -21 -25 -31 2 -9 -9 -28 -24 -40 -16 -13 -28
-28 -28 -33 0 -20 48 -7 75 21 32 34 45 31 45 -11 0 -36 17 -38 26 -4 3 14 16
31 28 37 20 12 20 12 -9 18 -24 4 -31 11 -33 33 -4 30 -14 32 -55 10z"/>
<path d="M9048 8046 c9 -19 19 -30 21 -24 4 12 -19 58 -30 58 -5 0 -1 -15 9
-34z"/>
<path d="M8928 8053 c7 -3 16 -2 19 1 4 3 -2 6 -13 5 -11 0 -14 -3 -6 -6z"/>
<path d="M8830 8027 c0 -8 -6 -17 -12 -20 -7 -2 -11 -7 -8 -10 3 -3 15 0 28 7
21 11 22 14 8 25 -13 11 -16 11 -16 -2z"/>
<path d="M8661 7984 c0 -11 3 -14 6 -6 3 7 2 16 -1 19 -3 4 -6 -2 -5 -13z"/>
<path d="M8724 7978 c3 -13 6 -26 6 -30 0 -12 25 -9 37 3 8 8 7 16 -5 30 -23
27 -46 25 -38 -3z"/>
<path d="M8653 7943 c-7 -3 -13 -10 -13 -17 0 -7 -14 -25 -30 -41 -17 -16 -51
-70 -75 -120 -45 -90 -57 -149 -32 -158 18 -6 -18 -43 -54 -56 -16 -5 -29 -8
-29 -5 0 2 11 30 24 62 40 95 76 221 61 216 -18 -7 -51 -80 -69 -152 -16 -69
-47 -127 -76 -142 -10 -5 -33 -7 -52 -4 -18 3 -28 2 -22 -3 14 -10 54 -80 54
-94 0 -6 -8 -9 -17 -8 -48 4 -63 -20 -34 -57 18 -23 18 -23 37 -3 10 11 24 17
31 15 11 -5 12 2 8 28 -6 30 -4 34 28 49 19 10 41 17 49 17 7 0 22 7 32 15 31
23 56 18 92 -20 18 -19 35 -35 38 -35 14 0 4 40 -25 93 -29 55 -30 60 -14 77
9 10 27 21 40 24 16 4 29 20 40 51 l18 44 -32 36 c-17 20 -31 40 -31 45 0 23
24 57 55 78 19 12 35 28 35 36 0 18 -22 35 -37 29z"/>
<path d="M8783 7893 c-36 -18 -45 -53 -15 -53 25 0 63 37 56 55 -4 8 -7 15 -8
14 0 0 -16 -8 -33 -16z"/>
<path d="M9066 7875 c-19 -14 -19 -15 7 -15 17 0 27 5 27 15 0 19 -9 19 -34 0z"/>
<path d="M8907 7853 c-4 -3 -7 -15 -7 -25 0 -21 30 -24 61 -7 20 10 20 11 2
24 -19 15 -46 19 -56 8z"/>
<path d="M7048 7843 c7 -3 16 -2 19 1 4 3 -2 6 -13 5 -11 0 -14 -3 -6 -6z"/>
<path d="M9103 7784 c-36 -15 -48 -30 -33 -39 13 -8 70 26 70 42 0 7 -1 13 -2
12 -2 0 -17 -7 -35 -15z"/>
<path d="M8001 7704 c0 -11 3 -14 6 -6 3 7 2 16 -1 19 -3 4 -6 -2 -5 -13z"/>
<path d="M8021 7654 c0 -11 3 -14 6 -6 3 7 2 16 -1 19 -3 4 -6 -2 -5 -13z"/>
<path d="M8225 7545 c-19 -15 -19 -16 8 -42 20 -21 30 -24 38 -16 9 9 9 19 -1
42 -14 35 -17 36 -45 16z"/>
<path d="M8496 7465 c-3 -9 0 -15 8 -15 7 0 23 -9 36 -20 42 -37 56 -18 18 25
-24 28 -53 33 -62 10z"/>
<path d="M8872 7424 c-28 -14 -54 -34 -57 -45 -4 -10 -11 -19 -16 -19 -5 0 -9
-7 -9 -15 0 -8 3 -15 8 -15 13 1 42 27 42 38 0 24 47 43 85 36 26 -5 33 -10
26 -17 -25 -25 -6 -117 24 -117 11 0 15 14 16 53 2 73 0 79 -27 104 -31 28
-29 28 -92 -3z"/>
<path d="M8532 7377 c3 -33 8 -41 36 -52 44 -19 43 0 -3 51 l-35 39 2 -38z"/>
<path d="M8401 7364 c-22 -28 -19 -49 6 -39 23 8 63 -22 63 -48 0 -12 7 -31
15 -41 14 -19 15 -19 15 5 0 14 -3 29 -7 33 -5 4 -15 31 -23 59 -18 60 -39 70
-69 31z"/>
<path d="M8656 7351 c-4 -7 -5 -15 -2 -18 9 -9 19 4 14 18 -4 11 -6 11 -12 0z"/>
<path d="M8616 7333 c-11 -11 -6 -23 9 -23 8 0 15 4 15 9 0 13 -16 22 -24 14z"/>
<path d="M8808 7253 c-3 -27 -1 -57 3 -68 5 -13 8 5 8 48 1 78 -5 88 -11 20z"/>
<path d="M8410 7236 c0 -28 13 -47 41 -62 39 -20 38 0 -1 44 -33 36 -40 39
-40 18z"/>
<path d="M9150 7180 c0 -5 4 -10 9 -10 6 0 13 5 16 10 3 6 -1 10 -9 10 -9 0
-16 -4 -16 -10z"/>
<path d="M8768 7083 c2 -49 7 -101 11 -117 6 -27 8 -28 24 -12 26 26 24 127
-3 151 -11 10 -20 29 -20 42 0 12 -3 23 -7 23 -5 0 -7 -39 -5 -87z"/>
<path d="M9000 7117 c0 -13 -3 -27 -7 -31 -17 -16 -32 -84 -26 -119 5 -31 8
-35 20 -25 8 7 19 21 24 33 5 11 21 35 34 54 33 45 33 71 0 71 -18 0 -25 5
-25 20 0 11 -4 20 -10 20 -5 0 -10 -10 -10 -23z"/>
<path d="M8286 7035 c-8 -8 -18 -25 -21 -38 -4 -12 -15 -31 -25 -42 -10 -11
-21 -30 -24 -42 -6 -18 -1 -25 24 -38 33 -17 69 -21 153 -17 48 2 48 2 69 52
11 28 25 50 29 50 18 0 8 16 -20 33 -16 9 -46 17 -66 17 -22 0 -47 8 -62 20
-31 24 -37 25 -57 5z m55 -77 c22 -27 24 -61 6 -76 -23 -20 -87 -6 -87 18 0 5
11 22 25 38 13 16 22 32 18 36 -3 3 -1 6 6 6 7 0 21 -10 32 -22z"/>
<path d="M8211 6984 c0 -11 3 -14 6 -6 3 7 2 16 -1 19 -3 4 -6 -2 -5 -13z"/>
<path d="M8864 6875 c8 -8 20 -15 27 -15 9 0 8 4 -1 15 -7 8 -19 15 -27 15
-12 0 -12 -2 1 -15z"/>
<path d="M7811 6794 c0 -11 3 -14 6 -6 3 7 2 16 -1 19 -3 4 -6 -2 -5 -13z"/>
<path d="M8893 6764 c-3 -8 -3 -47 1 -85 5 -58 3 -77 -15 -115 -11 -25 -18
-48 -15 -51 8 -9 36 17 52 50 20 37 29 154 15 190 -12 30 -28 35 -38 11z"/>
<path d="M7605 6755 c6 -2 22 -6 37 -9 24 -6 26 -9 21 -41 -6 -40 -6 -40 33
-20 21 11 24 15 11 15 -40 0 -8 25 38 30 45 5 47 6 30 20 -14 11 -19 12 -22 3
-5 -15 -49 -17 -58 -3 -3 6 -27 10 -53 9 -26 0 -42 -2 -37 -4z"/>
<path d="M7892 6749 c2 -7 10 -15 17 -17 8 -3 12 1 9 9 -2 7 -10 15 -17 17 -8
3 -12 -1 -9 -9z"/>
<path d="M7810 6739 c0 -5 9 -9 20 -9 11 0 20 2 20 4 0 2 -9 6 -20 9 -11 3
-20 1 -20 -4z"/>
<path d="M8782 6720 c-16 -26 -16 -80 1 -80 21 0 37 22 37 51 0 37 -22 54 -38
29z"/>
<path d="M7912 6688 c6 -18 28 -21 28 -4 0 9 -7 16 -16 16 -9 0 -14 -5 -12
-12z"/>
<path d="M8103 6693 c-22 -8 -14 -23 12 -23 14 0 25 4 25 9 0 11 -21 19 -37
14z"/>
<path d="M7854 6665 c-4 -9 -4 -18 -2 -21 9 -8 39 8 35 19 -6 18 -27 20 -33 2z"/>
<path d="M7653 6605 c-7 -19 -5 -22 27 -30 29 -7 67 16 56 33 -11 18 -76 15
-83 -3z"/>
<path d="M8672 6595 c-18 -40 -16 -57 8 -50 21 7 23 3 34 -47 6 -28 26 -39 26
-15 0 8 11 24 25 37 14 13 25 31 25 41 0 20 -39 47 -78 55 -23 5 -30 1 -40
-21z"/>
<path d="M8180 6575 c-10 -12 -10 -15 4 -15 9 0 16 7 16 15 0 8 -2 15 -4 15
-2 0 -9 -7 -16 -15z"/>
<path d="M7652 6538 c7 -19 38 -22 38 -4 0 10 -9 16 -21 16 -12 0 -19 -5 -17
-12z"/>
<path d="M7813 6468 c-40 -29 -55 -53 -67 -108 -10 -45 -43 -88 -73 -94 -25
-6 -31 -14 -42 -57 -10 -36 -10 -57 -2 -77 5 -15 11 -40 13 -56 4 -42 27 -45
35 -6 3 20 13 35 25 37 23 7 23 16 -2 38 -27 25 -25 42 7 50 52 13 81 42 88
90 10 61 25 81 53 66 32 -17 45 -47 32 -71 -14 -26 3 -27 53 -1 26 13 51 18
81 15 31 -3 49 0 60 12 24 24 20 31 -28 52 -24 11 -47 25 -50 31 -4 6 -22 11
-40 11 -38 0 -70 29 -60 54 7 18 -12 46 -30 46 -6 -1 -30 -15 -53 -32z"/>
<path d="M8653 6398 c-4 -7 -12 -20 -18 -29 -5 -9 -34 -45 -63 -79 -32 -37
-51 -68 -48 -77 3 -8 6 -24 6 -35 0 -20 1 -20 23 4 13 14 33 29 45 32 38 12
39 56 1 56 -27 0 -25 6 26 62 25 28 45 56 45 64 0 17 -6 18 -17 2z"/>
<path d="M8562 6375 c-25 -28 -23 -30 13 -13 14 6 25 17 25 25 0 20 -14 16
-38 -12z"/>
<path d="M8123 6313 c-14 -5 -18 -45 -7 -56 4 -4 8 -21 9 -38 3 -39 24 -79 41
-79 22 0 36 -37 24 -60 -6 -11 -15 -20 -21 -20 -16 0 -39 -27 -39 -45 0 -12 5
-15 16 -11 9 3 20 6 25 6 5 0 9 8 9 18 0 11 9 27 20 37 11 10 20 25 20 34 0 9
7 29 15 45 l15 29 -38 -7 c-55 -8 -72 13 -71 88 1 62 0 65 -18 59z"/>
<path d="M7990 6255 c-7 -9 -11 -18 -8 -20 6 -6 58 18 58 28 0 13 -37 7 -50
-8z"/>
<path d="M7480 6215 c-8 -9 -8 -15 -2 -15 12 0 26 19 19 26 -2 2 -10 -2 -17
-11z"/>
<path d="M7498 6187 c-30 -24 -47 -80 -29 -91 6 -4 11 -2 11 4 0 7 14 32 30
57 42 61 38 71 -12 30z"/>
<path d="M8050 6076 c0 -2 11 -6 25 -8 14 -3 25 -1 25 3 0 5 -11 9 -25 9 -14
0 -25 -2 -25 -4z"/>
<path d="M7632 5993 c-7 -21 -13 -48 -13 -60 0 -12 -5 -24 -12 -26 -6 -2 -1
-2 12 0 18 3 22 1 17 -12 -10 -26 17 -12 31 16 13 25 18 108 6 96 -3 -4 -11 0
-17 8 -9 13 -13 9 -24 -22z"/>
<path d="M7897 6013 c-4 -3 -7 -15 -7 -25 0 -16 3 -17 20 -8 22 12 27 40 7 40
-8 0 -17 -3 -20 -7z"/>
<path d="M5758 5883 c7 -3 16 -2 19 1 4 3 -2 6 -13 5 -11 0 -14 -3 -6 -6z"/>
<path d="M8466 5864 c-3 -7 -8 -36 -12 -62 -6 -44 -4 -50 15 -55 16 -4 21 -13
21 -37 0 -28 2 -31 15 -20 8 7 15 21 15 31 0 10 4 20 9 23 4 3 0 32 -11 65
-19 59 -41 83 -52 55z"/>
<path d="M6524 5800 c-22 -9 -39 -28 -32 -35 2 -2 22 7 43 20 39 24 32 33 -11
15z"/>
<path d="M6513 5688 c-18 -23 -34 -81 -25 -90 9 -9 25 24 36 75 7 30 4 34 -11
15z"/>
<path d="M6280 5576 c0 -9 14 -20 33 -25 17 -5 27 -10 20 -10 -22 -2 -35 -38
-21 -61 18 -29 25 -25 32 19 3 24 15 46 27 55 24 16 20 18 -53 31 -30 5 -38 3
-38 -9z"/>
<path d="M7218 5563 c-19 -22 -38 -58 -38 -72 0 -20 41 -11 66 14 28 28 29 68
3 73 -8 1 -22 -5 -31 -15z"/>
<path d="M1541 3940 c-201 -53 -363 -212 -437 -430 -26 -76 -26 -292 0 -365
42 -117 80 -180 161 -261 129 -130 263 -186 439 -185 111 0 185 19 294 72 93
45 200 138 251 218 37 56 37 57 11 71 -16 9 -22 6 -34 -18 -27 -52 -108 -133
-160 -159 -111 -57 -231 -29 -356 84 -187 169 -370 525 -370 720 0 120 87 188
175 135 16 -10 77 -72 135 -138 133 -149 191 -184 303 -184 125 0 209 56 263
175 23 50 28 77 32 167 l5 108 -27 0 c-21 0 -26 -5 -26 -25 0 -59 -49 -105
-112 -105 -10 0 -65 24 -122 54 -58 30 -128 62 -157 70 -70 21 -177 19 -268
-4z"/>
<path d="M6060 3916 c0 -46 -54 -123 -110 -158 -59 -36 -162 -58 -278 -58 -91
0 -93 -1 -90 -22 3 -21 9 -23 66 -26 l62 -3 0 -302 c0 -166 5 -331 11 -367 28
-177 137 -280 297 -282 83 -1 115 14 188 88 45 45 60 54 89 54 50 0 75 -28 75
-85 0 -41 2 -45 24 -45 23 0 25 5 32 68 4 37 2 102 -3 144 -19 141 -78 218
-185 240 -85 18 -133 -4 -233 -108 -89 -92 -108 -104 -159 -104 -45 0 -76 29
-76 71 0 52 18 70 118 116 210 98 222 117 222 351 l0 161 138 3 c134 3 137 4
140 26 3 22 3 22 -137 22 l-141 0 0 125 0 125 -25 0 c-22 0 -25 -4 -25 -34z"/>
<path d="M8230 3638 c0 -294 1 -314 21 -354 26 -54 66 -85 184 -139 114 -53
135 -72 135 -123 0 -57 -25 -76 -92 -70 -45 4 -68 14 -147 67 -208 140 -361
177 -504 122 -111 -43 -177 -172 -177 -348 0 -81 1 -83 24 -83 20 0 24 6 30
39 8 54 33 81 81 88 36 4 55 -3 155 -55 137 -72 181 -85 281 -83 145 1 278 65
344 164 63 95 65 119 65 629 l0 458 -200 0 -200 0 0 -312z"/>
<path d="M9870 3330 l0 -620 133 0 c84 1 146 6 170 14 124 45 191 175 206 404
l6 97 33 -32 c39 -38 40 -57 11 -188 -26 -117 -21 -166 22 -218 108 -131 329
-108 501 52 59 54 67 68 47 88 -8 8 -23 2 -56 -23 -24 -19 -53 -34 -63 -34
-33 0 -76 48 -114 124 -58 117 -135 178 -308 245 -68 27 -68 27 -52 50 25 35
92 26 167 -24 47 -31 70 -40 115 -42 140 -9 199 91 217 370 l7 107 -31 0 c-29
0 -31 -2 -31 -35 0 -54 -32 -105 -66 -105 -3 0 -33 27 -68 59 -82 76 -115 93
-183 92 -145 -1 -187 -97 -203 -468 -10 -245 -26 -320 -83 -395 -47 -61 -99
-88 -170 -88 -104 0 -160 41 -159 119 1 44 19 87 50 114 11 10 62 39 113 65
106 53 148 98 174 184 20 67 22 440 2 477 -20 40 -58 60 -142 76 -118 22 -121
23 -154 51 -21 18 -33 38 -37 65 -6 33 -10 39 -30 39 l-24 0 0 -620z"/>
<path d="M2775 3691 c-22 -10 -71 -39 -108 -64 -148 -101 -272 -87 -292 32 -6
35 -10 41 -31 41 l-24 0 0 -495 0 -495 206 0 206 0 -3 434 c-4 415 -3 435 15
455 11 12 25 21 31 21 30 0 64 -43 86 -108 53 -162 105 -212 223 -212 97 0
171 58 197 154 23 85 22 84 57 50 50 -50 57 -97 40 -259 -17 -163 -11 -239 25
-318 53 -117 159 -193 301 -218 128 -22 249 5 343 77 l33 25 0 -28 c0 -51 -28
-160 -54 -211 -42 -83 -113 -125 -182 -108 -14 4 -65 47 -112 95 -77 79 -94
91 -146 106 -146 43 -284 -24 -336 -162 -26 -70 -40 -171 -33 -235 5 -43 9
-49 27 -46 16 2 22 12 27 45 7 55 33 83 76 83 41 0 64 -11 123 -60 76 -63 106
-74 195 -75 101 0 154 24 244 109 124 118 232 314 320 581 111 334 147 624 95
754 l-16 41 -263 0 -262 0 66 -68 c176 -180 263 -576 170 -769 -25 -52 -67
-83 -119 -90 -65 -9 -89 2 -112 54 -25 57 -26 203 -3 363 19 136 19 272 0 337
-20 67 -90 146 -150 169 -64 24 -189 16 -272 -19 l-63 -26 0 25 c0 19 -5 24
-25 24 -19 0 -26 -7 -31 -27 -12 -56 -16 -64 -40 -79 -34 -23 -64 -12 -128 44
-30 27 -73 54 -94 60 -60 18 -160 15 -207 -7z"/>
<path d="M4880 3691 c-25 -9 -81 -38 -125 -64 -89 -51 -142 -66 -198 -56 -50
8 -66 25 -75 80 -6 38 -11 44 -35 47 l-27 3 0 -736 0 -736 27 3 c21 2 29 10
33 33 15 74 45 95 155 114 179 31 189 44 193 244 2 81 7 147 12 147 4 0 13 -7
20 -15 6 -8 37 -24 68 -35 138 -52 290 -7 432 127 55 51 80 85 112 149 39 79
42 91 46 187 3 79 0 118 -13 163 -52 180 -177 300 -361 348 -83 21 -206 20
-264 -3z m92 -88 c93 -84 162 -231 198 -423 51 -265 5 -405 -133 -404 -60 0
-108 20 -166 71 l-42 35 3 352 c3 317 5 355 21 379 26 40 67 36 119 -10z"/>
<path d="M6865 3691 c-92 -26 -153 -60 -220 -123 -245 -228 -188 -658 107
-806 92 -46 168 -63 288 -63 165 0 285 42 386 134 110 100 157 211 157 372 0
73 -6 117 -21 162 -52 162 -184 282 -359 327 -83 22 -259 20 -338 -3z m32 -82
c23 -11 70 -51 104 -87 131 -143 317 -462 337 -581 22 -126 -48 -192 -152
-141 -94 45 -266 269 -379 491 -85 168 -96 263 -36 313 37 31 69 33 126 5z"/>
<path d="M9075 3691 c-92 -26 -153 -60 -220 -123 -245 -228 -188 -658 107
-806 92 -46 168 -63 288 -63 165 0 285 42 386 134 110 100 157 211 157 372 0
73 -6 117 -21 162 -52 162 -184 282 -359 327 -83 22 -259 20 -338 -3z m32 -82
c23 -11 70 -51 104 -87 131 -143 317 -462 337 -581 22 -126 -48 -192 -152
-141 -94 45 -266 269 -379 491 -85 168 -96 263 -36 313 37 31 69 33 126 5z"/>
<path d="M11350 3694 c-233 -61 -380 -250 -380 -489 0 -242 146 -428 385 -490
82 -22 263 -21 351 0 86 22 165 63 232 121 l52 46 46 -51 c109 -121 338 -167
490 -97 32 15 73 38 91 52 l33 25 0 -28 c0 -51 -28 -160 -54 -211 -42 -83
-113 -125 -182 -108 -14 4 -65 47 -112 95 -77 79 -94 91 -146 106 -146 43
-284 -24 -336 -162 -26 -70 -40 -171 -33 -235 5 -43 9 -49 27 -46 16 2 22 12
27 45 7 55 33 83 76 83 41 0 64 -11 123 -60 76 -63 106 -74 195 -75 101 0 154
24 244 109 124 118 232 314 320 581 111 334 147 624 95 754 l-16 41 -263 0
-262 0 66 -68 c176 -180 263 -576 170 -769 -25 -52 -67 -83 -119 -90 -65 -9
-89 2 -112 54 -25 57 -26 203 -3 363 19 135 19 272 0 337 -18 62 -84 139 -140
164 -84 39 -241 18 -351 -47 -27 -16 -45 -21 -49 -14 -10 16 -85 52 -140 66
-66 18 -255 17 -325 -2z m49 -83 c21 -11 52 -36 69 -56 94 -107 96 -222 3
-293 -33 -27 -109 -62 -131 -62 -13 0 -83 141 -109 218 -12 34 -21 78 -21 98
0 42 24 88 54 103 34 16 94 12 135 -8z m531 -134 c29 -48 33 -103 17 -243 -10
-93 -12 -147 -5 -194 17 -117 20 -109 -52 -149 -60 -33 -72 -36 -145 -36 -67
0 -88 5 -132 28 -66 34 -147 113 -206 201 l-46 70 82 23 c231 67 426 217 427
331 0 20 3 21 21 12 11 -6 29 -25 39 -43z"/>
</g>
</svg>
